narrow.ufo
<glyph name="numbersign" format="2">
  <advance width="661.7313803794559"/>
  <unicode hex="0023"/>
  <outline>
    <contour>
      <point x="182.66610867984457" y="310.0" type="line"/>
      <point x="116.43630867984456" y="310.0"/>
      <point x="51.7928293720364" y="256.2298"/>
      <point x="38.4" y="190.0" type="curve"/>
      <point x="158.4" y="190.0" type="line"/>
    </contour>
    <contour>
      <point x="243.33138037945594" y="610.0" type="line"/>
      <point x="177.10158037945592" y="610.0"/>
      <point x="112.45810107164777" y="556.2298"/>
      <point x="99.06527169961137" y="490.0" type="curve"/>
      <point x="219.06527169961134" y="490.0" type="line"/>
    </contour>
    <contour>
      <point x="108.9675733952526" y="-5.0" type="line"/>
      <point x="175.1973733952526" y="-5.0"/>
      <point x="239.84085270306076" y="48.7702"/>
      <point x="253.23368207509714" y="115.0" type="curve"/>
      <point x="133.23368207509716" y="115.0" type="line"/>
    </contour>
    <contour>
      <point x="133.23368207509716" y="115.0" type="line"/>
      <point x="253.23368207509714" y="115.0" type="line"/>
      <point x="270.4221757233204" y="200.0" type="line"/>
      <point x="150.42217572332038" y="200.0" type="line"/>
    </contour>
    <contour>
      <point x="150.42217572332038" y="200" type="line"/>
      <point x="270.4221757233204" y="200" type="line"/>
      <point x="310.86569018972796" y="400" type="line"/>
      <point x="190.86569018972796" y="400" type="line"/>
    </contour>
    <contour>
      <point x="190.86569018972796" y="400" type="line"/>
      <point x="310.86569018972796" y="400" type="line"/>
      <point x="351.30920465613553" y="600" type="line"/>
      <point x="231.30920465613553" y="600" type="line"/>
    </contour>
    <contour>
      <point x="392.76380698420326" y="805.0" type="line"/>
      <point x="326.5340069842033" y="805.0"/>
      <point x="261.89052767639515" y="751.2298"/>
      <point x="248.49769830435878" y="685.0" type="curve"/>
      <point x="368.4976983043588" y="685.0" type="line"/>
    </contour>
    <contour>
      <point x="231.30920465613553" y="600" type="line"/>
      <point x="351.30920465613553" y="600" type="line"/>
      <point x="368.4976983043588" y="685.0" type="line"/>
      <point x="248.49769830435878" y="685.0" type="line"/>
    </contour>
    <contour>
      <point x="208.39999999999998" y="190.0" type="line"/>
      <point x="328.4" y="190.0" type="line"/>
      <point x="352.66610867984457" y="310.0" type="line"/>
      <point x="232.66610867984457" y="310.0" type="line"/>
    </contour>
    <contour>
      <point x="268.9675733952526" y="-5.0" type="line"/>
      <point x="335.1973733952526" y="-5.0"/>
      <point x="399.8408527030607" y="48.7702"/>
      <point x="413.23368207509714" y="115.0" type="curve"/>
      <point x="293.23368207509714" y="115.0" type="line"/>
    </contour>
    <contour>
      <point x="293.23368207509714" y="115.0" type="line"/>
      <point x="413.23368207509714" y="115.0" type="line"/>
      <point x="430.4221757233204" y="200.0" type="line"/>
      <point x="310.4221757233204" y="200.0" type="line"/>
    </contour>
    <contour>
      <point x="310.4221757233204" y="200" type="line"/>
      <point x="430.4221757233204" y="200" type="line"/>
      <point x="470.86569018972796" y="400" type="line"/>
      <point x="350.86569018972796" y="400" type="line"/>
    </contour>
    <contour>
      <point x="350.86569018972796" y="400" type="line"/>
      <point x="470.86569018972796" y="400" type="line"/>
      <point x="511.30920465613553" y="600" type="line"/>
      <point x="391.30920465613553" y="600" type="line"/>
    </contour>
    <contour>
      <point x="552.7638069842033" y="805.0" type="line"/>
      <point x="486.5340069842033" y="805.0"/>
      <point x="421.8905276763951" y="751.2298"/>
      <point x="408.4976983043588" y="685.0" type="curve"/>
      <point x="528.4976983043588" y="685.0" type="line"/>
    </contour>
    <contour>
      <point x="391.30920465613553" y="600" type="line"/>
      <point x="511.30920465613553" y="600" type="line"/>
      <point x="528.4976983043588" y="685.0" type="line"/>
      <point x="408.4976983043588" y="685.0" type="line"/>
    </contour>
    <contour>
      <point x="309.06527169961134" y="490.0" type="line"/>
      <point x="429.06527169961134" y="490.0" type="line"/>
      <point x="453.33138037945594" y="610.0" type="line"/>
      <point x="333.33138037945594" y="610.0" type="line"/>
    </contour>
    <contour>
      <point x="418.4" y="190.0" type="line"/>
      <point x="484.62980000000005" y="190.0"/>
      <point x="549.2732793078081" y="243.7702"/>
      <point x="562.6661086798446" y="310.0" type="curve"/>
      <point x="442.66610867984457" y="310.0" type="line"/>
    </contour>
    <contour>
      <point x="479.06527169961134" y="490.0" type="line"/>
      <point x="545.2950716996114" y="490.0"/>
      <point x="609.9385510074195" y="543.7702"/>
      <point x="623.3313803794559" y="610.0" type="curve"/>
      <point x="503.33138037945594" y="610.0" type="line"/>
    </contour>
  </outline>
</glyph>
<glyph name="dollar" format="2">
  <advance width="356.8"/>
  <unicode hex="0024"/>
  <outline>
    <contour>
      <point x="98.4" y="0" type="line"/>
      <point x="158.4" y="0" type="line"/>
      <point x="158.4" y="100.0" type="line"/>
      <point x="98.4" y="100.0" type="line"/>
    </contour>
    <contour>
      <point x="158.4" y="100.0" type="line"/>
      <point x="158.4" y="166.2298"/>
      <point x="104.62979999999999" y="220.0"/>
      <point x="38.4" y="220.0" type="curve"/>
      <point x="38.4" y="100.0" type="line"/>
    </contour>
    <contour>
      <point x="38.4" y="460.0" type="line"/>
      <point x="38.4" y="393.7702"/>
      <point x="92.1702" y="340.0"/>
      <point x="158.4" y="340.0" type="curve"/>
      <point x="158.4" y="460.0" type="line"/>
    </contour>
    <contour>
      <point x="38.4" y="460.0" type="line"/>
      <point x="158.4" y="460.0" type="line"/>
      <point x="158.4" y="500.0" type="line"/>
      <point x="38.4" y="500.0" type="line"/>
    </contour>
    <contour>
      <point x="158.4" y="700.0" type="line"/>
      <point x="92.1702" y="700.0"/>
      <point x="38.4" y="646.2298"/>
      <point x="38.4" y="580.0" type="curve"/>
      <point x="158.4" y="580.0" type="line"/>
    </contour>
    <contour>
      <point x="38.4" y="500.0" type="line"/>
      <point x="158.4" y="500.0" type="line"/>
      <point x="158.4" y="580.0" type="line"/>
      <point x="38.4" y="580.0" type="line"/>
    </contour>
    <contour>
      <point x="98.4" y="600" type="line"/>
      <point x="158.4" y="600" type="line"/>
      <point x="158.4" y="700.0" type="line"/>
      <point x="98.4" y="700.0" type="line"/>
    </contour>
    <contour>
      <point x="98.4" y="700.0" type="line"/>
      <point x="158.4" y="700.0" type="line"/>
      <point x="158.4" y="800.0" type="line"/>
      <point x="98.4" y="800.0" type="line"/>
    </contour>
    <contour>
      <point x="198.4" y="0" type="line"/>
      <point x="258.4" y="0" type="line"/>
      <point x="258.4" y="100.0" type="line"/>
      <point x="198.4" y="100.0" type="line"/>
    </contour>
    <contour>
      <point x="198.4" y="100.0" type="line"/>
      <point x="258.4" y="100.0" type="line"/>
      <point x="258.4" y="200.0" type="line"/>
      <point x="198.4" y="200.0" type="line"/>
    </contour>
    <contour>
      <point x="198.4" y="100.0" type="line"/>
      <point x="264.6298" y="100.0"/>
      <point x="318.4" y="153.7702"/>
      <point x="318.4" y="220.0" type="curve"/>
      <point x="198.4" y="220.0" type="line"/>
    </contour>
    <contour>
      <point x="198.4" y="220.0" type="line"/>
      <point x="318.4" y="220.0" type="line"/>
      <point x="318.4" y="300.0" type="line"/>
      <point x="198.4" y="300.0" type="line"/>
    </contour>
    <contour>
      <point x="318.4" y="340.0" type="line"/>
      <point x="318.4" y="406.2298"/>
      <point x="264.6298" y="460.0"/>
      <point x="198.4" y="460.0" type="curve"/>
      <point x="198.4" y="340.0" type="line"/>
    </contour>
    <contour>
      <point x="198.4" y="300.0" type="line"/>
      <point x="318.4" y="300.0" type="line"/>
      <point x="318.4" y="340.0" type="line"/>
      <point x="198.4" y="340.0" type="line"/>
    </contour>
    <contour>
      <point x="194.65" y="700.0" type="line"/>
      <point x="194.65" y="633.7702"/>
      <point x="248.4202" y="580.0"/>
      <point x="314.65" y="580.0" type="curve"/>
      <point x="314.65" y="700.0" type="line"/>
    </contour>
    <contour>
      <point x="194.65" y="700.0" type="line"/>
      <point x="254.65" y="700.0" type="line"/>
      <point x="254.65" y="800.0" type="line"/>
      <point x="194.65" y="800.0" type="line"/>
    </contour>
  </outline>
</glyph>
<glyph name="percent" format="2">
  <advance width="606.8"/>
  <unicode hex="0025"/>
  <outline>
    <contour>
      <point x="103.4" y="805.0" type="line"/>
      <point x="67.52552" y="805.0"/>
      <point x="38.4" y="775.87448"/>
      <point x="38.4" y="740.0" type="curve" smooth="yes"/>
      <point x="38.4" y="704.12552"/>
      <point x="67.52552" y="675.0"/>
      <point x="103.4" y="675.0" type="curve"/>
    </contour>
    <contour>
      <point x="143.4" y="675.0" type="line"/>
      <point x="179.27448" y="675.0"/>
      <point x="208.4" y="704.12552"/>
      <point x="208.4" y="740.0" type="curve" smooth="yes"/>
      <point x="208.4" y="775.87448"/>
      <point x="179.27448" y="805.0"/>
      <point x="143.4" y="805.0" type="curve"/>
    </contour>
    <contour>
      <point x="243.4" y="0.0" type="line"/>
      <point x="309.6298" y="0.0"/>
      <point x="363.4" y="53.7702"/>
      <point x="363.4" y="120.0" type="curve"/>
      <point x="243.4" y="120.0" type="line"/>
    </contour>
    <contour>
      <point x="243.4" y="120.0" type="line"/>
      <point x="363.4" y="120.0" type="line"/>
      <point x="363.4" y="200.0" type="line"/>
      <point x="243.4" y="200.0" type="line"/>
    </contour>
    <contour>
      <point x="243.4" y="200" type="line"/>
      <point x="363.4" y="200" type="line"/>
      <point x="363.4" y="400" type="line"/>
      <point x="243.4" y="400" type="line"/>
    </contour>
    <contour>
      <point x="243.4" y="400" type="line"/>
      <point x="363.4" y="400" type="line"/>
      <point x="363.4" y="600" type="line"/>
      <point x="243.4" y="600" type="line"/>
    </contour>
    <contour>
      <point x="363.4" y="800.0" type="line"/>
      <point x="297.17019999999997" y="800.0"/>
      <point x="243.4" y="746.2298"/>
      <point x="243.4" y="680.0" type="curve"/>
      <point x="363.4" y="680.0" type="line"/>
    </contour>
    <contour>
      <point x="243.4" y="600" type="line"/>
      <point x="363.4" y="600" type="line"/>
      <point x="363.4" y="680.0" type="line"/>
      <point x="243.4" y="680.0" type="line"/>
    </contour>
    <contour>
      <point x="463.4" y="125.0" type="line"/>
      <point x="427.52552" y="125.0"/>
      <point x="398.4" y="95.87448"/>
      <point x="398.4" y="60.0" type="curve" smooth="yes"/>
      <point x="398.4" y="24.12552"/>
      <point x="427.52552" y="-5.0"/>
      <point x="463.4" y="-5.0" type="curve"/>
    </contour>
    <contour>
      <point x="503.4" y="-5.0" type="line"/>
      <point x="539.2744799999999" y="-5.0"/>
      <point x="568.4" y="24.12552"/>
      <point x="568.4" y="60.0" type="curve" smooth="yes"/>
      <point x="568.4" y="95.87448"/>
      <point x="539.2744799999999" y="125.0"/>
      <point x="503.4" y="125.0" type="curve"/>
    </contour>
  </outline>
</glyph>
<glyph name="ampersand" format="2">
  <advance width="476.8"/>
  <unicode hex="0026"/>
  <outline>
    <contour>
      <point x="38.4" y="115.0" type="line"/>
      <point x="38.4" y="48.7702"/>
      <point x="92.1702" y="-5.0"/>
      <point x="158.4" y="-5.0" type="curve"/>
      <point x="158.4" y="115.0" type="line"/>
    </contour>
    <contour>
      <point x="38.4" y="115.0" type="line"/>
      <point x="158.4" y="115.0" type="line"/>
      <point x="158.4" y="200.0" type="line"/>
      <point x="38.4" y="200.0" type="line"/>
    </contour>
    <contour>
      <point x="158.4" y="400.0" type="line"/>
      <point x="92.1702" y="400.0"/>
      <point x="38.4" y="346.2298"/>
      <point x="38.4" y="280.0" type="curve"/>
      <point x="158.4" y="280.0" type="line"/>
    </contour>
    <contour>
      <point x="38.4" y="200" type="line"/>
      <point x="158.4" y="200" type="line"/>
      <point x="158.4" y="280.0" type="line"/>
      <point x="38.4" y="280.0" type="line"/>
    </contour>
    <contour>
      <point x="38.4" y="520.0" type="line"/>
      <point x="38.4" y="453.7702"/>
      <point x="92.1702" y="400.0"/>
      <point x="158.4" y="400.0" type="curve"/>
      <point x="158.4" y="520.0" type="line"/>
    </contour>
    <contour>
      <point x="38.4" y="520.0" type="line"/>
      <point x="158.4" y="520.0" type="line"/>
      <point x="158.4" y="600.0" type="line"/>
      <point x="38.4" y="600.0" type="line"/>
    </contour>
    <contour>
      <point x="158.4" y="800.0" type="line"/>
      <point x="92.1702" y="800.0"/>
      <point x="38.4" y="746.2298"/>
      <point x="38.4" y="680.0" type="curve"/>
      <point x="158.4" y="680.0" type="line"/>
    </contour>
    <contour>
      <point x="38.4" y="600" type="line"/>
      <point x="158.4" y="600" type="line"/>
      <point x="158.4" y="680.0" type="line"/>
      <point x="38.4" y="680.0" type="line"/>
    </contour>
    <contour>
      <point x="198.4" y="-5.0" type="line"/>
      <point x="264.6298" y="-5.0"/>
      <point x="318.4" y="48.7702"/>
      <point x="318.4" y="115.0" type="curve"/>
      <point x="198.4" y="115.0" type="line"/>
    </contour>
    <contour>
      <point x="198.4" y="115.0" type="line"/>
      <point x="318.4" y="115.0" type="line"/>
      <point x="318.4" y="200.0" type="line"/>
      <point x="198.4" y="200.0" type="line"/>
    </contour>
    <contour>
      <point x="198.4" y="200" type="line"/>
      <point x="318.4" y="200" type="line"/>
      <point x="318.4" y="300.0" type="line"/>
      <point x="198.4" y="300.0" type="line"/>
    </contour>
    <contour>
      <point x="318.4" y="500.0" type="line"/>
      <point x="252.1702" y="500.0"/>
      <point x="198.4" y="446.2298"/>
      <point x="198.4" y="380.0" type="curve"/>
      <point x="318.4" y="380.0" type="line"/>
    </contour>
    <contour>
      <point x="198.4" y="300.0" type="line"/>
      <point x="318.4" y="300.0" type="line"/>
      <point x="318.4" y="380.0" type="line"/>
      <point x="198.4" y="380.0" type="line"/>
    </contour>
    <contour>
      <point x="190.9" y="800.0" type="line"/>
      <point x="190.9" y="733.7702"/>
      <point x="244.6702" y="680.0"/>
      <point x="310.9" y="680.0" type="curve"/>
      <point x="310.9" y="800.0" type="line"/>
    </contour>
    <contour>
      <point x="318.4" y="380.0" type="line"/>
      <point x="384.6298" y="380.0"/>
      <point x="438.4" y="433.7702"/>
      <point x="438.4" y="500.0" type="curve"/>
      <point x="318.4" y="500.0" type="line"/>
    </contour>
  </outline>
</glyph>
<glyph name="parenleft" format="2">
  <advance width="196.8"/>
  <unicode hex="0028"/>
  <outline>
    <contour>
      <point x="38.4" y="20.0" type="line"/>
      <point x="38.4" y="-46.2298"/>
      <point x="92.1702" y="-100.0"/>
      <point x="158.4" y="-100.0" type="curve"/>
      <point x="158.4" y="20.0" type="line"/>
    </contour>
    <contour>
      <point x="38.4" y="20.0" type="line"/>
      <point x="158.4" y="20.0" type="line"/>
      <point x="158.4" y="100.0" type="line"/>
      <point x="38.4" y="100.0" type="line"/>
    </contour>
    <contour>
      <point x="38.4" y="100.0" type="line"/>
      <point x="158.4" y="100.0" type="line"/>
      <point x="158.4" y="300.0" type="line"/>
      <point x="38.4" y="300.0" type="line"/>
    </contour>
    <contour>
      <point x="38.4" y="300.0" type="line"/>
      <point x="158.4" y="300.0" type="line"/>
      <point x="158.4" y="500.0" type="line"/>
      <point x="38.4" y="500.0" type="line"/>
    </contour>
    <contour>
      <point x="38.4" y="500.0" type="line"/>
      <point x="158.4" y="500.0" type="line"/>
      <point x="158.4" y="700.0" type="line"/>
      <point x="38.4" y="700.0" type="line"/>
    </contour>
    <contour>
      <point x="158.4" y="900.0" type="line"/>
      <point x="92.1702" y="900.0"/>
      <point x="38.4" y="846.2298"/>
      <point x="38.4" y="780.0" type="curve"/>
      <point x="158.4" y="780.0" type="line"/>
    </contour>
    <contour>
      <point x="38.4" y="700.0" type="line"/>
      <point x="158.4" y="700.0" type="line"/>
      <point x="158.4" y="780.0" type="line"/>
      <point x="38.4" y="780.0" type="line"/>
    </contour>
  </outline>
</glyph>
<glyph name="asterisk" format="2">
  <advance width="393.92812921102035"/>
  <unicode hex="002A"/>
  <outline>
    <contour>
      <point x="355.5281292110203" y="685.3589838486223" type="line"/>
      <point x="315.5281292110203" y="754.6410161513775" type="line"/>
      <point x="38.4" y="594.6410161513776" type="line"/>
      <point x="78.39999999999998" y="525.3589838486224" type="line"/>
    </contour>
    <contour>
      <point x="315.5281292110203" y="525.3589838486224" type="line"/>
      <point x="355.5281292110203" y="594.6410161513775" type="line"/>
      <point x="78.4" y="754.6410161513775" type="line"/>
      <point x="38.4" y="685.3589838486225" type="line"/>
    </contour>
    <contour>
      <point x="156.96406460551015" y="480.0" type="line"/>
      <point x="236.96406460551015" y="480.0" type="line"/>
      <point x="236.96406460551015" y="800.0" type="line"/>
      <point x="156.96406460551015" y="800.0" type="line"/>
    </contour>
  </outline>
</glyph>
<glyph name="plus" format="2">
  <advance width="516.8"/>
  <unicode hex="002B"/>
  <outline>
    <contour>
      <point x="78.4" y="340.0" type="line"/>
      <point x="198.4" y="340.0" type="line"/>
      <point x="198.4" y="460.0" type="line"/>
      <point x="78.4" y="460.0" type="line"/>
    </contour>
    <contour>
      <point x="198.4" y="180.0" type="line"/>
      <point x="318.4" y="180.0" type="line"/>
      <point x="318.4" y="300.0" type="line"/>
      <point x="198.4" y="300.0" type="line"/>
    </contour>
    <contour>
      <point x="198.4" y="300.0" type="line"/>
      <point x="318.4" y="300.0" type="line"/>
      <point x="318.4" y="500.0" type="line"/>
      <point x="198.4" y="500.0" type="line"/>
    </contour>
    <contour>
      <point x="198.4" y="500.0" type="line"/>
      <point x="318.4" y="500.0" type="line"/>
      <point x="318.4" y="620.0" type="line"/>
      <point x="198.4" y="620.0" type="line"/>
    </contour>
    <contour>
      <point x="318.4" y="340.0" type="line"/>
      <point x="438.4" y="340.0" type="line"/>
      <point x="438.4" y="460.0" type="line"/>
      <point x="318.4" y="460.0" type="line"/>
    </contour>
  </outline>
</glyph>
<glyph name="period" format="2">
  <advance width="196.8"/>
  <unicode hex="002E"/>
  <outline>
    <contour>
      <point x="163.4" y="53.75" type="curve" smooth="yes"/>
      <point x="163.4" y="89.62448"/>
      <point x="134.27448" y="118.75"/>
      <point x="98.4" y="118.75" type="curve" smooth="yes"/>
      <point x="62.52552" y="118.75"/>
      <point x="33.4" y="89.62448"/>
      <point x="33.4" y="53.75" type="curve" smooth="yes"/>
      <point x="33.4" y="17.87552"/>
      <point x="62.52552" y="-11.25"/>
      <point x="98.4" y="-11.25" type="curve" smooth="yes"/>
      <point x="134.27448" y="-11.25"/>
      <point x="163.4" y="17.87552"/>
    </contour>
  </outline>
</glyph>
<glyph name="one" format="2">
  <advance width="196.8"/>
  <unicode hex="0031"/>
  <outline>
    <contour>
      <point x="38.4" y="0" type="line"/>
      <point x="158.4" y="0" type="line"/>
      <point x="158.4" y="200" type="line"/>
      <point x="38.4" y="200" type="line"/>
    </contour>
    <contour>
      <point x="38.4" y="200" type="line"/>
      <point x="158.4" y="200" type="line"/>
      <point x="158.4" y="400" type="line"/>
      <point x="38.4" y="400" type="line"/>
    </contour>
    <contour>
      <point x="38.4" y="400" type="line"/>
      <point x="158.4" y="400" type="line"/>
      <point x="158.4" y="600" type="line"/>
      <point x="38.4" y="600" type="line"/>
    </contour>
    <contour>
      <point x="38.4" y="600" type="line"/>
      <point x="158.4" y="600" type="line"/>
      <point x="158.4" y="800" type="line"/>
      <point x="38.4" y="800" type="line"/>
    </contour>
  </outline>
</glyph>
<glyph name="two" format="2">
  <advance width="356.8"/>
  <unicode hex="0032"/>
  <outline>
    <contour>
      <point x="158.4" y="120.0" type="line"/>
      <point x="92.1702" y="120.0"/>
      <point x="38.4" y="66.2298"/>
      <point x="38.4" y="0.0" type="curve"/>
      <point x="158.4" y="0.0" type="line"/>
    </contour>
    <contour>
      <point x="158.4" y="0" type="line"/>
      <point x="198.4" y="0" type="line"/>
      <point x="198.4" y="120.0" type="line"/>
      <point x="158.4" y="120.0" type="line"/>
    </contour>
    <contour>
      <point x="167.15" y="740.0" type="curve" smooth="yes"/>
      <point x="167.15" y="775.87448"/>
      <point x="138.02448" y="805.0"/>
      <point x="102.15" y="805.0" type="curve" smooth="yes"/>
      <point x="66.27552" y="805.0"/>
      <point x="37.15" y="775.87448"/>
      <point x="37.15" y="740.0" type="curve" smooth="yes"/>
      <point x="37.15" y="704.12552"/>
      <point x="66.27552" y="675.0"/>
      <point x="102.15" y="675.0" type="curve" smooth="yes"/>
      <point x="138.02448" y="675.0"/>
      <point x="167.15" y="704.12552"/>
    </contour>
    <contour>
      <point x="198.4" y="0" type="line"/>
      <point x="318.4" y="0" type="line"/>
      <point x="318.4" y="120.0" type="line"/>
      <point x="198.4" y="120.0" type="line"/>
    </contour>
    <contour>
      <point x="198.4" y="178.33333" type="line"/>
      <point x="264.6298" y="178.33333"/>
      <point x="318.4" y="232.10353"/>
      <point x="318.4" y="298.33333" type="curve"/>
      <point x="198.4" y="298.33333" type="line"/>
    </contour>
    <contour>
      <point x="198.4" y="298.33333" type="line"/>
      <point x="318.4" y="298.33333" type="line"/>
      <point x="318.4" y="500.0" type="line"/>
      <point x="198.4" y="500.0" type="line"/>
    </contour>
    <contour>
      <point x="198.4" y="500.0" type="line"/>
      <point x="318.4" y="500.0" type="line"/>
      <point x="318.4" y="600.0" type="line"/>
      <point x="198.4" y="600.0" type="line"/>
    </contour>
    <contour>
      <point x="318.4" y="685.0" type="line"/>
      <point x="318.4" y="751.2298"/>
      <point x="264.6298" y="805.0"/>
      <point x="198.4" y="805.0" type="curve"/>
      <point x="198.4" y="685.0" type="line"/>
    </contour>
    <contour>
      <point x="198.4" y="600" type="line"/>
      <point x="318.4" y="600" type="line"/>
      <point x="318.4" y="685.0" type="line"/>
      <point x="198.4" y="685.0" type="line"/>
    </contour>
  </outline>
</glyph>
<glyph name="three" format="2">
  <advance width="356.8"/>
  <unicode hex="0033"/>
  <outline>
    <contour>
      <point x="163.4" y="60.0" type="curve" smooth="yes"/>
      <point x="163.4" y="95.87448"/>
      <point x="134.27448" y="125.0"/>
      <point x="98.4" y="125.0" type="curve" smooth="yes"/>
      <point x="62.52552" y="125.0"/>
      <point x="33.4" y="95.87448"/>
      <point x="33.4" y="60.0" type="curve" smooth="yes"/>
      <point x="33.4" y="24.12552"/>
      <point x="62.52552" y="-5.0"/>
      <point x="98.4" y="-5.0" type="curve" smooth="yes"/>
      <point x="134.27448" y="-5.0"/>
      <point x="163.4" y="24.12552"/>
    </contour>
    <contour>
      <point x="163.4" y="740.0" type="curve" smooth="yes"/>
      <point x="163.4" y="775.87448"/>
      <point x="134.27448" y="805.0"/>
      <point x="98.4" y="805.0" type="curve" smooth="yes"/>
      <point x="62.52552" y="805.0"/>
      <point x="33.4" y="775.87448"/>
      <point x="33.4" y="740.0" type="curve" smooth="yes"/>
      <point x="33.4" y="704.12552"/>
      <point x="62.52552" y="675.0"/>
      <point x="98.4" y="675.0" type="curve" smooth="yes"/>
      <point x="134.27448" y="675.0"/>
      <point x="163.4" y="704.12552"/>
    </contour>
    <contour>
      <point x="198.4" y="-5.0" type="line"/>
      <point x="264.6298" y="-5.0"/>
      <point x="318.4" y="48.7702"/>
      <point x="318.4" y="115.0" type="curve"/>
      <point x="198.4" y="115.0" type="line"/>
    </contour>
    <contour>
      <point x="198.4" y="115.0" type="line"/>
      <point x="318.4" y="115.0" type="line"/>
      <point x="318.4" y="200.0" type="line"/>
      <point x="198.4" y="200.0" type="line"/>
    </contour>
    <contour>
      <point x="318.4" y="280.0" type="line"/>
      <point x="318.4" y="346.2298"/>
      <point x="264.6298" y="400.0"/>
      <point x="198.4" y="400.0" type="curve"/>
      <point x="198.4" y="280.0" type="line"/>
    </contour>
    <contour>
      <point x="198.4" y="200" type="line"/>
      <point x="318.4" y="200" type="line"/>
      <point x="318.4" y="280.0" type="line"/>
      <point x="198.4" y="280.0" type="line"/>
    </contour>
    <contour>
      <point x="198.4" y="400.0" type="line"/>
      <point x="264.6298" y="400.0"/>
      <point x="318.4" y="453.7702"/>
      <point x="318.4" y="520.0" type="curve"/>
      <point x="198.4" y="520.0" type="line"/>
    </contour>
    <contour>
      <point x="198.4" y="520.0" type="line"/>
      <point x="318.4" y="520.0" type="line"/>
      <point x="318.4" y="600.0" type="line"/>
      <point x="198.4" y="600.0" type="line"/>
    </contour>
    <contour>
      <point x="318.4" y="685.0" type="line"/>
      <point x="318.4" y="751.2298"/>
      <point x="264.6298" y="805.0"/>
      <point x="198.4" y="805.0" type="curve"/>
      <point x="198.4" y="685.0" type="line"/>
    </contour>
    <contour>
      <point x="198.4" y="600" type="line"/>
      <point x="318.4" y="600" type="line"/>
      <point x="318.4" y="685.0" type="line"/>
      <point x="198.4" y="685.0" type="line"/>
    </contour>
  </outline>
</glyph>
<glyph name="four" format="2">
  <advance width="356.8"/>
  <unicode hex="0034"/>
  <outline>
    <contour>
      <point x="38.4" y="300.0" type="line"/>
      <point x="104.62979999999999" y="300.0"/>
      <point x="158.4" y="353.7702"/>
      <point x="158.4" y="420.0" type="curve"/>
      <point x="38.4" y="420.0" type="line"/>
    </contour>
    <contour>
      <point x="38.4" y="420.0" type="line"/>
      <point x="158.4" y="420.0" type="line"/>
      <point x="158.4" y="500.0" type="line"/>
      <point x="38.4" y="500.0" type="line"/>
    </contour>
    <contour>
      <point x="38.4" y="500.0" type="line"/>
      <point x="158.4" y="500.0" type="line"/>
      <point x="158.4" y="600.0" type="line"/>
      <point x="38.4" y="600.0" type="line"/>
    </contour>
    <contour>
      <point x="38.4" y="600" type="line"/>
      <point x="158.4" y="600" type="line"/>
      <point x="158.4" y="800" type="line"/>
      <point x="38.4" y="800" type="line"/>
    </contour>
    <contour>
      <point x="198.4" y="0" type="line"/>
      <point x="318.4" y="0" type="line"/>
      <point x="318.4" y="200" type="line"/>
      <point x="198.4" y="200" type="line"/>
    </contour>
    <contour>
      <point x="198.4" y="200" type="line"/>
      <point x="318.4" y="200" type="line"/>
      <point x="318.4" y="400" type="line"/>
      <point x="198.4" y="400" type="line"/>
    </contour>
    <contour>
      <point x="198.4" y="400" type="line"/>
      <point x="318.4" y="400" type="line"/>
      <point x="318.4" y="500.0" type="line"/>
      <point x="198.4" y="500.0" type="line"/>
    </contour>
  </outline>
</glyph>
<glyph name="five" format="2">
  <advance width="356.8"/>
  <unicode hex="0035"/>
  <outline>
    <contour>
      <point x="163.4" y="55.0" type="curve" smooth="yes"/>
      <point x="163.4" y="90.87448"/>
      <point x="134.27448" y="120.0"/>
      <point x="98.4" y="120.0" type="curve" smooth="yes"/>
      <point x="62.52552" y="120.0"/>
      <point x="33.4" y="90.87448"/>
      <point x="33.4" y="55.0" type="curve" smooth="yes"/>
      <point x="33.4" y="19.12552"/>
      <point x="62.52552" y="-10.0"/>
      <point x="98.4" y="-10.0" type="curve" smooth="yes"/>
      <point x="134.27448" y="-10.0"/>
      <point x="163.4" y="19.12552"/>
    </contour>
    <contour>
      <point x="42.15" y="460.0" type="line"/>
      <point x="42.15" y="393.7702"/>
      <point x="95.9202" y="340.0"/>
      <point x="162.15" y="340.0" type="curve"/>
      <point x="162.15" y="460.0" type="line"/>
    </contour>
    <contour>
      <point x="42.15" y="460.0" type="line"/>
      <point x="162.15" y="460.0" type="line"/>
      <point x="162.15" y="500.0" type="line"/>
      <point x="42.15" y="500.0" type="line"/>
    </contour>
    <contour>
      <point x="42.15" y="500.0" type="line"/>
      <point x="162.15" y="500.0" type="line"/>
      <point x="162.15" y="600.0" type="line"/>
      <point x="42.15" y="600.0" type="line"/>
    </contour>
    <contour>
      <point x="42.15" y="600" type="line"/>
      <point x="162.15" y="600" type="line"/>
      <point x="162.15" y="800" type="line"/>
      <point x="42.15" y="800" type="line"/>
    </contour>
    <contour>
      <point x="198.4" y="-5.0" type="line"/>
      <point x="264.6298" y="-5.0"/>
      <point x="318.4" y="48.7702"/>
      <point x="318.4" y="115.0" type="curve"/>
      <point x="198.4" y="115.0" type="line"/>
    </contour>
    <contour>
      <point x="198.4" y="115.0" type="line"/>
      <point x="318.4" y="115.0" type="line"/>
      <point x="318.4" y="200.0" type="line"/>
      <point x="198.4" y="200.0" type="line"/>
    </contour>
    <contour>
      <point x="198.4" y="200" type="line"/>
      <point x="318.4" y="200" type="line"/>
      <point x="318.4" y="300.0" type="line"/>
      <point x="198.4" y="300.0" type="line"/>
    </contour>
    <contour>
      <point x="318.4" y="340.0" type="line"/>
      <point x="318.4" y="406.2298"/>
      <point x="264.6298" y="460.0"/>
      <point x="198.4" y="460.0" type="curve"/>
      <point x="198.4" y="340.0" type="line"/>
    </contour>
    <contour>
      <point x="198.4" y="300.0" type="line"/>
      <point x="318.4" y="300.0" type="line"/>
      <point x="318.4" y="340.0" type="line"/>
      <point x="198.4" y="340.0" type="line"/>
    </contour>
    <contour>
      <point x="194.65" y="800.0" type="line"/>
      <point x="194.65" y="733.7702"/>
      <point x="248.4202" y="680.0"/>
      <point x="314.65" y="680.0" type="curve"/>
      <point x="314.65" y="800.0" type="line"/>
    </contour>
  </outline>
</glyph>
<glyph name="six" format="2">
  <advance width="356.8"/>
  <unicode hex="0036"/>
  <outline>
    <contour>
      <point x="38.4" y="115.0" type="line"/>
      <point x="38.4" y="48.7702"/>
      <point x="92.1702" y="-5.0"/>
      <point x="158.4" y="-5.0" type="curve"/>
      <point x="158.4" y="115.0" type="line"/>
    </contour>
    <contour>
      <point x="38.4" y="115.0" type="line"/>
      <point x="158.4" y="115.0" type="line"/>
      <point x="158.4" y="200.0" type="line"/>
      <point x="38.4" y="200.0" type="line"/>
    </contour>
    <contour>
      <point x="38.4" y="200" type="line"/>
      <point x="158.4" y="200" type="line"/>
      <point x="158.4" y="400" type="line"/>
      <point x="38.4" y="400" type="line"/>
    </contour>
    <contour>
      <point x="38.4" y="400" type="line"/>
      <point x="158.4" y="400" type="line"/>
      <point x="158.4" y="600" type="line"/>
      <point x="38.4" y="600" type="line"/>
    </contour>
    <contour>
      <point x="158.4" y="805.0" type="line"/>
      <point x="92.1702" y="805.0"/>
      <point x="38.4" y="751.2298"/>
      <point x="38.4" y="685.0" type="curve"/>
      <point x="158.4" y="685.0" type="line"/>
    </contour>
    <contour>
      <point x="38.4" y="600" type="line"/>
      <point x="158.4" y="600" type="line"/>
      <point x="158.4" y="685.0" type="line"/>
      <point x="38.4" y="685.0" type="line"/>
    </contour>
    <contour>
      <point x="198.4" y="-5.0" type="line"/>
      <point x="264.6298" y="-5.0"/>
      <point x="318.4" y="48.7702"/>
      <point x="318.4" y="115.0" type="curve"/>
      <point x="198.4" y="115.0" type="line"/>
    </contour>
    <contour>
      <point x="198.4" y="115.0" type="line"/>
      <point x="318.4" y="115.0" type="line"/>
      <point x="318.4" y="200.0" type="line"/>
      <point x="198.4" y="200.0" type="line"/>
    </contour>
    <contour>
      <point x="198.4" y="200" type="line"/>
      <point x="318.4" y="200" type="line"/>
      <point x="318.4" y="300.0" type="line"/>
      <point x="198.4" y="300.0" type="line"/>
    </contour>
    <contour>
      <point x="318.4" y="380.0" type="line"/>
      <point x="318.4" y="446.2298"/>
      <point x="264.6298" y="500.0"/>
      <point x="198.4" y="500.0" type="curve"/>
      <point x="198.4" y="380.0" type="line"/>
    </contour>
    <contour>
      <point x="198.4" y="300.0" type="line"/>
      <point x="318.4" y="300.0" type="line"/>
      <point x="318.4" y="380.0" type="line"/>
      <point x="198.4" y="380.0" type="line"/>
    </contour>
    <contour>
      <point x="314.65" y="745.0" type="curve" smooth="yes"/>
      <point x="314.65" y="778.1149"/>
      <point x="287.7649" y="805.0"/>
      <point x="254.65" y="805.0" type="curve" smooth="yes"/>
      <point x="221.5351" y="805.0"/>
      <point x="194.65" y="778.1149"/>
      <point x="194.65" y="745.0" type="curve" smooth="yes"/>
      <point x="194.65" y="711.8851"/>
      <point x="221.5351" y="685.0"/>
      <point x="254.65" y="685.0" type="curve" smooth="yes"/>
      <point x="287.7649" y="685.0"/>
      <point x="314.65" y="711.8851"/>
    </contour>
  </outline>
</glyph>
<glyph name="seven" format="2">
  <advance width="356.8"/>
  <unicode hex="0037"/>
  <outline>
    <contour>
      <point x="38.4" y="680.0" type="line"/>
      <point x="158.4" y="680.0" type="line"/>
      <point x="158.4" y="800.0" type="line"/>
      <point x="38.4" y="800.0" type="line"/>
    </contour>
    <contour>
      <point x="158.4" y="680.0" type="line"/>
      <point x="198.4" y="680.0" type="line"/>
      <point x="198.4" y="800.0" type="line"/>
      <point x="158.4" y="800.0" type="line"/>
    </contour>
    <contour>
      <point x="198.4" y="0" type="line"/>
      <point x="318.4" y="0" type="line"/>
      <point x="318.4" y="200" type="line"/>
      <point x="198.4" y="200" type="line"/>
    </contour>
    <contour>
      <point x="198.4" y="200" type="line"/>
      <point x="318.4" y="200" type="line"/>
      <point x="318.4" y="400" type="line"/>
      <point x="198.4" y="400" type="line"/>
    </contour>
    <contour>
      <point x="318.4" y="660.0" type="line"/>
      <point x="252.1702" y="660.0"/>
      <point x="198.4" y="606.2298"/>
      <point x="198.4" y="540.0" type="curve"/>
      <point x="318.4" y="540.0" type="line"/>
    </contour>
    <contour>
      <point x="198.4" y="400" type="line"/>
      <point x="318.4" y="400" type="line"/>
      <point x="318.4" y="540.0" type="line"/>
      <point x="198.4" y="540.0" type="line"/>
    </contour>
    <contour>
      <point x="198.4" y="680.0" type="line"/>
      <point x="264.6298" y="680.0"/>
      <point x="318.4" y="733.7702"/>
      <point x="318.4" y="800.0" type="curve"/>
      <point x="198.4" y="800.0" type="line"/>
    </contour>
  </outline>
</glyph>
<glyph name="eight" format="2">
  <advance width="356.8"/>
  <unicode hex="0038"/>
  <outline>
    <contour>
      <point x="38.4" y="115.0" type="line"/>
      <point x="38.4" y="48.7702"/>
      <point x="92.1702" y="-5.0"/>
      <point x="158.4" y="-5.0" type="curve"/>
      <point x="158.4" y="115.0" type="line"/>
    </contour>
    <contour>
      <point x="38.4" y="115.0" type="line"/>
      <point x="158.4" y="115.0" type="line"/>
      <point x="158.4" y="200.0" type="line"/>
      <point x="38.4" y="200.0" type="line"/>
    </contour>
    <contour>
      <point x="158.4" y="400.0" type="line"/>
      <point x="92.1702" y="400.0"/>
      <point x="38.4" y="346.2298"/>
      <point x="38.4" y="280.0" type="curve"/>
      <point x="158.4" y="280.0" type="line"/>
    </contour>
    <contour>
      <point x="38.4" y="200" type="line"/>
      <point x="158.4" y="200" type="line"/>
      <point x="158.4" y="280.0" type="line"/>
      <point x="38.4" y="280.0" type="line"/>
    </contour>
    <contour>
      <point x="38.4" y="520.0" type="line"/>
      <point x="38.4" y="453.7702"/>
      <point x="92.1702" y="400.0"/>
      <point x="158.4" y="400.0" type="curve"/>
      <point x="158.4" y="520.0" type="line"/>
    </contour>
    <contour>
      <point x="38.4" y="520.0" type="line"/>
      <point x="158.4" y="520.0" type="line"/>
      <point x="158.4" y="600.0" type="line"/>
      <point x="38.4" y="600.0" type="line"/>
    </contour>
    <contour>
      <point x="158.4" y="805.0" type="line"/>
      <point x="92.1702" y="805.0"/>
      <point x="38.4" y="751.2298"/>
      <point x="38.4" y="685.0" type="curve"/>
      <point x="158.4" y="685.0" type="line"/>
    </contour>
    <contour>
      <point x="38.4" y="600" type="line"/>
      <point x="158.4" y="600" type="line"/>
      <point x="158.4" y="685.0" type="line"/>
      <point x="38.4" y="685.0" type="line"/>
    </contour>
    <contour>
      <point x="198.4" y="-5.0" type="line"/>
      <point x="264.6298" y="-5.0"/>
      <point x="318.4" y="48.7702"/>
      <point x="318.4" y="115.0" type="curve"/>
      <point x="198.4" y="115.0" type="line"/>
    </contour>
    <contour>
      <point x="198.4" y="115.0" type="line"/>
      <point x="318.4" y="115.0" type="line"/>
      <point x="318.4" y="200.0" type="line"/>
      <point x="198.4" y="200.0" type="line"/>
    </contour>
    <contour>
      <point x="318.4" y="280.0" type="line"/>
      <point x="318.4" y="346.2298"/>
      <point x="264.6298" y="400.0"/>
      <point x="198.4" y="400.0" type="curve"/>
      <point x="198.4" y="280.0" type="line"/>
    </contour>
    <contour>
      <point x="198.4" y="200" type="line"/>
      <point x="318.4" y="200" type="line"/>
      <point x="318.4" y="280.0" type="line"/>
      <point x="198.4" y="280.0" type="line"/>
    </contour>
    <contour>
      <point x="198.4" y="400.0" type="line"/>
      <point x="264.6298" y="400.0"/>
      <point x="318.4" y="453.7702"/>
      <point x="318.4" y="520.0" type="curve"/>
      <point x="198.4" y="520.0" type="line"/>
    </contour>
    <contour>
      <point x="198.4" y="520.0" type="line"/>
      <point x="318.4" y="520.0" type="line"/>
      <point x="318.4" y="600.0" type="line"/>
      <point x="198.4" y="600.0" type="line"/>
    </contour>
    <contour>
      <point x="318.4" y="685.0" type="line"/>
      <point x="318.4" y="751.2298"/>
      <point x="264.6298" y="805.0"/>
      <point x="198.4" y="805.0" type="curve"/>
      <point x="198.4" y="685.0" type="line"/>
    </contour>
    <contour>
      <point x="198.4" y="600" type="line"/>
      <point x="318.4" y="600" type="line"/>
      <point x="318.4" y="685.0" type="line"/>
      <point x="198.4" y="685.0" type="line"/>
    </contour>
  </outline>
</glyph>
<glyph name="nine" format="2">
  <advance width="356.8"/>
  <unicode hex="0039"/>
  <outline>
    <contour>
      <point x="167.15" y="55.0" type="curve" smooth="yes"/>
      <point x="167.15" y="90.87448"/>
      <point x="138.02448" y="120.0"/>
      <point x="102.15" y="120.0" type="curve" smooth="yes"/>
      <point x="66.27552" y="120.0"/>
      <point x="37.15" y="90.87448"/>
      <point x="37.15" y="55.0" type="curve" smooth="yes"/>
      <point x="37.15" y="19.12552"/>
      <point x="66.27552" y="-10.0"/>
      <point x="102.15" y="-10.0" type="curve" smooth="yes"/>
      <point x="138.02448" y="-10.0"/>
      <point x="167.15" y="19.12552"/>
    </contour>
    <contour>
      <point x="38.4" y="420.0" type="line"/>
      <point x="38.4" y="353.7702"/>
      <point x="92.1702" y="300.0"/>
      <point x="158.4" y="300.0" type="curve"/>
      <point x="158.4" y="420.0" type="line"/>
    </contour>
    <contour>
      <point x="38.4" y="420.0" type="line"/>
      <point x="158.4" y="420.0" type="line"/>
      <point x="158.4" y="500.0" type="line"/>
      <point x="38.4" y="500.0" type="line"/>
    </contour>
    <contour>
      <point x="38.4" y="500.0" type="line"/>
      <point x="158.4" y="500.0" type="line"/>
      <point x="158.4" y="600.0" type="line"/>
      <point x="38.4" y="600.0" type="line"/>
    </contour>
    <contour>
      <point x="158.4" y="805.0" type="line"/>
      <point x="92.1702" y="805.0"/>
      <point x="38.4" y="751.2298"/>
      <point x="38.4" y="685.0" type="curve"/>
      <point x="158.4" y="685.0" type="line"/>
    </contour>
    <contour>
      <point x="38.4" y="600" type="line"/>
      <point x="158.4" y="600" type="line"/>
      <point x="158.4" y="685.0" type="line"/>
      <point x="38.4" y="685.0" type="line"/>
    </contour>
    <contour>
      <point x="198.4" y="-5.0" type="line"/>
      <point x="264.6298" y="-5.0"/>
      <point x="318.4" y="48.7702"/>
      <point x="318.4" y="115.0" type="curve"/>
      <point x="198.4" y="115.0" type="line"/>
    </contour>
    <contour>
      <point x="198.4" y="115.0" type="line"/>
      <point x="318.4" y="115.0" type="line"/>
      <point x="318.4" y="200.0" type="line"/>
      <point x="198.4" y="200.0" type="line"/>
    </contour>
    <contour>
      <point x="198.4" y="200" type="line"/>
      <point x="318.4" y="200" type="line"/>
      <point x="318.4" y="400" type="line"/>
      <point x="198.4" y="400" type="line"/>
    </contour>
    <contour>
      <point x="198.4" y="400" type="line"/>
      <point x="318.4" y="400" type="line"/>
      <point x="318.4" y="600" type="line"/>
      <point x="198.4" y="600" type="line"/>
    </contour>
    <contour>
      <point x="318.4" y="685.0" type="line"/>
      <point x="318.4" y="751.2298"/>
      <point x="264.6298" y="805.0"/>
      <point x="198.4" y="805.0" type="curve"/>
      <point x="198.4" y="685.0" type="line"/>
    </contour>
    <contour>
      <point x="198.4" y="600" type="line"/>
      <point x="318.4" y="600" type="line"/>
      <point x="318.4" y="685.0" type="line"/>
      <point x="198.4" y="685.0" type="line"/>
    </contour>
  </outline>
</glyph>
<glyph name="colon" format="2">
  <advance width="196.8"/>
  <unicode hex="003A"/>
  <outline>
    <contour>
      <point x="163.4" y="55.0" type="curve" smooth="yes"/>
      <point x="163.4" y="90.87448"/>
      <point x="134.27448" y="120.0"/>
      <point x="98.4" y="120.0" type="curve" smooth="yes"/>
      <point x="62.52552" y="120.0"/>
      <point x="33.4" y="90.87448"/>
      <point x="33.4" y="55.0" type="curve" smooth="yes"/>
      <point x="33.4" y="19.12552"/>
      <point x="62.52552" y="-10.0"/>
      <point x="98.4" y="-10.0" type="curve" smooth="yes"/>
      <point x="134.27448" y="-10.0"/>
      <point x="163.4" y="19.12552"/>
    </contour>
    <contour>
      <point x="163.4" y="540.0" type="curve" smooth="yes"/>
      <point x="163.4" y="575.87448"/>
      <point x="134.27448" y="605.0"/>
      <point x="98.4" y="605.0" type="curve" smooth="yes"/>
      <point x="62.52552" y="605.0"/>
      <point x="33.4" y="575.87448"/>
      <point x="33.4" y="540.0" type="curve" smooth="yes"/>
      <point x="33.4" y="504.12552"/>
      <point x="62.52552" y="475.0"/>
      <point x="98.4" y="475.0" type="curve" smooth="yes"/>
      <point x="134.27448" y="475.0"/>
      <point x="163.4" y="504.12552"/>
    </contour>
  </outline>
</glyph>
<glyph name="semicolon" format="2">
  <advance width="196.8"/>
  <unicode hex="003B"/>
  <outline>
    <contour>
      <point x="38.4" y="-100.0" type="line"/>
      <point x="104.62979999999999" y="-100.0"/>
      <point x="158.4" y="-46.2298"/>
      <point x="158.4" y="20.0" type="curve"/>
      <point x="38.4" y="20.0" type="line"/>
    </contour>
    <contour>
      <point x="38.4" y="20.0" type="line"/>
      <point x="158.4" y="20.0" type="line"/>
      <point x="158.4" y="100.0" type="line"/>
      <point x="38.4" y="100.0" type="line"/>
    </contour>
    <contour>
      <point x="163.4" y="540.0" type="curve" smooth="yes"/>
      <point x="163.4" y="575.87448"/>
      <point x="134.27448" y="605.0"/>
      <point x="98.4" y="605.0" type="curve" smooth="yes"/>
      <point x="62.52552" y="605.0"/>
      <point x="33.4" y="575.87448"/>
      <point x="33.4" y="540.0" type="curve" smooth="yes"/>
      <point x="33.4" y="504.12552"/>
      <point x="62.52552" y="475.0"/>
      <point x="98.4" y="475.0" type="curve" smooth="yes"/>
      <point x="134.27448" y="475.0"/>
      <point x="163.4" y="504.12552"/>
    </contour>
  </outline>
</glyph>
<glyph name="equal" format="2">
  <advance width="516.8"/>
  <unicode hex="003D"/>
  <outline>
    <contour>
      <point x="78.4" y="230.0" type="line"/>
      <point x="198.4" y="230.0" type="line"/>
      <point x="198.4" y="350.0" type="line"/>
      <point x="78.4" y="350.0" type="line"/>
    </contour>
    <contour>
      <point x="78.4" y="450.0" type="line"/>
      <point x="198.4" y="450.0" type="line"/>
      <point x="198.4" y="570.0" type="line"/>
      <point x="78.4" y="570.0" type="line"/>
    </contour>
    <contour>
      <point x="198.4" y="230.0" type="line"/>
      <point x="318.4" y="230.0" type="line"/>
      <point x="318.4" y="350.0" type="line"/>
      <point x="198.4" y="350.0" type="line"/>
    </contour>
    <contour>
      <point x="198.4" y="450.0" type="line"/>
      <point x="318.4" y="450.0" type="line"/>
      <point x="318.4" y="570.0" type="line"/>
      <point x="198.4" y="570.0" type="line"/>
    </contour>
    <contour>
      <point x="318.4" y="230.0" type="line"/>
      <point x="438.4" y="230.0" type="line"/>
      <point x="438.4" y="350.0" type="line"/>
      <point x="318.4" y="350.0" type="line"/>
    </contour>
    <contour>
      <point x="318.4" y="450.0" type="line"/>
      <point x="438.4" y="450.0" type="line"/>
      <point x="438.4" y="570.0" type="line"/>
      <point x="318.4" y="570.0" type="line"/>
    </contour>
  </outline>
</glyph>
<glyph name="greater" format="2">
  <advance width="316.8"/>
  <unicode hex="003E"/>
  <outline>
    <contour>
      <point x="158.4" y="220.0" type="line"/>
      <point x="92.1702" y="220.0"/>
      <point x="38.4" y="166.2298"/>
      <point x="38.4" y="100.0" type="curve"/>
      <point x="158.4" y="100.0" type="line"/>
    </contour>
    <contour>
      <point x="38.4" y="700.0" type="line"/>
      <point x="38.4" y="633.7702"/>
      <point x="92.1702" y="580.0"/>
      <point x="158.4" y="580.0" type="curve"/>
      <point x="158.4" y="700.0" type="line"/>
    </contour>
    <contour>
      <point x="158.4" y="100.0" type="line"/>
      <point x="224.62980000000002" y="100.0"/>
      <point x="278.4" y="153.7702"/>
      <point x="278.4" y="220.0" type="curve"/>
      <point x="158.4" y="220.0" type="line"/>
    </contour>
    <contour>
      <point x="158.4" y="220.0" type="line"/>
      <point x="278.4" y="220.0" type="line"/>
      <point x="278.4" y="300.0" type="line"/>
      <point x="158.4" y="300.0" type="line"/>
    </contour>
    <contour>
      <point x="158.4" y="300.0" type="line"/>
      <point x="278.4" y="300.0" type="line"/>
      <point x="278.4" y="500.0" type="line"/>
      <point x="158.4" y="500.0" type="line"/>
    </contour>
    <contour>
      <point x="278.4" y="580.0" type="line"/>
      <point x="278.4" y="646.2298"/>
      <point x="224.62980000000002" y="700.0"/>
      <point x="158.4" y="700.0" type="curve"/>
      <point x="158.4" y="580.0" type="line"/>
    </contour>
    <contour>
      <point x="158.4" y="500.0" type="line"/>
      <point x="278.4" y="500.0" type="line"/>
      <point x="278.4" y="580.0" type="line"/>
      <point x="158.4" y="580.0" type="line"/>
    </contour>
  </outline>
</glyph>
<glyph name="question" format="2">
  <advance width="356.8"/>
  <unicode hex="003F"/>
  <outline>
    <contour>
      <point x="163.4" y="53.75" type="curve" smooth="yes"/>
      <point x="163.4" y="89.62448"/>
      <point x="134.27448" y="118.75"/>
      <point x="98.4" y="118.75" type="curve" smooth="yes"/>
      <point x="62.52552" y="118.75"/>
      <point x="33.4" y="89.62448"/>
      <point x="33.4" y="53.75" type="curve" smooth="yes"/>
      <point x="33.4" y="17.87552"/>
      <point x="62.52552" y="-11.25"/>
      <point x="98.4" y="-11.25" type="curve" smooth="yes"/>
      <point x="134.27448" y="-11.25"/>
      <point x="163.4" y="17.87552"/>
    </contour>
    <contour>
      <point x="38.4" y="195.83333" type="line"/>
      <point x="158.4" y="195.83333" type="line"/>
      <point x="158.4" y="400.0" type="line"/>
      <point x="38.4" y="400.0" type="line"/>
    </contour>
    <contour>
      <point x="158.4" y="520.0" type="line"/>
      <point x="92.1702" y="520.0"/>
      <point x="38.4" y="466.2298"/>
      <point x="38.4" y="400.0" type="curve"/>
      <point x="158.4" y="400.0" type="line"/>
    </contour>
    <contour>
      <point x="163.4" y="752.5" type="curve" smooth="yes"/>
      <point x="163.4" y="788.37448"/>
      <point x="134.27448" y="817.5"/>
      <point x="98.4" y="817.5" type="curve" smooth="yes"/>
      <point x="62.52552" y="817.5"/>
      <point x="33.4" y="788.37448"/>
      <point x="33.4" y="752.5" type="curve" smooth="yes"/>
      <point x="33.4" y="716.62552"/>
      <point x="62.52552" y="687.5"/>
      <point x="98.4" y="687.5" type="curve" smooth="yes"/>
      <point x="134.27448" y="687.5"/>
      <point x="163.4" y="716.62552"/>
    </contour>
    <contour>
      <point x="198.4" y="405.0" type="line"/>
      <point x="264.6298" y="405.0"/>
      <point x="318.4" y="458.7702"/>
      <point x="318.4" y="525.0" type="curve"/>
      <point x="198.4" y="525.0" type="line"/>
    </contour>
    <contour>
      <point x="198.4" y="525.0" type="line"/>
      <point x="318.4" y="525.0" type="line"/>
      <point x="318.4" y="605.0" type="line"/>
      <point x="198.4" y="605.0" type="line"/>
    </contour>
    <contour>
      <point x="318.4" y="685.0" type="line"/>
      <point x="318.4" y="751.2298"/>
      <point x="264.6298" y="805.0"/>
      <point x="198.4" y="805.0" type="curve"/>
      <point x="198.4" y="685.0" type="line"/>
    </contour>
    <contour>
      <point x="198.4" y="605.0" type="line"/>
      <point x="318.4" y="605.0" type="line"/>
      <point x="318.4" y="685.0" type="line"/>
      <point x="198.4" y="685.0" type="line"/>
    </contour>
  </outline>
</glyph>
<glyph name="at" format="2">
  <advance width="896.51422"/>
  <unicode hex="0040"/>
  <outline>
    <contour>
      <point x="300.75711" y="320.0" type="curve"/>
      <point x="420.75711" y="320.0" type="line"/>
      <point x="420.75711" y="200.0" type="line"/>
      <point x="354.52731000000006" y="200.0"/>
      <point x="300.75711" y="253.7702"/>
    </contour>
    <contour>
      <point x="300.75711" y="320.0" type="line"/>
      <point x="300.75711" y="400.0" type="line"/>
      <point x="420.75711" y="400.0" type="line"/>
      <point x="420.75711" y="320.0" type="line"/>
    </contour>
    <contour>
      <point x="420.75711" y="600.0" type="curve"/>
      <point x="420.75711" y="480.0" type="line"/>
      <point x="300.75711" y="480.0" type="line"/>
      <point x="300.75711" y="546.2298"/>
      <point x="354.52731000000006" y="600.0"/>
    </contour>
    <contour>
      <point x="300.75711" y="400" type="line"/>
      <point x="300.75711" y="480.0" type="line"/>
      <point x="420.75711" y="480.0" type="line"/>
      <point x="420.75711" y="400" type="line"/>
    </contour>
    <contour>
      <point x="460.75711" y="320.0" type="curve"/>
      <point x="580.75711" y="320.0" type="line"/>
      <point x="580.75711" y="200.0" type="line"/>
      <point x="514.5273099999999" y="200.0"/>
      <point x="460.75711" y="253.7702"/>
    </contour>
    <contour>
      <point x="460.75711" y="320.0" type="line"/>
      <point x="460.75711" y="400.0" type="line"/>
      <point x="580.75711" y="400.0" type="line"/>
      <point x="580.75711" y="320.0" type="line"/>
    </contour>
    <contour>
      <point x="460.75711" y="400" type="line"/>
      <point x="460.75711" y="600" type="line"/>
      <point x="580.75711" y="600" type="line"/>
      <point x="580.75711" y="400" type="line"/>
    </contour>
    <contour>
      <point x="798.1142199999999" y="400.0" type="curve" smooth="yes"/>
      <point x="798.1142199999999" y="593.0914"/>
      <point x="641.34851" y="749.85711"/>
      <point x="448.25711" y="749.85711" type="curve" smooth="yes"/>
      <point x="255.16571000000002" y="749.85711"/>
      <point x="98.4" y="593.0914"/>
      <point x="98.4" y="400.0" type="curve" smooth="yes"/>
      <point x="98.4" y="206.9086"/>
      <point x="255.16571000000002" y="50.14289"/>
      <point x="448.25711" y="50.14289" type="curve" smooth="yes"/>
      <point x="641.34851" y="50.14289"/>
      <point x="798.1142199999999" y="206.9086"/>
    </contour>
  </outline>
</glyph>
<glyph name="H" format="2">
  <advance width="516.8"/>
  <unicode hex="0048"/>
  <outline>
    <contour>
      <point x="38.4" y="0" type="line"/>
      <point x="158.4" y="0" type="line"/>
      <point x="158.4" y="200" type="line"/>
      <point x="38.4" y="200" type="line"/>
    </contour>
    <contour>
      <point x="38.4" y="200" type="line"/>
      <point x="158.4" y="200" type="line"/>
      <point x="158.4" y="400" type="line"/>
      <point x="38.4" y="400" type="line"/>
    </contour>
    <contour>
      <point x="38.4" y="400" type="line"/>
      <point x="158.4" y="400" type="line"/>
      <point x="158.4" y="600" type="line"/>
      <point x="38.4" y="600" type="line"/>
    </contour>
    <contour>
      <point x="38.4" y="600" type="line"/>
      <point x="158.4" y="600" type="line"/>
      <point x="158.4" y="800" type="line"/>
      <point x="38.4" y="800" type="line"/>
    </contour>
    <contour>
      <point x="198.4" y="460.0" type="line"/>
      <point x="198.4" y="393.7702"/>
      <point x="252.1702" y="340.0"/>
      <point x="318.4" y="340.0" type="curve"/>
      <point x="318.4" y="460.0" type="line"/>
    </contour>
    <contour>
      <point x="358.4" y="0" type="line"/>
      <point x="478.4" y="0" type="line"/>
      <point x="478.4" y="200" type="line"/>
      <point x="358.4" y="200" type="line"/>
    </contour>
    <contour>
      <point x="358.4" y="200" type="line"/>
      <point x="478.4" y="200" type="line"/>
      <point x="478.4" y="400" type="line"/>
      <point x="358.4" y="400" type="line"/>
    </contour>
    <contour>
      <point x="358.4" y="400" type="line"/>
      <point x="478.4" y="400" type="line"/>
      <point x="478.4" y="600" type="line"/>
      <point x="358.4" y="600" type="line"/>
    </contour>
    <contour>
      <point x="358.4" y="600" type="line"/>
      <point x="478.4" y="600" type="line"/>
      <point x="478.4" y="800" type="line"/>
      <point x="358.4" y="800" type="line"/>
    </contour>
  </outline>
</glyph>
<glyph name="J" format="2">
  <advance width="356.8"/>
  <unicode hex="004A"/>
  <outline>
    <contour>
      <point x="163.4" y="55.0" type="curve" smooth="yes"/>
      <point x="163.4" y="90.87448"/>
      <point x="134.27448" y="120.0"/>
      <point x="98.4" y="120.0" type="curve" smooth="yes"/>
      <point x="62.52552" y="120.0"/>
      <point x="33.4" y="90.87448"/>
      <point x="33.4" y="55.0" type="curve" smooth="yes"/>
      <point x="33.4" y="19.12552"/>
      <point x="62.52552" y="-10.0"/>
      <point x="98.4" y="-10.0" type="curve" smooth="yes"/>
      <point x="134.27448" y="-10.0"/>
      <point x="163.4" y="19.12552"/>
    </contour>
    <contour>
      <point x="198.4" y="-5.0" type="line"/>
      <point x="264.6298" y="-5.0"/>
      <point x="318.4" y="48.7702"/>
      <point x="318.4" y="115.0" type="curve"/>
      <point x="198.4" y="115.0" type="line"/>
    </contour>
    <contour>
      <point x="198.4" y="115.0" type="line"/>
      <point x="318.4" y="115.0" type="line"/>
      <point x="318.4" y="195.0" type="line"/>
      <point x="198.4" y="195.0" type="line"/>
    </contour>
    <contour>
      <point x="198.4" y="195.0" type="line"/>
      <point x="318.4" y="195.0" type="line"/>
      <point x="318.4" y="400.0" type="line"/>
      <point x="198.4" y="400.0" type="line"/>
    </contour>
    <contour>
      <point x="198.4" y="400" type="line"/>
      <point x="318.4" y="400" type="line"/>
      <point x="318.4" y="600" type="line"/>
      <point x="198.4" y="600" type="line"/>
    </contour>
    <contour>
      <point x="198.4" y="600" type="line"/>
      <point x="318.4" y="600" type="line"/>
      <point x="318.4" y="800" type="line"/>
      <point x="198.4" y="800" type="line"/>
    </contour>
  </outline>
</glyph>
<glyph name="L" format="2">
  <advance width="356.8"/>
  <unicode hex="004C"/>
  <outline>
    <contour>
      <point x="38.4" y="0" type="line"/>
      <point x="158.4" y="0" type="line"/>
      <point x="158.4" y="200" type="line"/>
      <point x="38.4" y="200" type="line"/>
    </contour>
    <contour>
      <point x="38.4" y="200" type="line"/>
      <point x="158.4" y="200" type="line"/>
      <point x="158.4" y="400" type="line"/>
      <point x="38.4" y="400" type="line"/>
    </contour>
    <contour>
      <point x="38.4" y="400" type="line"/>
      <point x="158.4" y="400" type="line"/>
      <point x="158.4" y="600" type="line"/>
      <point x="38.4" y="600" type="line"/>
    </contour>
    <contour>
      <point x="38.4" y="600" type="line"/>
      <point x="158.4" y="600" type="line"/>
      <point x="158.4" y="800" type="line"/>
      <point x="38.4" y="800" type="line"/>
    </contour>
    <contour>
      <point x="318.4" y="120.0" type="line"/>
      <point x="252.1702" y="120.0"/>
      <point x="198.4" y="66.2298"/>
      <point x="198.4" y="0.0" type="curve"/>
      <point x="318.4" y="0.0" type="line"/>
    </contour>
  </outline>
</glyph>
<glyph name="M" format="2">
  <advance width="516.8"/>
  <unicode hex="004D"/>
  <outline>
    <contour>
      <point x="38.4" y="0" type="line"/>
      <point x="158.4" y="0" type="line"/>
      <point x="158.4" y="200" type="line"/>
      <point x="38.4" y="200" type="line"/>
    </contour>
    <contour>
      <point x="38.4" y="200" type="line"/>
      <point x="158.4" y="200" type="line"/>
      <point x="158.4" y="400" type="line"/>
      <point x="38.4" y="400" type="line"/>
    </contour>
    <contour>
      <point x="38.4" y="400" type="line"/>
      <point x="158.4" y="400" type="line"/>
      <point x="158.4" y="600" type="line"/>
      <point x="38.4" y="600" type="line"/>
    </contour>
    <contour>
      <point x="38.4" y="600" type="line"/>
      <point x="158.4" y="600" type="line"/>
      <point x="158.4" y="800" type="line"/>
      <point x="38.4" y="800" type="line"/>
    </contour>
    <contour>
      <point x="198.4" y="0" type="line"/>
      <point x="318.4" y="0" type="line"/>
      <point x="318.4" y="200" type="line"/>
      <point x="198.4" y="200" type="line"/>
    </contour>
    <contour>
      <point x="198.4" y="200" type="line"/>
      <point x="318.4" y="200" type="line"/>
      <point x="318.4" y="400" type="line"/>
      <point x="198.4" y="400" type="line"/>
    </contour>
    <contour>
      <point x="198.4" y="400" type="line"/>
      <point x="318.4" y="400" type="line"/>
      <point x="318.4" y="600" type="line"/>
      <point x="198.4" y="600" type="line"/>
    </contour>
    <contour>
      <point x="198.4" y="600" type="line"/>
      <point x="318.4" y="600" type="line"/>
      <point x="318.4" y="800" type="line"/>
      <point x="198.4" y="800" type="line"/>
    </contour>
    <contour>
      <point x="358.4" y="0" type="line"/>
      <point x="478.4" y="0" type="line"/>
      <point x="478.4" y="200" type="line"/>
      <point x="358.4" y="200" type="line"/>
    </contour>
    <contour>
      <point x="358.4" y="200" type="line"/>
      <point x="478.4" y="200" type="line"/>
      <point x="478.4" y="400" type="line"/>
      <point x="358.4" y="400" type="line"/>
    </contour>
    <contour>
      <point x="358.4" y="400" type="line"/>
      <point x="478.4" y="400" type="line"/>
      <point x="478.4" y="600" type="line"/>
      <point x="358.4" y="600" type="line"/>
    </contour>
    <contour>
      <point x="478.4" y="680.0" type="line"/>
      <point x="478.4" y="746.2298"/>
      <point x="424.6298" y="800.0"/>
      <point x="358.4" y="800.0" type="curve"/>
      <point x="358.4" y="680.0" type="line"/>
    </contour>
    <contour>
      <point x="358.4" y="600" type="line"/>
      <point x="478.4" y="600" type="line"/>
      <point x="478.4" y="680.0" type="line"/>
      <point x="358.4" y="680.0" type="line"/>
    </contour>
  </outline>
</glyph>
<glyph name="O" format="2">
  <advance width="356.8"/>
  <unicode hex="004F"/>
  <outline>
    <contour>
      <point x="38.4" y="115.0" type="line"/>
      <point x="38.4" y="48.7702"/>
      <point x="92.1702" y="-5.0"/>
      <point x="158.4" y="-5.0" type="curve"/>
      <point x="158.4" y="115.0" type="line"/>
    </contour>
    <contour>
      <point x="38.4" y="115.0" type="line"/>
      <point x="158.4" y="115.0" type="line"/>
      <point x="158.4" y="195.0" type="line"/>
      <point x="38.4" y="195.0" type="line"/>
    </contour>
    <contour>
      <point x="38.4" y="195.0" type="line"/>
      <point x="158.4" y="195.0" type="line"/>
      <point x="158.4" y="400.0" type="line"/>
      <point x="38.4" y="400.0" type="line"/>
    </contour>
    <contour>
      <point x="38.4" y="400" type="line"/>
      <point x="158.4" y="400" type="line"/>
      <point x="158.4" y="605.0" type="line"/>
      <point x="38.4" y="605.0" type="line"/>
    </contour>
    <contour>
      <point x="158.4" y="805.0" type="line"/>
      <point x="92.1702" y="805.0"/>
      <point x="38.4" y="751.2298"/>
      <point x="38.4" y="685.0" type="curve"/>
      <point x="158.4" y="685.0" type="line"/>
    </contour>
    <contour>
      <point x="38.4" y="605.0" type="line"/>
      <point x="158.4" y="605.0" type="line"/>
      <point x="158.4" y="685.0" type="line"/>
      <point x="38.4" y="685.0" type="line"/>
    </contour>
    <contour>
      <point x="198.4" y="-5.0" type="line"/>
      <point x="264.6298" y="-5.0"/>
      <point x="318.4" y="48.7702"/>
      <point x="318.4" y="115.0" type="curve"/>
      <point x="198.4" y="115.0" type="line"/>
    </contour>
    <contour>
      <point x="198.4" y="115.0" type="line"/>
      <point x="318.4" y="115.0" type="line"/>
      <point x="318.4" y="195.0" type="line"/>
      <point x="198.4" y="195.0" type="line"/>
    </contour>
    <contour>
      <point x="198.4" y="195.0" type="line"/>
      <point x="318.4" y="195.0" type="line"/>
      <point x="318.4" y="400.0" type="line"/>
      <point x="198.4" y="400.0" type="line"/>
    </contour>
    <contour>
      <point x="198.4" y="400" type="line"/>
      <point x="318.4" y="400" type="line"/>
      <point x="318.4" y="605.0" type="line"/>
      <point x="198.4" y="605.0" type="line"/>
    </contour>
    <contour>
      <point x="318.4" y="685.0" type="line"/>
      <point x="318.4" y="751.2298"/>
      <point x="264.6298" y="805.0"/>
      <point x="198.4" y="805.0" type="curve"/>
      <point x="198.4" y="685.0" type="line"/>
    </contour>
    <contour>
      <point x="198.4" y="605.0" type="line"/>
      <point x="318.4" y="605.0" type="line"/>
      <point x="318.4" y="685.0" type="line"/>
      <point x="198.4" y="685.0" type="line"/>
    </contour>
  </outline>
</glyph>
<glyph name="S" format="2">
  <advance width="356.8"/>
  <unicode hex="0053"/>
  <outline>
    <contour>
      <point x="160.275" y="0" type="line"/>
      <point x="160.275" y="66.2298"/>
      <point x="106.50479999999999" y="120.0"/>
      <point x="40.275" y="120.0" type="curve"/>
      <point x="40.275" y="0" type="line"/>
    </contour>
    <contour>
      <point x="38.4" y="460.0" type="line"/>
      <point x="38.4" y="393.7702"/>
      <point x="92.1702" y="340.0"/>
      <point x="158.4" y="340.0" type="curve"/>
      <point x="158.4" y="460.0" type="line"/>
    </contour>
    <contour>
      <point x="38.4" y="460.0" type="line"/>
      <point x="158.4" y="460.0" type="line"/>
      <point x="158.4" y="500.0" type="line"/>
      <point x="38.4" y="500.0" type="line"/>
    </contour>
    <contour>
      <point x="38.4" y="500.0" type="line"/>
      <point x="158.4" y="500.0" type="line"/>
      <point x="158.4" y="600.0" type="line"/>
      <point x="38.4" y="600.0" type="line"/>
    </contour>
    <contour>
      <point x="158.4" y="800.0" type="line"/>
      <point x="92.1702" y="800.0"/>
      <point x="38.4" y="746.2298"/>
      <point x="38.4" y="680.0" type="curve"/>
      <point x="158.4" y="680.0" type="line"/>
    </contour>
    <contour>
      <point x="38.4" y="600" type="line"/>
      <point x="158.4" y="600" type="line"/>
      <point x="158.4" y="680.0" type="line"/>
      <point x="38.4" y="680.0" type="line"/>
    </contour>
    <contour>
      <point x="198.4" y="0.0" type="line"/>
      <point x="264.6298" y="0.0"/>
      <point x="318.4" y="53.7702"/>
      <point x="318.4" y="120.0" type="curve"/>
      <point x="198.4" y="120.0" type="line"/>
    </contour>
    <contour>
      <point x="198.4" y="120.0" type="line"/>
      <point x="318.4" y="120.0" type="line"/>
      <point x="318.4" y="200.0" type="line"/>
      <point x="198.4" y="200.0" type="line"/>
    </contour>
    <contour>
      <point x="198.4" y="200" type="line"/>
      <point x="318.4" y="200" type="line"/>
      <point x="318.4" y="300.0" type="line"/>
      <point x="198.4" y="300.0" type="line"/>
    </contour>
    <contour>
      <point x="318.4" y="340.0" type="line"/>
      <point x="318.4" y="406.2298"/>
      <point x="264.6298" y="460.0"/>
      <point x="198.4" y="460.0" type="curve"/>
      <point x="198.4" y="340.0" type="line"/>
    </contour>
    <contour>
      <point x="198.4" y="300.0" type="line"/>
      <point x="318.4" y="300.0" type="line"/>
      <point x="318.4" y="340.0" type="line"/>
      <point x="198.4" y="340.0" type="line"/>
    </contour>
    <contour>
      <point x="194.65" y="800.0" type="line"/>
      <point x="194.65" y="733.7702"/>
      <point x="248.4202" y="680.0"/>
      <point x="314.65" y="680.0" type="curve"/>
      <point x="314.65" y="800.0" type="line"/>
    </contour>
  </outline>
</glyph>
<glyph name="V" format="2">
  <advance width="356.8"/>
  <unicode hex="0056"/>
  <outline>
    <contour>
      <point x="38.4" y="115.0" type="line"/>
      <point x="38.4" y="48.7702"/>
      <point x="92.1702" y="-5.0"/>
      <point x="158.4" y="-5.0" type="curve"/>
      <point x="158.4" y="115.0" type="line"/>
    </contour>
    <contour>
      <point x="38.4" y="115.0" type="line"/>
      <point x="158.4" y="115.0" type="line"/>
      <point x="158.4" y="195.0" type="line"/>
      <point x="38.4" y="195.0" type="line"/>
    </contour>
    <contour>
      <point x="38.4" y="195.0" type="line"/>
      <point x="158.4" y="195.0" type="line"/>
      <point x="158.4" y="400.0" type="line"/>
      <point x="38.4" y="400.0" type="line"/>
    </contour>
    <contour>
      <point x="38.4" y="400" type="line"/>
      <point x="158.4" y="400" type="line"/>
      <point x="158.4" y="600" type="line"/>
      <point x="38.4" y="600" type="line"/>
    </contour>
    <contour>
      <point x="158.4" y="680.0" type="line"/>
      <point x="158.4" y="746.2298"/>
      <point x="104.62979999999999" y="800.0"/>
      <point x="38.4" y="800.0" type="curve"/>
      <point x="38.4" y="680.0" type="line"/>
    </contour>
    <contour>
      <point x="38.4" y="600" type="line"/>
      <point x="158.4" y="600" type="line"/>
      <point x="158.4" y="680.0" type="line"/>
      <point x="38.4" y="680.0" type="line"/>
    </contour>
    <contour>
      <point x="198.4" y="-5.0" type="line"/>
      <point x="264.6298" y="-5.0"/>
      <point x="318.4" y="48.7702"/>
      <point x="318.4" y="115.0" type="curve"/>
      <point x="198.4" y="115.0" type="line"/>
    </contour>
    <contour>
      <point x="198.4" y="115.0" type="line"/>
      <point x="318.4" y="115.0" type="line"/>
      <point x="318.4" y="195.0" type="line"/>
      <point x="198.4" y="195.0" type="line"/>
    </contour>
    <contour>
      <point x="198.4" y="195.0" type="line"/>
      <point x="318.4" y="195.0" type="line"/>
      <point x="318.4" y="400.0" type="line"/>
      <point x="198.4" y="400.0" type="line"/>
    </contour>
    <contour>
      <point x="198.4" y="400" type="line"/>
      <point x="318.4" y="400" type="line"/>
      <point x="318.4" y="600" type="line"/>
      <point x="198.4" y="600" type="line"/>
    </contour>
    <contour>
      <point x="198.4" y="600" type="line"/>
      <point x="318.4" y="600" type="line"/>
      <point x="318.4" y="800" type="line"/>
      <point x="198.4" y="800" type="line"/>
    </contour>
  </outline>
</glyph>
<glyph name="Z" format="2">
  <advance width="356.8"/>
  <unicode hex="005A"/>
  <outline>
    <contour>
      <point x="38.4" y="0" type="line"/>
      <point x="158.4" y="0" type="line"/>
      <point x="158.4" y="200" type="line"/>
      <point x="38.4" y="200" type="line"/>
    </contour>
    <contour>
      <point x="38.4" y="100.0" type="line"/>
      <point x="158.4" y="100.0" type="line"/>
      <point x="158.4" y="300.0" type="line"/>
      <point x="38.4" y="300.0" type="line"/>
    </contour>
    <contour>
      <point x="158.4" y="460.0" type="line"/>
      <point x="92.1702" y="460.0"/>
      <point x="38.4" y="406.2298"/>
      <point x="38.4" y="340.0" type="curve"/>
      <point x="158.4" y="340.0" type="line"/>
    </contour>
    <contour>
      <point x="38.4" y="300.0" type="line"/>
      <point x="158.4" y="300.0" type="line"/>
      <point x="158.4" y="340.0" type="line"/>
      <point x="38.4" y="340.0" type="line"/>
    </contour>
    <contour>
      <point x="38.4" y="680.0" type="line"/>
      <point x="104.62979999999999" y="680.0"/>
      <point x="158.4" y="733.7702"/>
      <point x="158.4" y="800.0" type="curve"/>
      <point x="38.4" y="800.0" type="line"/>
    </contour>
    <contour>
      <point x="318.4" y="120.0" type="line"/>
      <point x="252.1702" y="120.0"/>
      <point x="198.4" y="66.2298"/>
      <point x="198.4" y="0.0" type="curve"/>
      <point x="318.4" y="0.0" type="line"/>
    </contour>
    <contour>
      <point x="198.4" y="340.0" type="line"/>
      <point x="264.6298" y="340.0"/>
      <point x="318.4" y="393.7702"/>
      <point x="318.4" y="460.0" type="curve"/>
      <point x="198.4" y="460.0" type="line"/>
    </contour>
    <contour>
      <point x="198.4" y="460.0" type="line"/>
      <point x="318.4" y="460.0" type="line"/>
      <point x="318.4" y="500.0" type="line"/>
      <point x="198.4" y="500.0" type="line"/>
    </contour>
    <contour>
      <point x="198.4" y="500.0" type="line"/>
      <point x="318.4" y="500.0" type="line"/>
      <point x="318.4" y="700.0" type="line"/>
      <point x="198.4" y="700.0" type="line"/>
    </contour>
    <contour>
      <point x="198.4" y="600" type="line"/>
      <point x="318.4" y="600" type="line"/>
      <point x="318.4" y="800" type="line"/>
      <point x="198.4" y="800" type="line"/>
    </contour>
  </outline>
</glyph>
<glyph name="bracketleft" format="2">
  <advance width="316.8"/>
  <unicode hex="005B"/>
  <outline>
    <contour>
      <point x="38.4" y="-100.0" type="line"/>
      <point x="158.4" y="-100.0" type="line"/>
      <point x="158.4" y="100.0" type="line"/>
      <point x="38.4" y="100.0" type="line"/>
    </contour>
    <contour>
      <point x="38.4" y="100.0" type="line"/>
      <point x="158.4" y="100.0" type="line"/>
      <point x="158.4" y="300.0" type="line"/>
      <point x="38.4" y="300.0" type="line"/>
    </contour>
    <contour>
      <point x="38.4" y="300.0" type="line"/>
      <point x="158.4" y="300.0" type="line"/>
      <point x="158.4" y="500.0" type="line"/>
      <point x="38.4" y="500.0" type="line"/>
    </contour>
    <contour>
      <point x="38.4" y="500.0" type="line"/>
      <point x="158.4" y="500.0" type="line"/>
      <point x="158.4" y="700.0" type="line"/>
      <point x="38.4" y="700.0" type="line"/>
    </contour>
    <contour>
      <point x="38.4" y="700.0" type="line"/>
      <point x="158.4" y="700.0" type="line"/>
      <point x="158.4" y="900.0" type="line"/>
      <point x="38.4" y="900.0" type="line"/>
    </contour>
    <contour>
      <point x="278.4" y="-100.0" type="line"/>
      <point x="278.4" y="-33.7702"/>
      <point x="224.62980000000002" y="20.0"/>
      <point x="158.4" y="20.0" type="curve"/>
      <point x="158.4" y="-100.0" type="line"/>
    </contour>
    <contour>
      <point x="158.4" y="780.0" type="line"/>
      <point x="224.62980000000002" y="780.0"/>
      <point x="278.4" y="833.7702"/>
      <point x="278.4" y="900.0" type="curve"/>
      <point x="158.4" y="900.0" type="line"/>
    </contour>
  </outline>
</glyph>
<glyph name="backslash" format="2">
  <advance width="396.53844694390415"/>
  <unicode hex="005C"/>
  <outline>
    <contour>
      <point x="216.3514636521934" y="15.717509389168129" type="line"/>
      <point x="229.74429302422982" y="-49.14402412224001"/>
      <point x="293.276913432496" y="-90.9300859148899"/>
      <point x="358.1384469439041" y="-77.53725654285347" type="curve"/>
      <point x="333.8723382640595" y="39.98361806901272" type="line"/>
    </contour>
    <contour>
      <point x="216.3514636521934" y="15.717509389168129" type="line"/>
      <point x="333.8723382640595" y="39.98361806901272" type="line"/>
      <point x="317.69493247749654" y="118.33086781025685" type="line"/>
      <point x="200.17405786563037" y="94.06475913041226" type="line"/>
    </contour>
    <contour>
      <point x="200.17405786563037" y="94.06475913041226" type="line"/>
      <point x="317.69493247749654" y="118.33086781025685" type="line"/>
      <point x="277.25141801108896" y="314.19899216336717" type="line"/>
      <point x="159.73054339922277" y="289.9328834835226" type="line"/>
    </contour>
    <contour>
      <point x="159.73054339922277" y="289.9328834835226" type="line"/>
      <point x="277.25141801108896" y="314.19899216336717" type="line"/>
      <point x="236.80790354468135" y="510.0671165164774" type="line"/>
      <point x="119.28702893281519" y="485.80100783663283" type="line"/>
    </contour>
    <contour>
      <point x="119.28702893281519" y="485.80100783663283" type="line"/>
      <point x="236.80790354468135" y="510.0671165164774" type="line"/>
      <point x="196.36438907827377" y="705.9352408695877" type="line"/>
      <point x="78.84351446640761" y="681.6691321897431" type="line"/>
    </contour>
    <contour>
      <point x="180.18698329171076" y="784.2824906108319" type="line"/>
      <point x="166.79415391967436" y="849.1440241222399"/>
      <point x="103.26153351140812" y="890.9300859148899"/>
      <point x="38.4" y="877.5372565428535" type="curve"/>
      <point x="62.66610867984456" y="760.0163819309873" type="line"/>
    </contour>
    <contour>
      <point x="78.84351446640761" y="681.6691321897431" type="line"/>
      <point x="196.36438907827377" y="705.9352408695877" type="line"/>
      <point x="180.18698329171076" y="784.2824906108319" type="line"/>
      <point x="62.66610867984456" y="760.0163819309873" type="line"/>
    </contour>
  </outline>
</glyph>
<glyph name="bracketright" format="2">
  <advance width="316.8"/>
  <unicode hex="005D"/>
  <outline>
    <contour>
      <point x="158.4" y="20.0" type="line"/>
      <point x="92.1702" y="20.0"/>
      <point x="38.4" y="-33.7702"/>
      <point x="38.4" y="-100.0" type="curve"/>
      <point x="158.4" y="-100.0" type="line"/>
    </contour>
    <contour>
      <point x="38.4" y="900.0" type="line"/>
      <point x="38.4" y="833.7702"/>
      <point x="92.1702" y="780.0"/>
      <point x="158.4" y="780.0" type="curve"/>
      <point x="158.4" y="900.0" type="line"/>
    </contour>
    <contour>
      <point x="158.4" y="-100.0" type="line"/>
      <point x="278.4" y="-100.0" type="line"/>
      <point x="278.4" y="100.0" type="line"/>
      <point x="158.4" y="100.0" type="line"/>
    </contour>
    <contour>
      <point x="158.4" y="100.0" type="line"/>
      <point x="278.4" y="100.0" type="line"/>
      <point x="278.4" y="300.0" type="line"/>
      <point x="158.4" y="300.0" type="line"/>
    </contour>
    <contour>
      <point x="158.4" y="300.0" type="line"/>
      <point x="278.4" y="300.0" type="line"/>
      <point x="278.4" y="500.0" type="line"/>
      <point x="158.4" y="500.0" type="line"/>
    </contour>
    <contour>
      <point x="158.4" y="500.0" type="line"/>
      <point x="278.4" y="500.0" type="line"/>
      <point x="278.4" y="700.0" type="line"/>
      <point x="158.4" y="700.0" type="line"/>
    </contour>
    <contour>
      <point x="158.4" y="700.0" type="line"/>
      <point x="278.4" y="700.0" type="line"/>
      <point x="278.4" y="900.0" type="line"/>
      <point x="158.4" y="900.0" type="line"/>
    </contour>
  </outline>
</glyph>
<glyph name="asciicircum" format="2">
  <advance width="316.8"/>
  <unicode hex="005E"/>
  <outline>
    <contour>
      <point x="38.4" y="700.0" type="line"/>
      <point x="104.62979999999999" y="700.0"/>
      <point x="158.4" y="753.7702"/>
      <point x="158.4" y="820.0" type="curve"/>
      <point x="38.4" y="820.0" type="line"/>
    </contour>
    <contour>
      <point x="158.4" y="820.0" type="line"/>
      <point x="158.4" y="753.7702"/>
      <point x="212.1702" y="700.0"/>
      <point x="278.4" y="700.0" type="curve"/>
      <point x="278.4" y="820.0" type="line"/>
    </contour>
  </outline>
</glyph>
<glyph name="underscore" format="2">
  <advance width="356.8"/>
  <unicode hex="005F"/>
  <outline>
    <contour>
      <point x="38.4" y="-160.0" type="line"/>
      <point x="158.4" y="-160.0" type="line"/>
      <point x="158.4" y="-40.0" type="line"/>
      <point x="38.4" y="-40.0" type="line"/>
    </contour>
    <contour>
      <point x="158.4" y="-160.0" type="line"/>
      <point x="198.4" y="-160.0" type="line"/>
      <point x="198.4" y="-40.0" type="line"/>
      <point x="158.4" y="-40.0" type="line"/>
    </contour>
    <contour>
      <point x="198.4" y="-160.0" type="line"/>
      <point x="318.4" y="-160.0" type="line"/>
      <point x="318.4" y="-40.0" type="line"/>
      <point x="198.4" y="-40.0" type="line"/>
    </contour>
  </outline>
</glyph>
<glyph name="d" format="2">
  <advance width="356.8"/>
  <unicode hex="0064"/>
  <outline>
    <contour>
      <point x="38.4" y="120.0" type="line"/>
      <point x="38.4" y="53.7702"/>
      <point x="92.1702" y="0.0"/>
      <point x="158.4" y="0.0" type="curve"/>
      <point x="158.4" y="120.0" type="line"/>
    </contour>
    <contour>
      <point x="38.4" y="120.0" type="line"/>
      <point x="158.4" y="120.0" type="line"/>
      <point x="158.4" y="200.0" type="line"/>
      <point x="38.4" y="200.0" type="line"/>
    </contour>
    <contour>
      <point x="38.4" y="200" type="line"/>
      <point x="158.4" y="200" type="line"/>
      <point x="158.4" y="405.0" type="line"/>
      <point x="38.4" y="405.0" type="line"/>
    </contour>
    <contour>
      <point x="158.4" y="605.0" type="line"/>
      <point x="92.1702" y="605.0"/>
      <point x="38.4" y="551.2298"/>
      <point x="38.4" y="485.0" type="curve"/>
      <point x="158.4" y="485.0" type="line"/>
    </contour>
    <contour>
      <point x="38.4" y="405.0" type="line"/>
      <point x="158.4" y="405.0" type="line"/>
      <point x="158.4" y="485.0" type="line"/>
      <point x="38.4" y="485.0" type="line"/>
    </contour>
    <contour>
      <point x="198.4" y="0" type="line"/>
      <point x="318.4" y="0" type="line"/>
      <point x="318.4" y="200" type="line"/>
      <point x="198.4" y="200" type="line"/>
    </contour>
    <contour>
      <point x="198.4" y="200" type="line"/>
      <point x="318.4" y="200" type="line"/>
      <point x="318.4" y="400" type="line"/>
      <point x="198.4" y="400" type="line"/>
    </contour>
    <contour>
      <point x="198.4" y="400" type="line"/>
      <point x="318.4" y="400" type="line"/>
      <point x="318.4" y="600" type="line"/>
      <point x="198.4" y="600" type="line"/>
    </contour>
    <contour>
      <point x="198.4" y="600" type="line"/>
      <point x="318.4" y="600" type="line"/>
      <point x="318.4" y="800" type="line"/>
      <point x="198.4" y="800" type="line"/>
    </contour>
  </outline>
</glyph>
<glyph name="e" format="2">
  <advance width="356.8"/>
  <unicode hex="0065"/>
  <outline>
    <contour>
      <point x="38.4" y="115.0" type="line"/>
      <point x="38.4" y="48.7702"/>
      <point x="92.1702" y="-5.0"/>
      <point x="158.4" y="-5.0" type="curve"/>
      <point x="158.4" y="115.0" type="line"/>
    </contour>
    <contour>
      <point x="38.4" y="115.0" type="line"/>
      <point x="158.4" y="115.0" type="line"/>
      <point x="158.4" y="195.0" type="line"/>
      <point x="38.4" y="195.0" type="line"/>
    </contour>
    <contour>
      <point x="38.4" y="195.0" type="line"/>
      <point x="158.4" y="195.0" type="line"/>
      <point x="158.4" y="405.0" type="line"/>
      <point x="38.4" y="405.0" type="line"/>
    </contour>
    <contour>
      <point x="158.4" y="605.0" type="line"/>
      <point x="92.1702" y="605.0"/>
      <point x="38.4" y="551.2298"/>
      <point x="38.4" y="485.0" type="curve"/>
      <point x="158.4" y="485.0" type="line"/>
    </contour>
    <contour>
      <point x="38.4" y="405.0" type="line"/>
      <point x="158.4" y="405.0" type="line"/>
      <point x="158.4" y="485.0" type="line"/>
      <point x="38.4" y="485.0" type="line"/>
    </contour>
    <contour>
      <point x="198.4" y="195.0" type="line"/>
      <point x="318.4" y="195.0" type="line"/>
      <point x="318.4" y="405.0" type="line"/>
      <point x="198.4" y="405.0" type="line"/>
    </contour>
    <contour>
      <point x="318.4" y="485.0" type="line"/>
      <point x="318.4" y="551.2298"/>
      <point x="264.6298" y="605.0"/>
      <point x="198.4" y="605.0" type="curve"/>
      <point x="198.4" y="485.0" type="line"/>
    </contour>
    <contour>
      <point x="198.4" y="405.0" type="line"/>
      <point x="318.4" y="405.0" type="line"/>
      <point x="318.4" y="485.0" type="line"/>
      <point x="198.4" y="485.0" type="line"/>
    </contour>
  </outline>
</glyph>
<glyph name="f" format="2">
  <advance width="356.8"/>
  <unicode hex="0066"/>
  <outline>
    <contour>
      <point x="38.4" y="0" type="line"/>
      <point x="158.4" y="0" type="line"/>
      <point x="158.4" y="200" type="line"/>
      <point x="38.4" y="200" type="line"/>
    </contour>
    <contour>
      <point x="38.4" y="200" type="line"/>
      <point x="158.4" y="200" type="line"/>
      <point x="158.4" y="400" type="line"/>
      <point x="38.4" y="400" type="line"/>
    </contour>
    <contour>
      <point x="38.4" y="400" type="line"/>
      <point x="158.4" y="400" type="line"/>
      <point x="158.4" y="600" type="line"/>
      <point x="38.4" y="600" type="line"/>
    </contour>
    <contour>
      <point x="158.4" y="800.0" type="line"/>
      <point x="92.1702" y="800.0"/>
      <point x="38.4" y="746.2298"/>
      <point x="38.4" y="680.0" type="curve"/>
      <point x="158.4" y="680.0" type="line"/>
    </contour>
    <contour>
      <point x="38.4" y="600" type="line"/>
      <point x="158.4" y="600" type="line"/>
      <point x="158.4" y="680.0" type="line"/>
      <point x="38.4" y="680.0" type="line"/>
    </contour>
    <contour>
      <point x="198.4" y="587.5" type="line"/>
      <point x="198.4" y="521.2702"/>
      <point x="252.1702" y="467.5"/>
      <point x="318.4" y="467.5" type="curve"/>
      <point x="318.4" y="587.5" type="line"/>
    </contour>
    <contour>
      <point x="198.4" y="800.0" type="line"/>
      <point x="198.4" y="733.7702"/>
      <point x="252.1702" y="680.0"/>
      <point x="318.4" y="680.0" type="curve"/>
      <point x="318.4" y="800.0" type="line"/>
    </contour>
  </outline>
</glyph>
<glyph name="l" format="2">
  <advance width="196.8"/>
  <unicode hex="006C"/>
  <outline>
    <contour>
      <point x="38.4" y="115.0" type="line"/>
      <point x="38.4" y="48.7702"/>
      <point x="92.1702" y="-5.0"/>
      <point x="158.4" y="-5.0" type="curve"/>
      <point x="158.4" y="115.0" type="line"/>
    </contour>
    <contour>
      <point x="38.4" y="115.0" type="line"/>
      <point x="158.4" y="115.0" type="line"/>
      <point x="158.4" y="195.0" type="line"/>
      <point x="38.4" y="195.0" type="line"/>
    </contour>
    <contour>
      <point x="38.4" y="195.0" type="line"/>
      <point x="158.4" y="195.0" type="line"/>
      <point x="158.4" y="400.0" type="line"/>
      <point x="38.4" y="400.0" type="line"/>
    </contour>
    <contour>
      <point x="38.4" y="400" type="line"/>
      <point x="158.4" y="400" type="line"/>
      <point x="158.4" y="600" type="line"/>
      <point x="38.4" y="600" type="line"/>
    </contour>
    <contour>
      <point x="38.4" y="600" type="line"/>
      <point x="158.4" y="600" type="line"/>
      <point x="158.4" y="800" type="line"/>
      <point x="38.4" y="800" type="line"/>
    </contour>
  </outline>
</glyph>
<glyph name="m" format="2">
  <advance width="516.8"/>
  <unicode hex="006D"/>
  <outline>
    <contour>
      <point x="38.4" y="0" type="line"/>
      <point x="158.4" y="0" type="line"/>
      <point x="158.4" y="200" type="line"/>
      <point x="38.4" y="200" type="line"/>
    </contour>
    <contour>
      <point x="38.4" y="200" type="line"/>
      <point x="158.4" y="200" type="line"/>
      <point x="158.4" y="400" type="line"/>
      <point x="38.4" y="400" type="line"/>
    </contour>
    <contour>
      <point x="38.4" y="400" type="line"/>
      <point x="158.4" y="400" type="line"/>
      <point x="158.4" y="600" type="line"/>
      <point x="38.4" y="600" type="line"/>
    </contour>
    <contour>
      <point x="198.4" y="0" type="line"/>
      <point x="318.4" y="0" type="line"/>
      <point x="318.4" y="200" type="line"/>
      <point x="198.4" y="200" type="line"/>
    </contour>
    <contour>
      <point x="198.4" y="200" type="line"/>
      <point x="318.4" y="200" type="line"/>
      <point x="318.4" y="400" type="line"/>
      <point x="198.4" y="400" type="line"/>
    </contour>
    <contour>
      <point x="198.4" y="400" type="line"/>
      <point x="318.4" y="400" type="line"/>
      <point x="318.4" y="600" type="line"/>
      <point x="198.4" y="600" type="line"/>
    </contour>
    <contour>
      <point x="358.4" y="0" type="line"/>
      <point x="478.4" y="0" type="line"/>
      <point x="478.4" y="200" type="line"/>
      <point x="358.4" y="200" type="line"/>
    </contour>
    <contour>
      <point x="358.4" y="200" type="line"/>
      <point x="478.4" y="200" type="line"/>
      <point x="478.4" y="400" type="line"/>
      <point x="358.4" y="400" type="line"/>
    </contour>
    <contour>
      <point x="478.4" y="480.0" type="line"/>
      <point x="478.4" y="546.2298"/>
      <point x="424.6298" y="600.0"/>
      <point x="358.4" y="600.0" type="curve"/>
      <point x="358.4" y="480.0" type="line"/>
    </contour>
    <contour>
      <point x="358.4" y="400" type="line"/>
      <point x="478.4" y="400" type="line"/>
      <point x="478.4" y="480.0" type="line"/>
      <point x="358.4" y="480.0" type="line"/>
    </contour>
  </outline>
</glyph>
<glyph name="r" format="2">
  <advance width="356.8"/>
  <unicode hex="0072"/>
  <outline>
    <contour>
      <point x="38.4" y="0" type="line"/>
      <point x="158.4" y="0" type="line"/>
      <point x="158.4" y="200" type="line"/>
      <point x="38.4" y="200" type="line"/>
    </contour>
    <contour>
      <point x="38.4" y="200" type="line"/>
      <point x="158.4" y="200" type="line"/>
      <point x="158.4" y="400" type="line"/>
      <point x="38.4" y="400" type="line"/>
    </contour>
    <contour>
      <point x="38.4" y="400" type="line"/>
      <point x="158.4" y="400" type="line"/>
      <point x="158.4" y="600" type="line"/>
      <point x="38.4" y="600" type="line"/>
    </contour>
    <contour>
      <point x="323.4" y="540.0" type="curve" smooth="yes"/>
      <point x="323.4" y="575.87448"/>
      <point x="294.27448" y="605.0"/>
      <point x="258.4" y="605.0" type="curve" smooth="yes"/>
      <point x="222.52552" y="605.0"/>
      <point x="193.4" y="575.87448"/>
      <point x="193.4" y="540.0" type="curve" smooth="yes"/>
      <point x="193.4" y="504.12552"/>
      <point x="222.52552" y="475.0"/>
      <point x="258.4" y="475.0" type="curve" smooth="yes"/>
      <point x="294.27448" y="475.0"/>
      <point x="323.4" y="504.12552"/>
    </contour>
  </outline>
</glyph>
<glyph name="t" format="2">
  <advance width="356.8"/>
  <unicode hex="0074"/>
  <outline>
    <contour>
      <point x="38.4" y="0" type="line"/>
      <point x="158.4" y="0" type="line"/>
      <point x="158.4" y="200" type="line"/>
      <point x="38.4" y="200" type="line"/>
    </contour>
    <contour>
      <point x="38.4" y="200" type="line"/>
      <point x="158.4" y="200" type="line"/>
      <point x="158.4" y="400" type="line"/>
      <point x="38.4" y="400" type="line"/>
    </contour>
    <contour>
      <point x="38.4" y="400" type="line"/>
      <point x="158.4" y="400" type="line"/>
      <point x="158.4" y="600" type="line"/>
      <point x="38.4" y="600" type="line"/>
    </contour>
    <contour>
      <point x="158.4" y="800.0" type="line"/>
      <point x="92.1702" y="800.0"/>
      <point x="38.4" y="746.2298"/>
      <point x="38.4" y="680.0" type="curve"/>
      <point x="158.4" y="680.0" type="line"/>
    </contour>
    <contour>
      <point x="38.4" y="600" type="line"/>
      <point x="158.4" y="600" type="line"/>
      <point x="158.4" y="680.0" type="line"/>
      <point x="38.4" y="680.0" type="line"/>
    </contour>
    <contour>
      <point x="198.4" y="480.0" type="line"/>
      <point x="264.6298" y="480.0"/>
      <point x="318.4" y="533.7702"/>
      <point x="318.4" y="600.0" type="curve"/>
      <point x="198.4" y="600.0" type="line"/>
    </contour>
  </outline>
</glyph>
<glyph name="z" format="2">
  <advance width="356.8"/>
  <unicode hex="007A"/>
  <outline>
    <contour>
      <point x="38.4" y="0" type="line"/>
      <point x="158.4" y="0" type="line"/>
      <point x="158.4" y="200" type="line"/>
      <point x="38.4" y="200" type="line"/>
    </contour>
    <contour>
      <point x="158.4" y="360.0" type="line"/>
      <point x="92.1702" y="360.0"/>
      <point x="38.4" y="306.2298"/>
      <point x="38.4" y="240.0" type="curve"/>
      <point x="158.4" y="240.0" type="line"/>
    </contour>
    <contour>
      <point x="38.4" y="200" type="line"/>
      <point x="158.4" y="200" type="line"/>
      <point x="158.4" y="240.0" type="line"/>
      <point x="38.4" y="240.0" type="line"/>
    </contour>
    <contour>
      <point x="38.4" y="480.0" type="line"/>
      <point x="104.62979999999999" y="480.0"/>
      <point x="158.4" y="533.7702"/>
      <point x="158.4" y="600.0" type="curve"/>
      <point x="38.4" y="600.0" type="line"/>
    </contour>
    <contour>
      <point x="318.4" y="120.0" type="line"/>
      <point x="252.1702" y="120.0"/>
      <point x="198.4" y="66.2298"/>
      <point x="198.4" y="0.0" type="curve"/>
      <point x="318.4" y="0.0" type="line"/>
    </contour>
    <contour>
      <point x="198.4" y="240.0" type="line"/>
      <point x="264.6298" y="240.0"/>
      <point x="318.4" y="293.7702"/>
      <point x="318.4" y="360.0" type="curve"/>
      <point x="198.4" y="360.0" type="line"/>
    </contour>
    <contour>
      <point x="198.4" y="360.0" type="line"/>
      <point x="318.4" y="360.0" type="line"/>
      <point x="318.4" y="400.0" type="line"/>
      <point x="198.4" y="400.0" type="line"/>
    </contour>
    <contour>
      <point x="198.4" y="400" type="line"/>
      <point x="318.4" y="400" type="line"/>
      <point x="318.4" y="600" type="line"/>
      <point x="198.4" y="600" type="line"/>
    </contour>
  </outline>
</glyph>
<glyph name="bar" format="2">
  <advance width="196.8"/>
  <unicode hex="007C"/>
  <outline>
    <contour>
      <point x="38.4" y="-100.0" type="line"/>
      <point x="158.4" y="-100.0" type="line"/>
      <point x="158.4" y="100.0" type="line"/>
      <point x="38.4" y="100.0" type="line"/>
    </contour>
    <contour>
      <point x="38.4" y="100.0" type="line"/>
      <point x="158.4" y="100.0" type="line"/>
      <point x="158.4" y="300.0" type="line"/>
      <point x="38.4" y="300.0" type="line"/>
    </contour>
    <contour>
      <point x="38.4" y="300.0" type="line"/>
      <point x="158.4" y="300.0" type="line"/>
      <point x="158.4" y="500.0" type="line"/>
      <point x="38.4" y="500.0" type="line"/>
    </contour>
    <contour>
      <point x="38.4" y="500.0" type="line"/>
      <point x="158.4" y="500.0" type="line"/>
      <point x="158.4" y="700.0" type="line"/>
      <point x="38.4" y="700.0" type="line"/>
    </contour>
    <contour>
      <point x="38.4" y="700.0" type="line"/>
      <point x="158.4" y="700.0" type="line"/>
      <point x="158.4" y="900.0" type="line"/>
      <point x="38.4" y="900.0" type="line"/>
    </contour>
  </outline>
</glyph>
<glyph name="braceright" format="2">
  <advance width="196.8"/>
  <unicode hex="007D"/>
  <outline>
    <contour>
      <point x="38.4" y="-100.0" type="line"/>
      <point x="104.62979999999999" y="-100.0"/>
      <point x="158.4" y="-46.2298"/>
      <point x="158.4" y="20.0" type="curve"/>
      <point x="38.4" y="20.0" type="line"/>
    </contour>
    <contour>
      <point x="38.4" y="20.0" type="line"/>
      <point x="158.4" y="20.0" type="line"/>
      <point x="158.4" y="100.0" type="line"/>
      <point x="38.4" y="100.0" type="line"/>
    </contour>
    <contour>
      <point x="38.4" y="100.0" type="line"/>
      <point x="158.4" y="100.0" type="line"/>
      <point x="158.4" y="200.0" type="line"/>
      <point x="38.4" y="200.0" type="line"/>
    </contour>
    <contour>
      <point x="158.4" y="400.0" type="line"/>
      <point x="92.1702" y="400.0"/>
      <point x="38.4" y="346.2298"/>
      <point x="38.4" y="280.0" type="curve"/>
      <point x="158.4" y="280.0" type="line"/>
    </contour>
    <contour>
      <point x="38.4" y="200" type="line"/>
      <point x="158.4" y="200" type="line"/>
      <point x="158.4" y="280.0" type="line"/>
      <point x="38.4" y="280.0" type="line"/>
    </contour>
    <contour>
      <point x="38.4" y="520.0" type="line"/>
      <point x="38.4" y="453.7702"/>
      <point x="92.1702" y="400.0"/>
      <point x="158.4" y="400.0" type="curve"/>
      <point x="158.4" y="520.0" type="line"/>
    </contour>
    <contour>
      <point x="38.4" y="520.0" type="line"/>
      <point x="158.4" y="520.0" type="line"/>
      <point x="158.4" y="600.0" type="line"/>
      <point x="38.4" y="600.0" type="line"/>
    </contour>
    <contour>
      <point x="38.4" y="600" type="line"/>
      <point x="158.4" y="600" type="line"/>
      <point x="158.4" y="700.0" type="line"/>
      <point x="38.4" y="700.0" type="line"/>
    </contour>
    <contour>
      <point x="158.4" y="780.0" type="line"/>
      <point x="158.4" y="846.2298"/>
      <point x="104.62979999999999" y="900.0"/>
      <point x="38.4" y="900.0" type="curve"/>
      <point x="38.4" y="780.0" type="line"/>
    </contour>
    <contour>
      <point x="38.4" y="700.0" type="line"/>
      <point x="158.4" y="700.0" type="line"/>
      <point x="158.4" y="780.0" type="line"/>
      <point x="38.4" y="780.0" type="line"/>
    </contour>
  </outline>
</glyph>
<glyph name="tilde" format="2">
  <advance width="356.8"/>
  <unicode hex="007E"/>
  <outline>
    <contour>
      <point x="158.4" y="460.0" type="line"/>
      <point x="92.1702" y="460.0"/>
      <point x="38.4" y="406.2298"/>
      <point x="38.4" y="340.0" type="curve"/>
      <point x="158.4" y="340.0" type="line"/>
    </contour>
    <contour>
      <point x="158.4" y="340.0" type="line"/>
      <point x="198.4" y="340.0" type="line"/>
      <point x="198.4" y="460.0" type="line"/>
      <point x="158.4" y="460.0" type="line"/>
    </contour>
    <contour>
      <point x="198.4" y="340.0" type="line"/>
      <point x="264.6298" y="340.0"/>
      <point x="318.4" y="393.7702"/>
      <point x="318.4" y="460.0" type="curve"/>
      <point x="198.4" y="460.0" type="line"/>
    </contour>
  </outline>
</glyph>
<glyph name="invexclamation" format="2">
  <advance width="196.8"/>
  <unicode hex="00A1"/>
  <outline>
    <contour>
      <point x="38.4" y="-200" type="line"/>
      <point x="158.4" y="-200" type="line"/>
      <point x="158.4" y="0" type="line"/>
      <point x="38.4" y="0" type="line"/>
    </contour>
    <contour>
      <point x="38.4" y="0" type="line"/>
      <point x="158.4" y="0" type="line"/>
      <point x="158.4" y="200" type="line"/>
      <point x="38.4" y="200" type="line"/>
    </contour>
    <contour>
      <point x="38.4" y="200" type="line"/>
      <point x="158.4" y="200" type="line"/>
      <point x="158.4" y="404.16667" type="line"/>
      <point x="38.4" y="404.16667" type="line"/>
    </contour>
    <contour>
      <point x="163.4" y="546.25" type="curve" smooth="yes"/>
      <point x="163.4" y="582.12448"/>
      <point x="134.27448" y="611.25"/>
      <point x="98.4" y="611.25" type="curve" smooth="yes"/>
      <point x="62.52552" y="611.25"/>
      <point x="33.4" y="582.12448"/>
      <point x="33.4" y="546.25" type="curve" smooth="yes"/>
      <point x="33.4" y="510.37552"/>
      <point x="62.52552" y="481.25"/>
      <point x="98.4" y="481.25" type="curve" smooth="yes"/>
      <point x="134.27448" y="481.25"/>
      <point x="163.4" y="510.37552"/>
    </contour>
  </outline>
</glyph>
<glyph name="cent" format="2">
  <advance width="356.8"/>
  <unicode hex="00A2"/>
  <outline>
    <contour>
      <point x="98.4" y="0" type="line"/>
      <point x="158.4" y="0" type="line"/>
      <point x="158.4" y="100.0" type="line"/>
      <point x="98.4" y="100.0" type="line"/>
    </contour>
    <contour>
      <point x="98.4" y="100.0" type="line"/>
      <point x="158.4" y="100.0" type="line"/>
      <point x="158.4" y="200.0" type="line"/>
      <point x="98.4" y="200.0" type="line"/>
    </contour>
    <contour>
      <point x="38.4" y="220.0" type="line"/>
      <point x="38.4" y="153.7702"/>
      <point x="92.1702" y="100.0"/>
      <point x="158.4" y="100.0" type="curve"/>
      <point x="158.4" y="220.0" type="line"/>
    </contour>
    <contour>
      <point x="38.4" y="220.0" type="line"/>
      <point x="158.4" y="220.0" type="line"/>
      <point x="158.4" y="300.0" type="line"/>
      <point x="38.4" y="300.0" type="line"/>
    </contour>
    <contour>
      <point x="158.4" y="500.0" type="line"/>
      <point x="92.1702" y="500.0"/>
      <point x="38.4" y="446.2298"/>
      <point x="38.4" y="380.0" type="curve"/>
      <point x="158.4" y="380.0" type="line"/>
    </contour>
    <contour>
      <point x="38.4" y="300.0" type="line"/>
      <point x="158.4" y="300.0" type="line"/>
      <point x="158.4" y="380.0" type="line"/>
      <point x="38.4" y="380.0" type="line"/>
    </contour>
    <contour>
      <point x="98.4" y="400" type="line"/>
      <point x="158.4" y="400" type="line"/>
      <point x="158.4" y="500.0" type="line"/>
      <point x="98.4" y="500.0" type="line"/>
    </contour>
    <contour>
      <point x="98.4" y="500.0" type="line"/>
      <point x="158.4" y="500.0" type="line"/>
      <point x="158.4" y="600.0" type="line"/>
      <point x="98.4" y="600.0" type="line"/>
    </contour>
    <contour>
      <point x="198.4" y="0" type="line"/>
      <point x="258.4" y="0" type="line"/>
      <point x="258.4" y="100.0" type="line"/>
      <point x="198.4" y="100.0" type="line"/>
    </contour>
    <contour>
      <point x="318.4" y="220.0" type="line"/>
      <point x="252.1702" y="220.0"/>
      <point x="198.4" y="166.2298"/>
      <point x="198.4" y="100.0" type="curve"/>
      <point x="318.4" y="100.0" type="line"/>
    </contour>
    <contour>
      <point x="198.4" y="500.0" type="line"/>
      <point x="198.4" y="433.7702"/>
      <point x="252.1702" y="380.0"/>
      <point x="318.4" y="380.0" type="curve"/>
      <point x="318.4" y="500.0" type="line"/>
    </contour>
    <contour>
      <point x="198.4" y="500.0" type="line"/>
      <point x="258.4" y="500.0" type="line"/>
      <point x="258.4" y="600.0" type="line"/>
      <point x="198.4" y="600.0" type="line"/>
    </contour>
  </outline>
</glyph>
<glyph name="pound" format="2">
  <advance width="461.8"/>
  <unicode hex="00A3"/>
  <outline>
    <contour>
      <point x="38.4" y="0" type="line"/>
      <point x="98.4" y="0" type="line"/>
      <point x="98.4" y="60.0" type="line"/>
      <point x="38.4" y="60.0" type="line"/>
    </contour>
    <contour>
      <point x="38.4" y="370.0" type="line"/>
      <point x="98.4" y="370.0" type="line"/>
      <point x="98.4" y="430.0" type="line"/>
      <point x="38.4" y="430.0" type="line"/>
    </contour>
    <contour>
      <point x="138.4" y="0" type="line"/>
      <point x="258.4" y="0" type="line"/>
      <point x="258.4" y="200" type="line"/>
      <point x="138.4" y="200" type="line"/>
    </contour>
    <contour>
      <point x="138.4" y="200" type="line"/>
      <point x="258.4" y="200" type="line"/>
      <point x="258.4" y="400" type="line"/>
      <point x="138.4" y="400" type="line"/>
    </contour>
    <contour>
      <point x="138.4" y="400" type="line"/>
      <point x="258.4" y="400" type="line"/>
      <point x="258.4" y="605.0" type="line"/>
      <point x="138.4" y="605.0" type="line"/>
    </contour>
    <contour>
      <point x="258.4" y="805.0" type="line"/>
      <point x="192.1702" y="805.0"/>
      <point x="138.4" y="751.2298"/>
      <point x="138.4" y="685.0" type="curve"/>
      <point x="258.4" y="685.0" type="line"/>
    </contour>
    <contour>
      <point x="138.4" y="605.0" type="line"/>
      <point x="258.4" y="605.0" type="line"/>
      <point x="258.4" y="685.0" type="line"/>
      <point x="138.4" y="685.0" type="line"/>
    </contour>
    <contour>
      <point x="418.4" y="120.0" type="line"/>
      <point x="352.17019999999997" y="120.0"/>
      <point x="298.4" y="66.2298"/>
      <point x="298.4" y="0.0" type="curve"/>
      <point x="418.4" y="0.0" type="line"/>
    </contour>
    <contour>
      <point x="298.4" y="370.0" type="line"/>
      <point x="358.4" y="370.0" type="line"/>
      <point x="358.4" y="430.0" type="line"/>
      <point x="298.4" y="430.0" type="line"/>
    </contour>
    <contour>
      <point x="328.4" y="370.0" type="line"/>
      <point x="388.4" y="370.0" type="line"/>
      <point x="388.4" y="430.0" type="line"/>
      <point x="328.4" y="430.0" type="line"/>
    </contour>
    <contour>
      <point x="423.4" y="740.0" type="curve" smooth="yes"/>
      <point x="423.4" y="775.87448"/>
      <point x="394.27448" y="805.0"/>
      <point x="358.4" y="805.0" type="curve" smooth="yes"/>
      <point x="322.52552" y="805.0"/>
      <point x="293.4" y="775.87448"/>
      <point x="293.4" y="740.0" type="curve" smooth="yes"/>
      <point x="293.4" y="704.12552"/>
      <point x="322.52552" y="675.0"/>
      <point x="358.4" y="675.0" type="curve" smooth="yes"/>
      <point x="394.27448" y="675.0"/>
      <point x="423.4" y="704.12552"/>
    </contour>
  </outline>
</glyph>
<glyph name="currency" format="2">
  <advance width="356.8"/>
  <unicode hex="00A4"/>
  <outline>
    <contour>
      <point x="38.4" y="360.0" type="line"/>
      <point x="38.4" y="293.7702"/>
      <point x="92.1702" y="240.0"/>
      <point x="158.4" y="240.0" type="curve"/>
      <point x="158.4" y="360.0" type="line"/>
    </contour>
    <contour>
      <point x="38.4" y="360.0" type="line"/>
      <point x="158.4" y="360.0" type="line"/>
      <point x="158.4" y="400.0" type="line"/>
      <point x="38.4" y="400.0" type="line"/>
    </contour>
    <contour>
      <point x="158.4" y="560.0" type="line"/>
      <point x="92.1702" y="560.0"/>
      <point x="38.4" y="506.2298"/>
      <point x="38.4" y="440.0" type="curve"/>
      <point x="158.4" y="440.0" type="line"/>
    </contour>
    <contour>
      <point x="38.4" y="400" type="line"/>
      <point x="158.4" y="400" type="line"/>
      <point x="158.4" y="440.0" type="line"/>
      <point x="38.4" y="440.0" type="line"/>
    </contour>
    <contour>
      <point x="38.4" y="220.0" type="line"/>
      <point x="98.4" y="220.0" type="line"/>
      <point x="98.4" y="280.0" type="line"/>
      <point x="38.4" y="280.0" type="line"/>
    </contour>
    <contour>
      <point x="38.4" y="520.0" type="line"/>
      <point x="98.4" y="520.0" type="line"/>
      <point x="98.4" y="580.0" type="line"/>
      <point x="38.4" y="580.0" type="line"/>
    </contour>
    <contour>
      <point x="198.4" y="240.0" type="line"/>
      <point x="264.6298" y="240.0"/>
      <point x="318.4" y="293.7702"/>
      <point x="318.4" y="360.0" type="curve"/>
      <point x="198.4" y="360.0" type="line"/>
    </contour>
    <contour>
      <point x="198.4" y="360.0" type="line"/>
      <point x="318.4" y="360.0" type="line"/>
      <point x="318.4" y="400.0" type="line"/>
      <point x="198.4" y="400.0" type="line"/>
    </contour>
    <contour>
      <point x="318.4" y="440.0" type="line"/>
      <point x="318.4" y="506.2298"/>
      <point x="264.6298" y="560.0"/>
      <point x="198.4" y="560.0" type="curve"/>
      <point x="198.4" y="440.0" type="line"/>
    </contour>
    <contour>
      <point x="198.4" y="400" type="line"/>
      <point x="318.4" y="400" type="line"/>
      <point x="318.4" y="440.0" type="line"/>
      <point x="198.4" y="440.0" type="line"/>
    </contour>
    <contour>
      <point x="258.4" y="220.0" type="line"/>
      <point x="318.4" y="220.0" type="line"/>
      <point x="318.4" y="280.0" type="line"/>
      <point x="258.4" y="280.0" type="line"/>
    </contour>
    <contour>
      <point x="258.4" y="520.0" type="line"/>
      <point x="318.4" y="520.0" type="line"/>
      <point x="318.4" y="580.0" type="line"/>
      <point x="258.4" y="580.0" type="line"/>
    </contour>
  </outline>
</glyph>
<glyph name="yen" format="2">
  <advance width="556.8"/>
  <unicode hex="00A5"/>
  <outline>
    <contour>
      <point x="38.4" y="395.0" type="line"/>
      <point x="98.4" y="395.0" type="line"/>
      <point x="98.4" y="455.0" type="line"/>
      <point x="38.4" y="455.0" type="line"/>
    </contour>
    <contour>
      <point x="38.4" y="545.0" type="line"/>
      <point x="98.4" y="545.0" type="line"/>
      <point x="98.4" y="605.0" type="line"/>
      <point x="38.4" y="605.0" type="line"/>
    </contour>
    <contour>
      <point x="138.4" y="320.0" type="line"/>
      <point x="138.4" y="253.7702"/>
      <point x="192.1702" y="200.0"/>
      <point x="258.4" y="200.0" type="curve"/>
      <point x="258.4" y="320.0" type="line"/>
    </contour>
    <contour>
      <point x="138.4" y="320.0" type="line"/>
      <point x="258.4" y="320.0" type="line"/>
      <point x="258.4" y="400.0" type="line"/>
      <point x="138.4" y="400.0" type="line"/>
    </contour>
    <contour>
      <point x="138.4" y="400" type="line"/>
      <point x="258.4" y="400" type="line"/>
      <point x="258.4" y="605.0" type="line"/>
      <point x="138.4" y="605.0" type="line"/>
    </contour>
    <contour>
      <point x="258.4" y="685.0" type="line"/>
      <point x="258.4" y="751.2298"/>
      <point x="204.62980000000002" y="805.0"/>
      <point x="138.4" y="805.0" type="curve"/>
      <point x="138.4" y="685.0" type="line"/>
    </contour>
    <contour>
      <point x="138.4" y="605.0" type="line"/>
      <point x="258.4" y="605.0" type="line"/>
      <point x="258.4" y="685.0" type="line"/>
      <point x="138.4" y="685.0" type="line"/>
    </contour>
    <contour>
      <point x="298.4" y="-5.0" type="line"/>
      <point x="364.6298" y="-5.0"/>
      <point x="418.4" y="48.7702"/>
      <point x="418.4" y="115.0" type="curve"/>
      <point x="298.4" y="115.0" type="line"/>
    </contour>
    <contour>
      <point x="298.4" y="115.0" type="line"/>
      <point x="418.4" y="115.0" type="line"/>
      <point x="418.4" y="195.0" type="line"/>
      <point x="298.4" y="195.0" type="line"/>
    </contour>
    <contour>
      <point x="298.4" y="195.0" type="line"/>
      <point x="418.4" y="195.0" type="line"/>
      <point x="418.4" y="400.0" type="line"/>
      <point x="298.4" y="400.0" type="line"/>
    </contour>
    <contour>
      <point x="298.4" y="400" type="line"/>
      <point x="418.4" y="400" type="line"/>
      <point x="418.4" y="600" type="line"/>
      <point x="298.4" y="600" type="line"/>
    </contour>
    <contour>
      <point x="298.4" y="600" type="line"/>
      <point x="418.4" y="600" type="line"/>
      <point x="418.4" y="800" type="line"/>
      <point x="298.4" y="800" type="line"/>
    </contour>
    <contour>
      <point x="458.4" y="395.0" type="line"/>
      <point x="518.4" y="395.0" type="line"/>
      <point x="518.4" y="455.0" type="line"/>
      <point x="458.4" y="455.0" type="line"/>
    </contour>
    <contour>
      <point x="458.4" y="545.0" type="line"/>
      <point x="518.4" y="545.0" type="line"/>
      <point x="518.4" y="605.0" type="line"/>
      <point x="458.4" y="605.0" type="line"/>
    </contour>
  </outline>
</glyph>
<glyph name="section" format="2">
  <advance width="356.8"/>
  <unicode hex="00A7"/>
  <outline>
    <contour>
      <point x="158.4" y="-200" type="line"/>
      <point x="158.4" y="-133.7702"/>
      <point x="104.62979999999999" y="-80.0"/>
      <point x="38.4" y="-80.0" type="curve"/>
      <point x="38.4" y="-200" type="line"/>
    </contour>
    <contour>
      <point x="38.4" y="220.0" type="line"/>
      <point x="38.4" y="153.7702"/>
      <point x="92.1702" y="100.0"/>
      <point x="158.4" y="100.0" type="curve"/>
      <point x="158.4" y="220.0" type="line"/>
    </contour>
    <contour>
      <point x="38.4" y="220.0" type="line"/>
      <point x="158.4" y="220.0" type="line"/>
      <point x="158.4" y="300.0" type="line"/>
      <point x="38.4" y="300.0" type="line"/>
    </contour>
    <contour>
      <point x="158.4" y="500.0" type="line"/>
      <point x="92.1702" y="500.0"/>
      <point x="38.4" y="446.2298"/>
      <point x="38.4" y="380.0" type="curve"/>
      <point x="158.4" y="380.0" type="line"/>
    </contour>
    <contour>
      <point x="38.4" y="300.0" type="line"/>
      <point x="158.4" y="300.0" type="line"/>
      <point x="158.4" y="380.0" type="line"/>
      <point x="38.4" y="380.0" type="line"/>
    </contour>
    <contour>
      <point x="38.4" y="560.0" type="line"/>
      <point x="38.4" y="493.7702"/>
      <point x="92.1702" y="440.0"/>
      <point x="158.4" y="440.0" type="curve"/>
      <point x="158.4" y="560.0" type="line"/>
    </contour>
    <contour>
      <point x="38.4" y="560.0" type="line"/>
      <point x="158.4" y="560.0" type="line"/>
      <point x="158.4" y="600.0" type="line"/>
      <point x="38.4" y="600.0" type="line"/>
    </contour>
    <contour>
      <point x="158.4" y="800.0" type="line"/>
      <point x="92.1702" y="800.0"/>
      <point x="38.4" y="746.2298"/>
      <point x="38.4" y="680.0" type="curve"/>
      <point x="158.4" y="680.0" type="line"/>
    </contour>
    <contour>
      <point x="38.4" y="600" type="line"/>
      <point x="158.4" y="600" type="line"/>
      <point x="158.4" y="680.0" type="line"/>
      <point x="38.4" y="680.0" type="line"/>
    </contour>
    <contour>
      <point x="198.4" y="-200.0" type="line"/>
      <point x="264.6298" y="-200.0"/>
      <point x="318.4" y="-146.2298"/>
      <point x="318.4" y="-80.0" type="curve"/>
      <point x="198.4" y="-80.0" type="line"/>
    </contour>
    <contour>
      <point x="198.4" y="-80.0" type="line"/>
      <point x="318.4" y="-80.0" type="line"/>
      <point x="318.4" y="0.0" type="line"/>
      <point x="198.4" y="0.0" type="line"/>
    </contour>
    <contour>
      <point x="318.4" y="40.0" type="line"/>
      <point x="318.4" y="106.2298"/>
      <point x="264.6298" y="160.0"/>
      <point x="198.4" y="160.0" type="curve"/>
      <point x="198.4" y="40.0" type="line"/>
    </contour>
    <contour>
      <point x="198.4" y="0" type="line"/>
      <point x="318.4" y="0" type="line"/>
      <point x="318.4" y="40.0" type="line"/>
      <point x="198.4" y="40.0" type="line"/>
    </contour>
    <contour>
      <point x="198.4" y="100.0" type="line"/>
      <point x="264.6298" y="100.0"/>
      <point x="318.4" y="153.7702"/>
      <point x="318.4" y="220.0" type="curve"/>
      <point x="198.4" y="220.0" type="line"/>
    </contour>
    <contour>
      <point x="198.4" y="220.0" type="line"/>
      <point x="318.4" y="220.0" type="line"/>
      <point x="318.4" y="300.0" type="line"/>
      <point x="198.4" y="300.0" type="line"/>
    </contour>
    <contour>
      <point x="318.4" y="380.0" type="line"/>
      <point x="318.4" y="446.2298"/>
      <point x="264.6298" y="500.0"/>
      <point x="198.4" y="500.0" type="curve"/>
      <point x="198.4" y="380.0" type="line"/>
    </contour>
    <contour>
      <point x="198.4" y="300.0" type="line"/>
      <point x="318.4" y="300.0" type="line"/>
      <point x="318.4" y="380.0" type="line"/>
      <point x="198.4" y="380.0" type="line"/>
    </contour>
    <contour>
      <point x="198.4" y="800.0" type="line"/>
      <point x="198.4" y="733.7702"/>
      <point x="252.1702" y="680.0"/>
      <point x="318.4" y="680.0" type="curve"/>
      <point x="318.4" y="800.0" type="line"/>
    </contour>
  </outline>
</glyph>
<glyph name="copyright" format="2">
  <advance width="896.51422"/>
  <unicode hex="00A9"/>
  <outline>
    <contour>
      <point x="300.75711" y="320.0" type="curve"/>
      <point x="420.75711" y="320.0" type="line"/>
      <point x="420.75711" y="200.0" type="line"/>
      <point x="354.52731000000006" y="200.0"/>
      <point x="300.75711" y="253.7702"/>
    </contour>
    <contour>
      <point x="300.75711" y="320.0" type="line"/>
      <point x="300.75711" y="400.0" type="line"/>
      <point x="420.75711" y="400.0" type="line"/>
      <point x="420.75711" y="320.0" type="line"/>
    </contour>
    <contour>
      <point x="420.75711" y="605.0" type="curve"/>
      <point x="420.75711" y="485.0" type="line"/>
      <point x="300.75711" y="485.0" type="line"/>
      <point x="300.75711" y="551.2298"/>
      <point x="354.52731000000006" y="605.0"/>
    </contour>
    <contour>
      <point x="300.75711" y="400" type="line"/>
      <point x="300.75711" y="485.0" type="line"/>
      <point x="420.75711" y="485.0" type="line"/>
      <point x="420.75711" y="400" type="line"/>
    </contour>
    <contour>
      <point x="578.88211" y="320.0" type="curve"/>
      <point x="578.88211" y="200.0" type="line"/>
      <point x="458.88211" y="200.0" type="line"/>
      <point x="458.88211" y="266.2298"/>
      <point x="512.6523099999999" y="320.0"/>
    </contour>
    <contour>
      <point x="580.75711" y="550.0" type="curve" smooth="yes"/>
      <point x="580.75711" y="516.8851"/>
      <point x="553.87201" y="490.0"/>
      <point x="520.75711" y="490.0" type="curve" smooth="yes"/>
      <point x="487.64221" y="490.0"/>
      <point x="460.75711" y="516.8851"/>
      <point x="460.75711" y="550.0" type="curve" smooth="yes"/>
      <point x="460.75711" y="583.1149"/>
      <point x="487.64221" y="610.0"/>
      <point x="520.75711" y="610.0" type="curve" smooth="yes"/>
      <point x="553.87201" y="610.0"/>
      <point x="580.75711" y="583.1149"/>
    </contour>
    <contour>
      <point x="798.1142199999999" y="405.0" type="curve" smooth="yes"/>
      <point x="798.1142199999999" y="598.0914"/>
      <point x="641.34851" y="754.85711"/>
      <point x="448.25711" y="754.85711" type="curve" smooth="yes"/>
      <point x="255.16571000000002" y="754.85711"/>
      <point x="98.4" y="598.0914"/>
      <point x="98.4" y="405.0" type="curve" smooth="yes"/>
      <point x="98.4" y="211.9086"/>
      <point x="255.16571000000002" y="55.14289"/>
      <point x="448.25711" y="55.14289" type="curve" smooth="yes"/>
      <point x="641.34851" y="55.14289"/>
      <point x="798.1142199999999" y="211.9086"/>
    </contour>
  </outline>
</glyph>
<glyph name="macron" format="2">
  <advance width="356.8"/>
  <unicode hex="00AF"/>
  <outline>
    <contour>
      <point x="58.4" y="800" type="line"/>
      <point x="178.4" y="800" type="line"/>
      <point x="178.4" y="920.0" type="line"/>
      <point x="58.4" y="920.0" type="line"/>
    </contour>
    <contour>
      <point x="178.4" y="800" type="line"/>
      <point x="298.4" y="800" type="line"/>
      <point x="298.4" y="920.0" type="line"/>
      <point x="178.4" y="920.0" type="line"/>
    </contour>
  </outline>
</glyph>
<glyph name="degree" format="2">
  <advance width="246.8"/>
  <unicode hex="00B0"/>
  <outline>
    <contour>
      <point x="103.4" y="805.0" type="line"/>
      <point x="67.52552" y="805.0"/>
      <point x="38.4" y="775.87448"/>
      <point x="38.4" y="740.0" type="curve" smooth="yes"/>
      <point x="38.4" y="704.12552"/>
      <point x="67.52552" y="675.0"/>
      <point x="103.4" y="675.0" type="curve"/>
    </contour>
    <contour>
      <point x="143.4" y="675.0" type="line"/>
      <point x="179.27448" y="675.0"/>
      <point x="208.4" y="704.12552"/>
      <point x="208.4" y="740.0" type="curve" smooth="yes"/>
      <point x="208.4" y="775.87448"/>
      <point x="179.27448" y="805.0"/>
      <point x="143.4" y="805.0" type="curve"/>
    </contour>
  </outline>
</glyph>
<glyph name="plus_minus" format="2">
  <advance width="516.8"/>
  <unicode hex="00B1"/>
  <outline>
    <contour>
      <point x="78.4" y="140.0" type="line"/>
      <point x="198.4" y="140.0" type="line"/>
      <point x="198.4" y="260.0" type="line"/>
      <point x="78.4" y="260.0" type="line"/>
    </contour>
    <contour>
      <point x="78.4" y="440.0" type="line"/>
      <point x="198.4" y="440.0" type="line"/>
      <point x="198.4" y="560.0" type="line"/>
      <point x="78.4" y="560.0" type="line"/>
    </contour>
    <contour>
      <point x="198.4" y="140.0" type="line"/>
      <point x="318.4" y="140.0" type="line"/>
      <point x="318.4" y="260.0" type="line"/>
      <point x="198.4" y="260.0" type="line"/>
    </contour>
    <contour>
      <point x="198.4" y="300.0" type="line"/>
      <point x="318.4" y="300.0" type="line"/>
      <point x="318.4" y="400.0" type="line"/>
      <point x="198.4" y="400.0" type="line"/>
    </contour>
    <contour>
      <point x="198.4" y="400" type="line"/>
      <point x="318.4" y="400" type="line"/>
      <point x="318.4" y="600" type="line"/>
      <point x="198.4" y="600" type="line"/>
    </contour>
    <contour>
      <point x="198.4" y="600" type="line"/>
      <point x="318.4" y="600" type="line"/>
      <point x="318.4" y="700.0" type="line"/>
      <point x="198.4" y="700.0" type="line"/>
    </contour>
    <contour>
      <point x="318.4" y="140.0" type="line"/>
      <point x="438.4" y="140.0" type="line"/>
      <point x="438.4" y="260.0" type="line"/>
      <point x="318.4" y="260.0" type="line"/>
    </contour>
    <contour>
      <point x="318.4" y="440.0" type="line"/>
      <point x="438.4" y="440.0" type="line"/>
      <point x="438.4" y="560.0" type="line"/>
      <point x="318.4" y="560.0" type="line"/>
    </contour>
  </outline>
</glyph>
<glyph name="sup_two" format="2">
  <advance width="356.8"/>
  <unicode hex="00B2"/>
  <outline>
    <contour>
      <point x="158.4" y="320.0" type="line"/>
      <point x="92.1702" y="320.0"/>
      <point x="38.4" y="266.2298"/>
      <point x="38.4" y="200.0" type="curve"/>
      <point x="158.4" y="200.0" type="line"/>
    </contour>
    <contour>
      <point x="158.4" y="200" type="line"/>
      <point x="198.4" y="200" type="line"/>
      <point x="198.4" y="320.0" type="line"/>
      <point x="158.4" y="320.0" type="line"/>
    </contour>
    <contour>
      <point x="167.15" y="740.0" type="curve" smooth="yes"/>
      <point x="167.15" y="775.87448"/>
      <point x="138.02448" y="805.0"/>
      <point x="102.15" y="805.0" type="curve" smooth="yes"/>
      <point x="66.27552" y="805.0"/>
      <point x="37.15" y="775.87448"/>
      <point x="37.15" y="740.0" type="curve" smooth="yes"/>
      <point x="37.15" y="704.12552"/>
      <point x="66.27552" y="675.0"/>
      <point x="102.15" y="675.0" type="curve" smooth="yes"/>
      <point x="138.02448" y="675.0"/>
      <point x="167.15" y="704.12552"/>
    </contour>
    <contour>
      <point x="198.4" y="200" type="line"/>
      <point x="318.4" y="200" type="line"/>
      <point x="318.4" y="320.0" type="line"/>
      <point x="198.4" y="320.0" type="line"/>
    </contour>
    <contour>
      <point x="198.4" y="357.0" type="line"/>
      <point x="264.6298" y="357.0"/>
      <point x="318.4" y="410.7702"/>
      <point x="318.4" y="477.0" type="curve"/>
      <point x="198.4" y="477.0" type="line"/>
    </contour>
    <contour>
      <point x="198.4" y="477.0" type="line"/>
      <point x="318.4" y="477.0" type="line"/>
      <point x="318.4" y="605.0" type="line"/>
      <point x="198.4" y="605.0" type="line"/>
    </contour>
    <contour>
      <point x="318.4" y="685.0" type="line"/>
      <point x="318.4" y="751.2298"/>
      <point x="264.6298" y="805.0"/>
      <point x="198.4" y="805.0" type="curve"/>
      <point x="198.4" y="685.0" type="line"/>
    </contour>
    <contour>
      <point x="198.4" y="605.0" type="line"/>
      <point x="318.4" y="605.0" type="line"/>
      <point x="318.4" y="685.0" type="line"/>
      <point x="198.4" y="685.0" type="line"/>
    </contour>
  </outline>
</glyph>
<glyph name="sup_three" format="2">
  <advance width="356.8"/>
  <unicode hex="00B3"/>
  <outline>
    <contour>
      <point x="163.4" y="260.0" type="curve" smooth="yes"/>
      <point x="163.4" y="295.87448"/>
      <point x="134.27448" y="325.0"/>
      <point x="98.4" y="325.0" type="curve" smooth="yes"/>
      <point x="62.52552" y="325.0"/>
      <point x="33.4" y="295.87448"/>
      <point x="33.4" y="260.0" type="curve" smooth="yes"/>
      <point x="33.4" y="224.12552"/>
      <point x="62.52552" y="195.0"/>
      <point x="98.4" y="195.0" type="curve" smooth="yes"/>
      <point x="134.27448" y="195.0"/>
      <point x="163.4" y="224.12552"/>
    </contour>
    <contour>
      <point x="163.4" y="740.0" type="curve" smooth="yes"/>
      <point x="163.4" y="775.87448"/>
      <point x="134.27448" y="805.0"/>
      <point x="98.4" y="805.0" type="curve" smooth="yes"/>
      <point x="62.52552" y="805.0"/>
      <point x="33.4" y="775.87448"/>
      <point x="33.4" y="740.0" type="curve" smooth="yes"/>
      <point x="33.4" y="704.12552"/>
      <point x="62.52552" y="675.0"/>
      <point x="98.4" y="675.0" type="curve" smooth="yes"/>
      <point x="134.27448" y="675.0"/>
      <point x="163.4" y="704.12552"/>
    </contour>
    <contour>
      <point x="198.4" y="195.0" type="line"/>
      <point x="264.6298" y="195.0"/>
      <point x="318.4" y="248.7702"/>
      <point x="318.4" y="315.0" type="curve"/>
      <point x="198.4" y="315.0" type="line"/>
    </contour>
    <contour>
      <point x="198.4" y="315.0" type="line"/>
      <point x="318.4" y="315.0" type="line"/>
      <point x="318.4" y="400.0" type="line"/>
      <point x="198.4" y="400.0" type="line"/>
    </contour>
    <contour>
      <point x="318.4" y="480.0" type="line"/>
      <point x="318.4" y="546.2298"/>
      <point x="264.6298" y="600.0"/>
      <point x="198.4" y="600.0" type="curve"/>
      <point x="198.4" y="480.0" type="line"/>
    </contour>
    <contour>
      <point x="198.4" y="400" type="line"/>
      <point x="318.4" y="400" type="line"/>
      <point x="318.4" y="480.0" type="line"/>
      <point x="198.4" y="480.0" type="line"/>
    </contour>
    <contour>
      <point x="198.4" y="600.0" type="line"/>
      <point x="264.6298" y="600.0"/>
      <point x="318.4" y="653.7702"/>
      <point x="318.4" y="720.0" type="curve"/>
      <point x="198.4" y="720.0" type="line"/>
    </contour>
    <contour>
      <point x="198.4" y="720.0" type="line"/>
      <point x="318.4" y="720.0" type="line"/>
      <point x="318.4" y="800.0" type="line"/>
      <point x="198.4" y="800.0" type="line"/>
    </contour>
  </outline>
</glyph>
<glyph name="pilcrow" format="2">
  <advance width="356.8"/>
  <unicode hex="00B6"/>
  <outline>
    <contour>
      <point x="38.4" y="520.0" type="line"/>
      <point x="38.4" y="453.7702"/>
      <point x="92.1702" y="400.0"/>
      <point x="158.4" y="400.0" type="curve"/>
      <point x="158.4" y="520.0" type="line"/>
    </contour>
    <contour>
      <point x="38.4" y="520.0" type="line"/>
      <point x="158.4" y="520.0" type="line"/>
      <point x="158.4" y="600.0" type="line"/>
      <point x="38.4" y="600.0" type="line"/>
    </contour>
    <contour>
      <point x="158.4" y="800.0" type="line"/>
      <point x="92.1702" y="800.0"/>
      <point x="38.4" y="746.2298"/>
      <point x="38.4" y="680.0" type="curve"/>
      <point x="158.4" y="680.0" type="line"/>
    </contour>
    <contour>
      <point x="38.4" y="600" type="line"/>
      <point x="158.4" y="600" type="line"/>
      <point x="158.4" y="680.0" type="line"/>
      <point x="38.4" y="680.0" type="line"/>
    </contour>
    <contour>
      <point x="198.4" y="-100.0" type="line"/>
      <point x="318.4" y="-100.0" type="line"/>
      <point x="318.4" y="0.0" type="line"/>
      <point x="198.4" y="0.0" type="line"/>
    </contour>
    <contour>
      <point x="198.4" y="0" type="line"/>
      <point x="318.4" y="0" type="line"/>
      <point x="318.4" y="200" type="line"/>
      <point x="198.4" y="200" type="line"/>
    </contour>
    <contour>
      <point x="198.4" y="200" type="line"/>
      <point x="318.4" y="200" type="line"/>
      <point x="318.4" y="400" type="line"/>
      <point x="198.4" y="400" type="line"/>
    </contour>
    <contour>
      <point x="198.4" y="400" type="line"/>
      <point x="318.4" y="400" type="line"/>
      <point x="318.4" y="600" type="line"/>
      <point x="198.4" y="600" type="line"/>
    </contour>
    <contour>
      <point x="198.4" y="600" type="line"/>
      <point x="318.4" y="600" type="line"/>
      <point x="318.4" y="800" type="line"/>
      <point x="198.4" y="800" type="line"/>
    </contour>
  </outline>
</glyph>
<glyph name="ordinalmasculine" format="2">
  <advance width="356.8"/>
  <unicode hex="00BA"/>
  <outline>
    <contour>
      <point x="38.4" y="520.0" type="line"/>
      <point x="38.4" y="453.7702"/>
      <point x="92.1702" y="400.0"/>
      <point x="158.4" y="400.0" type="curve"/>
      <point x="158.4" y="520.0" type="line"/>
    </contour>
    <contour>
      <point x="38.4" y="520.0" type="line"/>
      <point x="158.4" y="520.0" type="line"/>
      <point x="158.4" y="600.0" type="line"/>
      <point x="38.4" y="600.0" type="line"/>
    </contour>
    <contour>
      <point x="158.4" y="800.0" type="line"/>
      <point x="92.1702" y="800.0"/>
      <point x="38.4" y="746.2298"/>
      <point x="38.4" y="680.0" type="curve"/>
      <point x="158.4" y="680.0" type="line"/>
    </contour>
    <contour>
      <point x="38.4" y="600" type="line"/>
      <point x="158.4" y="600" type="line"/>
      <point x="158.4" y="680.0" type="line"/>
      <point x="38.4" y="680.0" type="line"/>
    </contour>
    <contour>
      <point x="198.4" y="400.0" type="line"/>
      <point x="264.6298" y="400.0"/>
      <point x="318.4" y="453.7702"/>
      <point x="318.4" y="520.0" type="curve"/>
      <point x="198.4" y="520.0" type="line"/>
    </contour>
    <contour>
      <point x="198.4" y="520.0" type="line"/>
      <point x="318.4" y="520.0" type="line"/>
      <point x="318.4" y="600.0" type="line"/>
      <point x="198.4" y="600.0" type="line"/>
    </contour>
    <contour>
      <point x="318.4" y="680.0" type="line"/>
      <point x="318.4" y="746.2298"/>
      <point x="264.6298" y="800.0"/>
      <point x="198.4" y="800.0" type="curve"/>
      <point x="198.4" y="680.0" type="line"/>
    </contour>
    <contour>
      <point x="198.4" y="600" type="line"/>
      <point x="318.4" y="600" type="line"/>
      <point x="318.4" y="680.0" type="line"/>
      <point x="198.4" y="680.0" type="line"/>
    </contour>
  </outline>
</glyph>
<glyph name="one_over_four" format="2">
  <advance width="676.8"/>
  <unicode hex="00BC"/>
  <outline>
    <contour>
      <point x="18.4" y="200" type="line"/>
      <point x="138.4" y="200" type="line"/>
      <point x="138.4" y="400" type="line"/>
      <point x="18.4" y="400" type="line"/>
    </contour>
    <contour>
      <point x="18.4" y="400" type="line"/>
      <point x="138.4" y="400" type="line"/>
      <point x="138.4" y="600" type="line"/>
      <point x="18.4" y="600" type="line"/>
    </contour>
    <contour>
      <point x="18.4" y="600" type="line"/>
      <point x="138.4" y="600" type="line"/>
      <point x="138.4" y="800" type="line"/>
      <point x="18.4" y="800" type="line"/>
    </contour>
    <contour>
      <point x="198.4" y="-200.0" type="line"/>
      <point x="264.6298" y="-200.0"/>
      <point x="318.4" y="-146.2298"/>
      <point x="318.4" y="-80.0" type="curve"/>
      <point x="198.4" y="-80.0" type="line"/>
    </contour>
    <contour>
      <point x="198.4" y="-80.0" type="line"/>
      <point x="318.4" y="-80.0" type="line"/>
      <point x="318.4" y="0.0" type="line"/>
      <point x="198.4" y="0.0" type="line"/>
    </contour>
    <contour>
      <point x="198.4" y="0" type="line"/>
      <point x="318.4" y="0" type="line"/>
      <point x="318.4" y="200" type="line"/>
      <point x="198.4" y="200" type="line"/>
    </contour>
    <contour>
      <point x="198.4" y="200" type="line"/>
      <point x="318.4" y="200" type="line"/>
      <point x="318.4" y="400" type="line"/>
      <point x="198.4" y="400" type="line"/>
    </contour>
    <contour>
      <point x="198.4" y="400" type="line"/>
      <point x="318.4" y="400" type="line"/>
      <point x="318.4" y="600" type="line"/>
      <point x="198.4" y="600" type="line"/>
    </contour>
    <contour>
      <point x="318.4" y="800.0" type="line"/>
      <point x="252.1702" y="800.0"/>
      <point x="198.4" y="746.2298"/>
      <point x="198.4" y="680.0" type="curve"/>
      <point x="318.4" y="680.0" type="line"/>
    </contour>
    <contour>
      <point x="198.4" y="600" type="line"/>
      <point x="318.4" y="600" type="line"/>
      <point x="318.4" y="680.0" type="line"/>
      <point x="198.4" y="680.0" type="line"/>
    </contour>
    <contour>
      <point x="378.4" y="0.0" type="line"/>
      <point x="444.6298" y="0.0"/>
      <point x="498.4" y="53.7702"/>
      <point x="498.4" y="120.0" type="curve"/>
      <point x="378.4" y="120.0" type="line"/>
    </contour>
    <contour>
      <point x="378.4" y="120.0" type="line"/>
      <point x="498.4" y="120.0" type="line"/>
      <point x="498.4" y="200.0" type="line"/>
      <point x="378.4" y="200.0" type="line"/>
    </contour>
    <contour>
      <point x="378.4" y="200" type="line"/>
      <point x="498.4" y="200" type="line"/>
      <point x="498.4" y="400" type="line"/>
      <point x="378.4" y="400" type="line"/>
    </contour>
    <contour>
      <point x="538.4" y="-200" type="line"/>
      <point x="658.4" y="-200" type="line"/>
      <point x="658.4" y="0" type="line"/>
      <point x="538.4" y="0" type="line"/>
    </contour>
    <contour>
      <point x="538.4" y="0" type="line"/>
      <point x="658.4" y="0" type="line"/>
      <point x="658.4" y="200" type="line"/>
      <point x="538.4" y="200" type="line"/>
    </contour>
  </outline>
</glyph>
<glyph name="one_over_two" format="2">
  <advance width="676.8"/>
  <unicode hex="00BD"/>
  <outline>
    <contour>
      <point x="18.4" y="200" type="line"/>
      <point x="138.4" y="200" type="line"/>
      <point x="138.4" y="400" type="line"/>
      <point x="18.4" y="400" type="line"/>
    </contour>
    <contour>
      <point x="18.4" y="400" type="line"/>
      <point x="138.4" y="400" type="line"/>
      <point x="138.4" y="600" type="line"/>
      <point x="18.4" y="600" type="line"/>
    </contour>
    <contour>
      <point x="18.4" y="600" type="line"/>
      <point x="138.4" y="600" type="line"/>
      <point x="138.4" y="800" type="line"/>
      <point x="18.4" y="800" type="line"/>
    </contour>
    <contour>
      <point x="198.4" y="-200.0" type="line"/>
      <point x="264.6298" y="-200.0"/>
      <point x="318.4" y="-146.2298"/>
      <point x="318.4" y="-80.0" type="curve"/>
      <point x="198.4" y="-80.0" type="line"/>
    </contour>
    <contour>
      <point x="198.4" y="-80.0" type="line"/>
      <point x="318.4" y="-80.0" type="line"/>
      <point x="318.4" y="0.0" type="line"/>
      <point x="198.4" y="0.0" type="line"/>
    </contour>
    <contour>
      <point x="198.4" y="0" type="line"/>
      <point x="318.4" y="0" type="line"/>
      <point x="318.4" y="200" type="line"/>
      <point x="198.4" y="200" type="line"/>
    </contour>
    <contour>
      <point x="198.4" y="200" type="line"/>
      <point x="318.4" y="200" type="line"/>
      <point x="318.4" y="400" type="line"/>
      <point x="198.4" y="400" type="line"/>
    </contour>
    <contour>
      <point x="198.4" y="400" type="line"/>
      <point x="318.4" y="400" type="line"/>
      <point x="318.4" y="600" type="line"/>
      <point x="198.4" y="600" type="line"/>
    </contour>
    <contour>
      <point x="318.4" y="800.0" type="line"/>
      <point x="252.1702" y="800.0"/>
      <point x="198.4" y="746.2298"/>
      <point x="198.4" y="680.0" type="curve"/>
      <point x="318.4" y="680.0" type="line"/>
    </contour>
    <contour>
      <point x="198.4" y="600" type="line"/>
      <point x="318.4" y="600" type="line"/>
      <point x="318.4" y="680.0" type="line"/>
      <point x="198.4" y="680.0" type="line"/>
    </contour>
    <contour>
      <point x="498.4" y="-80.0" type="line"/>
      <point x="432.17019999999997" y="-80.0"/>
      <point x="378.4" y="-133.7702"/>
      <point x="378.4" y="-200.0" type="curve"/>
      <point x="498.4" y="-200.0" type="line"/>
    </contour>
    <contour>
      <point x="498.4" y="-200" type="line"/>
      <point x="538.4" y="-200" type="line"/>
      <point x="538.4" y="-80.0" type="line"/>
      <point x="498.4" y="-80.0" type="line"/>
    </contour>
    <contour>
      <point x="507.15" y="340.0" type="curve" smooth="yes"/>
      <point x="507.15" y="375.87448"/>
      <point x="478.02448" y="405.0"/>
      <point x="442.15" y="405.0" type="curve" smooth="yes"/>
      <point x="406.27552" y="405.0"/>
      <point x="377.15" y="375.87448"/>
      <point x="377.15" y="340.0" type="curve" smooth="yes"/>
      <point x="377.15" y="304.12552"/>
      <point x="406.27552" y="275.0"/>
      <point x="442.15" y="275.0" type="curve" smooth="yes"/>
      <point x="478.02448" y="275.0"/>
      <point x="507.15" y="304.12552"/>
    </contour>
    <contour>
      <point x="538.4" y="-200" type="line"/>
      <point x="658.4" y="-200" type="line"/>
      <point x="658.4" y="-80.0" type="line"/>
      <point x="538.4" y="-80.0" type="line"/>
    </contour>
    <contour>
      <point x="538.4" y="-43.0" type="line"/>
      <point x="604.6297999999999" y="-43.0"/>
      <point x="658.4" y="10.7702"/>
      <point x="658.4" y="77.0" type="curve"/>
      <point x="538.4" y="77.0" type="line"/>
    </contour>
    <contour>
      <point x="538.4" y="77.0" type="line"/>
      <point x="658.4" y="77.0" type="line"/>
      <point x="658.4" y="205.0" type="line"/>
      <point x="538.4" y="205.0" type="line"/>
    </contour>
    <contour>
      <point x="658.4" y="285.0" type="line"/>
      <point x="658.4" y="351.2298"/>
      <point x="604.6297999999999" y="405.0"/>
      <point x="538.4" y="405.0" type="curve"/>
      <point x="538.4" y="285.0" type="line"/>
    </contour>
    <contour>
      <point x="538.4" y="205.0" type="line"/>
      <point x="658.4" y="205.0" type="line"/>
      <point x="658.4" y="285.0" type="line"/>
      <point x="538.4" y="285.0" type="line"/>
    </contour>
  </outline>
</glyph>
<glyph name="invquestion" format="2">
  <advance width="356.8"/>
  <unicode hex="00BF"/>
  <outline>
    <contour>
      <point x="38.4" y="-85.0" type="line"/>
      <point x="38.4" y="-151.2298"/>
      <point x="92.1702" y="-205.0"/>
      <point x="158.4" y="-205.0" type="curve"/>
      <point x="158.4" y="-85.0" type="line"/>
    </contour>
    <contour>
      <point x="38.4" y="-85.0" type="line"/>
      <point x="158.4" y="-85.0" type="line"/>
      <point x="158.4" y="-5.0" type="line"/>
      <point x="38.4" y="-5.0" type="line"/>
    </contour>
    <contour>
      <point x="158.4" y="195.0" type="line"/>
      <point x="92.1702" y="195.0"/>
      <point x="38.4" y="141.2298"/>
      <point x="38.4" y="75.0" type="curve"/>
      <point x="158.4" y="75.0" type="line"/>
    </contour>
    <contour>
      <point x="38.4" y="-5.0" type="line"/>
      <point x="158.4" y="-5.0" type="line"/>
      <point x="158.4" y="75.0" type="line"/>
      <point x="38.4" y="75.0" type="line"/>
    </contour>
    <contour>
      <point x="323.4" y="-152.5" type="curve" smooth="yes"/>
      <point x="323.4" y="-116.62552"/>
      <point x="294.27448" y="-87.5"/>
      <point x="258.4" y="-87.5" type="curve" smooth="yes"/>
      <point x="222.52552" y="-87.5"/>
      <point x="193.4" y="-116.62552"/>
      <point x="193.4" y="-152.5" type="curve" smooth="yes"/>
      <point x="193.4" y="-188.37448"/>
      <point x="222.52552" y="-217.5"/>
      <point x="258.4" y="-217.5" type="curve" smooth="yes"/>
      <point x="294.27448" y="-217.5"/>
      <point x="323.4" y="-188.37448"/>
    </contour>
    <contour>
      <point x="198.4" y="80.0" type="line"/>
      <point x="264.6298" y="80.0"/>
      <point x="318.4" y="133.7702"/>
      <point x="318.4" y="200.0" type="curve"/>
      <point x="198.4" y="200.0" type="line"/>
    </contour>
    <contour>
      <point x="198.4" y="200" type="line"/>
      <point x="318.4" y="200" type="line"/>
      <point x="318.4" y="404.16667" type="line"/>
      <point x="198.4" y="404.16667" type="line"/>
    </contour>
    <contour>
      <point x="323.4" y="546.25" type="curve" smooth="yes"/>
      <point x="323.4" y="582.12448"/>
      <point x="294.27448" y="611.25"/>
      <point x="258.4" y="611.25" type="curve" smooth="yes"/>
      <point x="222.52552" y="611.25"/>
      <point x="193.4" y="582.12448"/>
      <point x="193.4" y="546.25" type="curve" smooth="yes"/>
      <point x="193.4" y="510.37552"/>
      <point x="222.52552" y="481.25"/>
      <point x="258.4" y="481.25" type="curve" smooth="yes"/>
      <point x="294.27448" y="481.25"/>
      <point x="323.4" y="510.37552"/>
    </contour>
  </outline>
</glyph>
<glyph name="A_with_grave" format="2">
  <advance width="356.8"/>
  <unicode hex="00C0"/>
  <outline>
    <contour>
      <point x="38.4" y="0" type="line"/>
      <point x="158.4" y="0" type="line"/>
      <point x="158.4" y="200" type="line"/>
      <point x="38.4" y="200" type="line"/>
    </contour>
    <contour>
      <point x="38.4" y="200" type="line"/>
      <point x="158.4" y="200" type="line"/>
      <point x="158.4" y="400" type="line"/>
      <point x="38.4" y="400" type="line"/>
    </contour>
    <contour>
      <point x="38.4" y="400" type="line"/>
      <point x="158.4" y="400" type="line"/>
      <point x="158.4" y="605.0" type="line"/>
      <point x="38.4" y="605.0" type="line"/>
    </contour>
    <contour>
      <point x="158.4" y="805.0" type="line"/>
      <point x="92.1702" y="805.0"/>
      <point x="38.4" y="751.2298"/>
      <point x="38.4" y="685.0" type="curve"/>
      <point x="158.4" y="685.0" type="line"/>
    </contour>
    <contour>
      <point x="38.4" y="605.0" type="line"/>
      <point x="158.4" y="605.0" type="line"/>
      <point x="158.4" y="685.0" type="line"/>
      <point x="38.4" y="685.0" type="line"/>
    </contour>
    <contour>
      <point x="198.4" y="0" type="line"/>
      <point x="318.4" y="0" type="line"/>
      <point x="318.4" y="200" type="line"/>
      <point x="198.4" y="200" type="line"/>
    </contour>
    <contour>
      <point x="198.4" y="200" type="line"/>
      <point x="318.4" y="200" type="line"/>
      <point x="318.4" y="400" type="line"/>
      <point x="198.4" y="400" type="line"/>
    </contour>
    <contour>
      <point x="198.4" y="400" type="line"/>
      <point x="318.4" y="400" type="line"/>
      <point x="318.4" y="605.0" type="line"/>
      <point x="198.4" y="605.0" type="line"/>
    </contour>
    <contour>
      <point x="318.4" y="685.0" type="line"/>
      <point x="318.4" y="751.2298"/>
      <point x="264.6298" y="805.0"/>
      <point x="198.4" y="805.0" type="curve"/>
      <point x="198.4" y="685.0" type="line"/>
    </contour>
    <contour>
      <point x="198.4" y="605.0" type="line"/>
      <point x="318.4" y="605.0" type="line"/>
      <point x="318.4" y="685.0" type="line"/>
      <point x="198.4" y="685.0" type="line"/>
    </contour>
    <contour>
      <point x="65.9" y="964.4444444444445" type="line"/>
      <point x="65.9" y="898.2146444444445"/>
      <point x="119.67020000000001" y="844.4444444444445"/>
      <point x="185.9" y="844.4444444444445" type="curve"/>
      <point x="185.9" y="964.4444444444445" type="line"/>
    </contour>
  </outline>
</glyph>
<glyph name="A_with_ring" format="2">
  <advance width="356.8"/>
  <unicode hex="00C5"/>
  <outline>
    <contour>
      <point x="38.4" y="0" type="line"/>
      <point x="158.4" y="0" type="line"/>
      <point x="158.4" y="200" type="line"/>
      <point x="38.4" y="200" type="line"/>
    </contour>
    <contour>
      <point x="38.4" y="200" type="line"/>
      <point x="158.4" y="200" type="line"/>
      <point x="158.4" y="400" type="line"/>
      <point x="38.4" y="400" type="line"/>
    </contour>
    <contour>
      <point x="38.4" y="400" type="line"/>
      <point x="158.4" y="400" type="line"/>
      <point x="158.4" y="605.0" type="line"/>
      <point x="38.4" y="605.0" type="line"/>
    </contour>
    <contour>
      <point x="158.4" y="805.0" type="line"/>
      <point x="92.1702" y="805.0"/>
      <point x="38.4" y="751.2298"/>
      <point x="38.4" y="685.0" type="curve"/>
      <point x="158.4" y="685.0" type="line"/>
    </contour>
    <contour>
      <point x="38.4" y="605.0" type="line"/>
      <point x="158.4" y="605.0" type="line"/>
      <point x="158.4" y="685.0" type="line"/>
      <point x="38.4" y="685.0" type="line"/>
    </contour>
    <contour>
      <point x="198.4" y="0" type="line"/>
      <point x="318.4" y="0" type="line"/>
      <point x="318.4" y="200" type="line"/>
      <point x="198.4" y="200" type="line"/>
    </contour>
    <contour>
      <point x="198.4" y="200" type="line"/>
      <point x="318.4" y="200" type="line"/>
      <point x="318.4" y="400" type="line"/>
      <point x="198.4" y="400" type="line"/>
    </contour>
    <contour>
      <point x="198.4" y="400" type="line"/>
      <point x="318.4" y="400" type="line"/>
      <point x="318.4" y="605.0" type="line"/>
      <point x="198.4" y="605.0" type="line"/>
    </contour>
    <contour>
      <point x="318.4" y="685.0" type="line"/>
      <point x="318.4" y="751.2298"/>
      <point x="264.6298" y="805.0"/>
      <point x="198.4" y="805.0" type="curve"/>
      <point x="198.4" y="685.0" type="line"/>
    </contour>
    <contour>
      <point x="198.4" y="605.0" type="line"/>
      <point x="318.4" y="605.0" type="line"/>
      <point x="318.4" y="685.0" type="line"/>
      <point x="198.4" y="685.0" type="line"/>
    </contour>
    <contour>
      <point x="158.4" y="969.4444444444445" type="line"/>
      <point x="122.52552" y="969.4444444444445"/>
      <point x="93.4" y="940.3189244444445"/>
      <point x="93.4" y="904.4444444444445" type="curve" smooth="yes"/>
      <point x="93.4" y="868.5699644444445"/>
      <point x="122.52552" y="839.4444444444445"/>
      <point x="158.4" y="839.4444444444445" type="curve"/>
    </contour>
    <contour>
      <point x="198.4" y="839.4444444444445" type="line"/>
      <point x="234.27448" y="839.4444444444445"/>
      <point x="263.4" y="868.5699644444445"/>
      <point x="263.4" y="904.4444444444445" type="curve" smooth="yes"/>
      <point x="263.4" y="940.3189244444445"/>
      <point x="234.27448" y="969.4444444444445"/>
      <point x="198.4" y="969.4444444444445" type="curve"/>
    </contour>
  </outline>
</glyph>
<glyph name="E_with_grave" format="2">
  <advance width="356.8"/>
  <unicode hex="00C8"/>
  <outline>
    <contour>
      <point x="38.4" y="0" type="line"/>
      <point x="158.4" y="0" type="line"/>
      <point x="158.4" y="200" type="line"/>
      <point x="38.4" y="200" type="line"/>
    </contour>
    <contour>
      <point x="38.4" y="200" type="line"/>
      <point x="158.4" y="200" type="line"/>
      <point x="158.4" y="400" type="line"/>
      <point x="38.4" y="400" type="line"/>
    </contour>
    <contour>
      <point x="38.4" y="400" type="line"/>
      <point x="158.4" y="400" type="line"/>
      <point x="158.4" y="600" type="line"/>
      <point x="38.4" y="600" type="line"/>
    </contour>
    <contour>
      <point x="38.4" y="600" type="line"/>
      <point x="158.4" y="600" type="line"/>
      <point x="158.4" y="800" type="line"/>
      <point x="38.4" y="800" type="line"/>
    </contour>
    <contour>
      <point x="318.4" y="120.0" type="line"/>
      <point x="252.1702" y="120.0"/>
      <point x="198.4" y="66.2298"/>
      <point x="198.4" y="0.0" type="curve"/>
      <point x="318.4" y="0.0" type="line"/>
    </contour>
    <contour>
      <point x="198.4" y="460.0" type="line"/>
      <point x="198.4" y="393.7702"/>
      <point x="252.1702" y="340.0"/>
      <point x="318.4" y="340.0" type="curve"/>
      <point x="318.4" y="460.0" type="line"/>
    </contour>
    <contour>
      <point x="198.4" y="800.0" type="line"/>
      <point x="198.4" y="733.7702"/>
      <point x="252.1702" y="680.0"/>
      <point x="318.4" y="680.0" type="curve"/>
      <point x="318.4" y="800.0" type="line"/>
    </contour>
    <contour>
      <point x="65.9" y="964.4444444444445" type="line"/>
      <point x="65.9" y="898.2146444444445"/>
      <point x="119.67020000000001" y="844.4444444444445"/>
      <point x="185.9" y="844.4444444444445" type="curve"/>
      <point x="185.9" y="964.4444444444445" type="line"/>
    </contour>
  </outline>
</glyph>
<glyph name="I_with_grave" format="2">
  <advance width="196.8"/>
  <unicode hex="00CC"/>
  <outline>
    <contour>
      <point x="38.4" y="0" type="line"/>
      <point x="158.4" y="0" type="line"/>
      <point x="158.4" y="200" type="line"/>
      <point x="38.4" y="200" type="line"/>
    </contour>
    <contour>
      <point x="38.4" y="200" type="line"/>
      <point x="158.4" y="200" type="line"/>
      <point x="158.4" y="400" type="line"/>
      <point x="38.4" y="400" type="line"/>
    </contour>
    <contour>
      <point x="38.4" y="400" type="line"/>
      <point x="158.4" y="400" type="line"/>
      <point x="158.4" y="600" type="line"/>
      <point x="38.4" y="600" type="line"/>
    </contour>
    <contour>
      <point x="38.4" y="600" type="line"/>
      <point x="158.4" y="600" type="line"/>
      <point x="158.4" y="800" type="line"/>
      <point x="38.4" y="800" type="line"/>
    </contour>
    <contour>
      <point x="-14.099999999999994" y="964.4444444444445" type="line"/>
      <point x="-14.099999999999994" y="898.2146444444445"/>
      <point x="39.67020000000001" y="844.4444444444445"/>
      <point x="105.9" y="844.4444444444445" type="curve"/>
      <point x="105.9" y="964.4444444444445" type="line"/>
    </contour>
  </outline>
</glyph>
<glyph name="I_with_circumflex" format="2">
  <advance width="196.8"/>
  <unicode hex="00CE"/>
  <outline>
    <contour>
      <point x="38.4" y="0" type="line"/>
      <point x="158.4" y="0" type="line"/>
      <point x="158.4" y="200" type="line"/>
      <point x="38.4" y="200" type="line"/>
    </contour>
    <contour>
      <point x="38.4" y="200" type="line"/>
      <point x="158.4" y="200" type="line"/>
      <point x="158.4" y="400" type="line"/>
      <point x="38.4" y="400" type="line"/>
    </contour>
    <contour>
      <point x="38.4" y="400" type="line"/>
      <point x="158.4" y="400" type="line"/>
      <point x="158.4" y="600" type="line"/>
      <point x="38.4" y="600" type="line"/>
    </contour>
    <contour>
      <point x="38.4" y="600" type="line"/>
      <point x="158.4" y="600" type="line"/>
      <point x="158.4" y="800" type="line"/>
      <point x="38.4" y="800" type="line"/>
    </contour>
    <contour>
      <point x="-25.349999999999994" y="844.4444444444445" type="line"/>
      <point x="40.8798" y="844.4444444444445"/>
      <point x="94.65" y="898.2146444444445"/>
      <point x="94.65" y="964.4444444444445" type="curve"/>
      <point x="-25.349999999999994" y="964.4444444444445" type="line"/>
    </contour>
    <contour>
      <point x="102.15" y="964.4444444444445" type="line"/>
      <point x="102.15" y="898.2146444444445"/>
      <point x="155.9202" y="844.4444444444445"/>
      <point x="222.15" y="844.4444444444445" type="curve"/>
      <point x="222.15" y="964.4444444444445" type="line"/>
    </contour>
  </outline>
</glyph>
<glyph name="I_with_diaeresis" format="2">
  <advance width="196.8"/>
  <unicode hex="00CF"/>
  <outline>
    <contour>
      <point x="38.4" y="0" type="line"/>
      <point x="158.4" y="0" type="line"/>
      <point x="158.4" y="200" type="line"/>
      <point x="38.4" y="200" type="line"/>
    </contour>
    <contour>
      <point x="38.4" y="200" type="line"/>
      <point x="158.4" y="200" type="line"/>
      <point x="158.4" y="400" type="line"/>
      <point x="38.4" y="400" type="line"/>
    </contour>
    <contour>
      <point x="38.4" y="400" type="line"/>
      <point x="158.4" y="400" type="line"/>
      <point x="158.4" y="600" type="line"/>
      <point x="38.4" y="600" type="line"/>
    </contour>
    <contour>
      <point x="38.4" y="600" type="line"/>
      <point x="158.4" y="600" type="line"/>
      <point x="158.4" y="800" type="line"/>
      <point x="38.4" y="800" type="line"/>
    </contour>
    <contour>
      <point x="83.4" y="904.4444444444445" type="curve" smooth="yes"/>
      <point x="83.4" y="940.3189244444445"/>
      <point x="54.27448000000001" y="969.4444444444445"/>
      <point x="18.400000000000006" y="969.4444444444445" type="curve" smooth="yes"/>
      <point x="-17.474479999999993" y="969.4444444444445"/>
      <point x="-46.599999999999994" y="940.3189244444445"/>
      <point x="-46.599999999999994" y="904.4444444444445" type="curve" smooth="yes"/>
      <point x="-46.599999999999994" y="868.5699644444445"/>
      <point x="-17.474479999999993" y="839.4444444444445"/>
      <point x="18.400000000000006" y="839.4444444444445" type="curve" smooth="yes"/>
      <point x="54.27448000000001" y="839.4444444444445"/>
      <point x="83.4" y="868.5699644444445"/>
    </contour>
    <contour>
      <point x="243.4" y="904.4444444444445" type="curve" smooth="yes"/>
      <point x="243.4" y="940.3189244444445"/>
      <point x="214.27448" y="969.4444444444445"/>
      <point x="178.4" y="969.4444444444445" type="curve" smooth="yes"/>
      <point x="142.52552" y="969.4444444444445"/>
      <point x="113.4" y="940.3189244444445"/>
      <point x="113.4" y="904.4444444444445" type="curve" smooth="yes"/>
      <point x="113.4" y="868.5699644444445"/>
      <point x="142.52552" y="839.4444444444445"/>
      <point x="178.4" y="839.4444444444445" type="curve" smooth="yes"/>
      <point x="214.27448" y="839.4444444444445"/>
      <point x="243.4" y="868.5699644444445"/>
    </contour>
  </outline>
</glyph>
<glyph name="ETH" format="2">
  <advance width="516.8"/>
  <unicode hex="00D0"/>
  <outline>
    <contour>
      <point x="233.4" y="460.0" type="line"/>
      <point x="167.1702" y="460.0"/>
      <point x="113.4" y="406.2298"/>
      <point x="113.4" y="340.0" type="curve"/>
      <point x="233.4" y="340.0" type="line"/>
    </contour>
    <contour>
      <point x="198.4" y="0" type="line"/>
      <point x="318.4" y="0" type="line"/>
      <point x="318.4" y="200" type="line"/>
      <point x="198.4" y="200" type="line"/>
    </contour>
    <contour>
      <point x="198.4" y="200" type="line"/>
      <point x="318.4" y="200" type="line"/>
      <point x="318.4" y="400" type="line"/>
      <point x="198.4" y="400" type="line"/>
    </contour>
    <contour>
      <point x="198.4" y="400" type="line"/>
      <point x="318.4" y="400" type="line"/>
      <point x="318.4" y="600" type="line"/>
      <point x="198.4" y="600" type="line"/>
    </contour>
    <contour>
      <point x="198.4" y="600" type="line"/>
      <point x="318.4" y="600" type="line"/>
      <point x="318.4" y="800" type="line"/>
      <point x="198.4" y="800" type="line"/>
    </contour>
    <contour>
      <point x="358.4" y="0.0" type="line"/>
      <point x="424.6298" y="0.0"/>
      <point x="478.4" y="53.7702"/>
      <point x="478.4" y="120.0" type="curve"/>
      <point x="358.4" y="120.0" type="line"/>
    </contour>
    <contour>
      <point x="358.4" y="120.0" type="line"/>
      <point x="478.4" y="120.0" type="line"/>
      <point x="478.4" y="200.0" type="line"/>
      <point x="358.4" y="200.0" type="line"/>
    </contour>
    <contour>
      <point x="358.4" y="200" type="line"/>
      <point x="478.4" y="200" type="line"/>
      <point x="478.4" y="400" type="line"/>
      <point x="358.4" y="400" type="line"/>
    </contour>
    <contour>
      <point x="358.4" y="400" type="line"/>
      <point x="478.4" y="400" type="line"/>
      <point x="478.4" y="600" type="line"/>
      <point x="358.4" y="600" type="line"/>
    </contour>
    <contour>
      <point x="478.4" y="680.0" type="line"/>
      <point x="478.4" y="746.2298"/>
      <point x="424.6298" y="800.0"/>
      <point x="358.4" y="800.0" type="curve"/>
      <point x="358.4" y="680.0" type="line"/>
    </contour>
    <contour>
      <point x="358.4" y="600" type="line"/>
      <point x="478.4" y="600" type="line"/>
      <point x="478.4" y="680.0" type="line"/>
      <point x="358.4" y="680.0" type="line"/>
    </contour>
  </outline>
</glyph>
<glyph name="O_with_diaeresis" format="2">
  <advance width="356.8"/>
  <unicode hex="00D6"/>
  <outline>
    <contour>
      <point x="38.4" y="115.0" type="line"/>
      <point x="38.4" y="48.7702"/>
      <point x="92.1702" y="-5.0"/>
      <point x="158.4" y="-5.0" type="curve"/>
      <point x="158.4" y="115.0" type="line"/>
    </contour>
    <contour>
      <point x="38.4" y="115.0" type="line"/>
      <point x="158.4" y="115.0" type="line"/>
      <point x="158.4" y="195.0" type="line"/>
      <point x="38.4" y="195.0" type="line"/>
    </contour>
    <contour>
      <point x="38.4" y="195.0" type="line"/>
      <point x="158.4" y="195.0" type="line"/>
      <point x="158.4" y="400.0" type="line"/>
      <point x="38.4" y="400.0" type="line"/>
    </contour>
    <contour>
      <point x="38.4" y="400" type="line"/>
      <point x="158.4" y="400" type="line"/>
      <point x="158.4" y="605.0" type="line"/>
      <point x="38.4" y="605.0" type="line"/>
    </contour>
    <contour>
      <point x="158.4" y="805.0" type="line"/>
      <point x="92.1702" y="805.0"/>
      <point x="38.4" y="751.2298"/>
      <point x="38.4" y="685.0" type="curve"/>
      <point x="158.4" y="685.0" type="line"/>
    </contour>
    <contour>
      <point x="38.4" y="605.0" type="line"/>
      <point x="158.4" y="605.0" type="line"/>
      <point x="158.4" y="685.0" type="line"/>
      <point x="38.4" y="685.0" type="line"/>
    </contour>
    <contour>
      <point x="198.4" y="-5.0" type="line"/>
      <point x="264.6298" y="-5.0"/>
      <point x="318.4" y="48.7702"/>
      <point x="318.4" y="115.0" type="curve"/>
      <point x="198.4" y="115.0" type="line"/>
    </contour>
    <contour>
      <point x="198.4" y="115.0" type="line"/>
      <point x="318.4" y="115.0" type="line"/>
      <point x="318.4" y="195.0" type="line"/>
      <point x="198.4" y="195.0" type="line"/>
    </contour>
    <contour>
      <point x="198.4" y="195.0" type="line"/>
      <point x="318.4" y="195.0" type="line"/>
      <point x="318.4" y="400.0" type="line"/>
      <point x="198.4" y="400.0" type="line"/>
    </contour>
    <contour>
      <point x="198.4" y="400" type="line"/>
      <point x="318.4" y="400" type="line"/>
      <point x="318.4" y="605.0" type="line"/>
      <point x="198.4" y="605.0" type="line"/>
    </contour>
    <contour>
      <point x="318.4" y="685.0" type="line"/>
      <point x="318.4" y="751.2298"/>
      <point x="264.6298" y="805.0"/>
      <point x="198.4" y="805.0" type="curve"/>
      <point x="198.4" y="685.0" type="line"/>
    </contour>
    <contour>
      <point x="198.4" y="605.0" type="line"/>
      <point x="318.4" y="605.0" type="line"/>
      <point x="318.4" y="685.0" type="line"/>
      <point x="198.4" y="685.0" type="line"/>
    </contour>
    <contour>
      <point x="163.4" y="904.4444444444445" type="curve" smooth="yes"/>
      <point x="163.4" y="940.3189244444445"/>
      <point x="134.27448" y="969.4444444444445"/>
      <point x="98.4" y="969.4444444444445" type="curve" smooth="yes"/>
      <point x="62.52552000000001" y="969.4444444444445"/>
      <point x="33.400000000000006" y="940.3189244444445"/>
      <point x="33.400000000000006" y="904.4444444444445" type="curve" smooth="yes"/>
      <point x="33.400000000000006" y="868.5699644444445"/>
      <point x="62.52552000000001" y="839.4444444444445"/>
      <point x="98.4" y="839.4444444444445" type="curve" smooth="yes"/>
      <point x="134.27448" y="839.4444444444445"/>
      <point x="163.4" y="868.5699644444445"/>
    </contour>
    <contour>
      <point x="323.4" y="904.4444444444445" type="curve" smooth="yes"/>
      <point x="323.4" y="940.3189244444445"/>
      <point x="294.27448000000004" y="969.4444444444445"/>
      <point x="258.4" y="969.4444444444445" type="curve" smooth="yes"/>
      <point x="222.52552" y="969.4444444444445"/>
      <point x="193.4" y="940.3189244444445"/>
      <point x="193.4" y="904.4444444444445" type="curve" smooth="yes"/>
      <point x="193.4" y="868.5699644444445"/>
      <point x="222.52552" y="839.4444444444445"/>
      <point x="258.4" y="839.4444444444445" type="curve" smooth="yes"/>
      <point x="294.27448000000004" y="839.4444444444445"/>
      <point x="323.4" y="868.5699644444445"/>
    </contour>
  </outline>
</glyph>
<glyph name="O_with_stroke" format="2">
  <advance width="356.8"/>
  <unicode hex="00D8"/>
  <outline>
    <contour>
      <point x="38.4" y="115.0" type="line"/>
      <point x="38.4" y="48.7702"/>
      <point x="92.1702" y="-5.0"/>
      <point x="158.4" y="-5.0" type="curve"/>
      <point x="158.4" y="115.0" type="line"/>
    </contour>
    <contour>
      <point x="38.4" y="115.0" type="line"/>
      <point x="158.4" y="115.0" type="line"/>
      <point x="158.4" y="195.0" type="line"/>
      <point x="38.4" y="195.0" type="line"/>
    </contour>
    <contour>
      <point x="38.4" y="195.0" type="line"/>
      <point x="158.4" y="195.0" type="line"/>
      <point x="158.4" y="400.0" type="line"/>
      <point x="38.4" y="400.0" type="line"/>
    </contour>
    <contour>
      <point x="38.4" y="400" type="line"/>
      <point x="158.4" y="400" type="line"/>
      <point x="158.4" y="605.0" type="line"/>
      <point x="38.4" y="605.0" type="line"/>
    </contour>
    <contour>
      <point x="158.4" y="805.0" type="line"/>
      <point x="92.1702" y="805.0"/>
      <point x="38.4" y="751.2298"/>
      <point x="38.4" y="685.0" type="curve"/>
      <point x="158.4" y="685.0" type="line"/>
    </contour>
    <contour>
      <point x="38.4" y="605.0" type="line"/>
      <point x="158.4" y="605.0" type="line"/>
      <point x="158.4" y="685.0" type="line"/>
      <point x="38.4" y="685.0" type="line"/>
    </contour>
    <contour>
      <point x="128.4" y="60.0" type="line"/>
      <point x="62.170199999999994" y="60.0"/>
      <point x="8.399999999999999" y="6.2298"/>
      <point x="8.399999999999999" y="-60.0" type="curve"/>
      <point x="128.4" y="-60.0" type="line"/>
    </contour>
    <contour>
      <point x="198.4" y="-5.0" type="line"/>
      <point x="264.6298" y="-5.0"/>
      <point x="318.4" y="48.7702"/>
      <point x="318.4" y="115.0" type="curve"/>
      <point x="198.4" y="115.0" type="line"/>
    </contour>
    <contour>
      <point x="198.4" y="115.0" type="line"/>
      <point x="318.4" y="115.0" type="line"/>
      <point x="318.4" y="195.0" type="line"/>
      <point x="198.4" y="195.0" type="line"/>
    </contour>
    <contour>
      <point x="198.4" y="195.0" type="line"/>
      <point x="318.4" y="195.0" type="line"/>
      <point x="318.4" y="400.0" type="line"/>
      <point x="198.4" y="400.0" type="line"/>
    </contour>
    <contour>
      <point x="198.4" y="400" type="line"/>
      <point x="318.4" y="400" type="line"/>
      <point x="318.4" y="605.0" type="line"/>
      <point x="198.4" y="605.0" type="line"/>
    </contour>
    <contour>
      <point x="318.4" y="685.0" type="line"/>
      <point x="318.4" y="751.2298"/>
      <point x="264.6298" y="805.0"/>
      <point x="198.4" y="805.0" type="curve"/>
      <point x="198.4" y="685.0" type="line"/>
    </contour>
    <contour>
      <point x="198.4" y="605.0" type="line"/>
      <point x="318.4" y="605.0" type="line"/>
      <point x="318.4" y="685.0" type="line"/>
      <point x="198.4" y="685.0" type="line"/>
    </contour>
    <contour>
      <point x="228.4" y="740.0" type="line"/>
      <point x="294.6298" y="740.0"/>
      <point x="348.4" y="793.7702"/>
      <point x="348.4" y="860.0" type="curve"/>
      <point x="228.4" y="860.0" type="line"/>
    </contour>
  </outline>
</glyph>
<glyph name="U_with_grave" format="2">
  <advance width="356.8"/>
  <unicode hex="00D9"/>
  <outline>
    <contour>
      <point x="38.4" y="115.0" type="line"/>
      <point x="38.4" y="48.7702"/>
      <point x="92.1702" y="-5.0"/>
      <point x="158.4" y="-5.0" type="curve"/>
      <point x="158.4" y="115.0" type="line"/>
    </contour>
    <contour>
      <point x="38.4" y="115.0" type="line"/>
      <point x="158.4" y="115.0" type="line"/>
      <point x="158.4" y="195.0" type="line"/>
      <point x="38.4" y="195.0" type="line"/>
    </contour>
    <contour>
      <point x="38.4" y="195.0" type="line"/>
      <point x="158.4" y="195.0" type="line"/>
      <point x="158.4" y="400.0" type="line"/>
      <point x="38.4" y="400.0" type="line"/>
    </contour>
    <contour>
      <point x="38.4" y="400" type="line"/>
      <point x="158.4" y="400" type="line"/>
      <point x="158.4" y="600" type="line"/>
      <point x="38.4" y="600" type="line"/>
    </contour>
    <contour>
      <point x="38.4" y="600" type="line"/>
      <point x="158.4" y="600" type="line"/>
      <point x="158.4" y="800" type="line"/>
      <point x="38.4" y="800" type="line"/>
    </contour>
    <contour>
      <point x="198.4" y="-5.0" type="line"/>
      <point x="264.6298" y="-5.0"/>
      <point x="318.4" y="48.7702"/>
      <point x="318.4" y="115.0" type="curve"/>
      <point x="198.4" y="115.0" type="line"/>
    </contour>
    <contour>
      <point x="198.4" y="115.0" type="line"/>
      <point x="318.4" y="115.0" type="line"/>
      <point x="318.4" y="195.0" type="line"/>
      <point x="198.4" y="195.0" type="line"/>
    </contour>
    <contour>
      <point x="198.4" y="195.0" type="line"/>
      <point x="318.4" y="195.0" type="line"/>
      <point x="318.4" y="400.0" type="line"/>
      <point x="198.4" y="400.0" type="line"/>
    </contour>
    <contour>
      <point x="198.4" y="400" type="line"/>
      <point x="318.4" y="400" type="line"/>
      <point x="318.4" y="600" type="line"/>
      <point x="198.4" y="600" type="line"/>
    </contour>
    <contour>
      <point x="198.4" y="600" type="line"/>
      <point x="318.4" y="600" type="line"/>
      <point x="318.4" y="800" type="line"/>
      <point x="198.4" y="800" type="line"/>
    </contour>
    <contour>
      <point x="65.9" y="964.4444444444445" type="line"/>
      <point x="65.9" y="898.2146444444445"/>
      <point x="119.67020000000001" y="844.4444444444445"/>
      <point x="185.9" y="844.4444444444445" type="curve"/>
      <point x="185.9" y="964.4444444444445" type="line"/>
    </contour>
  </outline>
</glyph>
<glyph name="U_with_acute" format="2">
  <advance width="356.8"/>
  <unicode hex="00DA"/>
  <outline>
    <contour>
      <point x="38.4" y="115.0" type="line"/>
      <point x="38.4" y="48.7702"/>
      <point x="92.1702" y="-5.0"/>
      <point x="158.4" y="-5.0" type="curve"/>
      <point x="158.4" y="115.0" type="line"/>
    </contour>
    <contour>
      <point x="38.4" y="115.0" type="line"/>
      <point x="158.4" y="115.0" type="line"/>
      <point x="158.4" y="195.0" type="line"/>
      <point x="38.4" y="195.0" type="line"/>
    </contour>
    <contour>
      <point x="38.4" y="195.0" type="line"/>
      <point x="158.4" y="195.0" type="line"/>
      <point x="158.4" y="400.0" type="line"/>
      <point x="38.4" y="400.0" type="line"/>
    </contour>
    <contour>
      <point x="38.4" y="400" type="line"/>
      <point x="158.4" y="400" type="line"/>
      <point x="158.4" y="600" type="line"/>
      <point x="38.4" y="600" type="line"/>
    </contour>
    <contour>
      <point x="38.4" y="600" type="line"/>
      <point x="158.4" y="600" type="line"/>
      <point x="158.4" y="800" type="line"/>
      <point x="38.4" y="800" type="line"/>
    </contour>
    <contour>
      <point x="198.4" y="-5.0" type="line"/>
      <point x="264.6298" y="-5.0"/>
      <point x="318.4" y="48.7702"/>
      <point x="318.4" y="115.0" type="curve"/>
      <point x="198.4" y="115.0" type="line"/>
    </contour>
    <contour>
      <point x="198.4" y="115.0" type="line"/>
      <point x="318.4" y="115.0" type="line"/>
      <point x="318.4" y="195.0" type="line"/>
      <point x="198.4" y="195.0" type="line"/>
    </contour>
    <contour>
      <point x="198.4" y="195.0" type="line"/>
      <point x="318.4" y="195.0" type="line"/>
      <point x="318.4" y="400.0" type="line"/>
      <point x="198.4" y="400.0" type="line"/>
    </contour>
    <contour>
      <point x="198.4" y="400" type="line"/>
      <point x="318.4" y="400" type="line"/>
      <point x="318.4" y="600" type="line"/>
      <point x="198.4" y="600" type="line"/>
    </contour>
    <contour>
      <point x="198.4" y="600" type="line"/>
      <point x="318.4" y="600" type="line"/>
      <point x="318.4" y="800" type="line"/>
      <point x="198.4" y="800" type="line"/>
    </contour>
    <contour>
      <point x="170.9" y="844.4444444444445" type="line"/>
      <point x="237.1298" y="844.4444444444445"/>
      <point x="290.9" y="898.2146444444445"/>
      <point x="290.9" y="964.4444444444445" type="curve"/>
      <point x="170.9" y="964.4444444444445" type="line"/>
    </contour>
  </outline>
</glyph>
<glyph name="THORN" format="2">
  <advance width="356.8"/>
  <unicode hex="00DE"/>
  <outline>
    <contour>
      <point x="38.4" y="0" type="line"/>
      <point x="158.4" y="0" type="line"/>
      <point x="158.4" y="200" type="line"/>
      <point x="38.4" y="200" type="line"/>
    </contour>
    <contour>
      <point x="38.4" y="200" type="line"/>
      <point x="158.4" y="200" type="line"/>
      <point x="158.4" y="400" type="line"/>
      <point x="38.4" y="400" type="line"/>
    </contour>
    <contour>
      <point x="38.4" y="400" type="line"/>
      <point x="158.4" y="400" type="line"/>
      <point x="158.4" y="600" type="line"/>
      <point x="38.4" y="600" type="line"/>
    </contour>
    <contour>
      <point x="38.4" y="600" type="line"/>
      <point x="158.4" y="600" type="line"/>
      <point x="158.4" y="800" type="line"/>
      <point x="38.4" y="800" type="line"/>
    </contour>
    <contour>
      <point x="198.4" y="100.0" type="line"/>
      <point x="264.6298" y="100.0"/>
      <point x="318.4" y="153.7702"/>
      <point x="318.4" y="220.0" type="curve"/>
      <point x="198.4" y="220.0" type="line"/>
    </contour>
    <contour>
      <point x="198.4" y="220.0" type="line"/>
      <point x="318.4" y="220.0" type="line"/>
      <point x="318.4" y="300.0" type="line"/>
      <point x="198.4" y="300.0" type="line"/>
    </contour>
    <contour>
      <point x="198.4" y="300.0" type="line"/>
      <point x="318.4" y="300.0" type="line"/>
      <point x="318.4" y="500.0" type="line"/>
      <point x="198.4" y="500.0" type="line"/>
    </contour>
    <contour>
      <point x="318.4" y="580.0" type="line"/>
      <point x="318.4" y="646.2298"/>
      <point x="264.6298" y="700.0"/>
      <point x="198.4" y="700.0" type="curve"/>
      <point x="198.4" y="580.0" type="line"/>
    </contour>
    <contour>
      <point x="198.4" y="500.0" type="line"/>
      <point x="318.4" y="500.0" type="line"/>
      <point x="318.4" y="580.0" type="line"/>
      <point x="198.4" y="580.0" type="line"/>
    </contour>
  </outline>
</glyph>
<glyph name="eszett" format="2">
  <advance width="356.8"/>
  <unicode hex="00DF"/>
  <outline>
    <contour>
      <point x="38.4" y="0" type="line"/>
      <point x="158.4" y="0" type="line"/>
      <point x="158.4" y="200" type="line"/>
      <point x="38.4" y="200" type="line"/>
    </contour>
    <contour>
      <point x="38.4" y="200" type="line"/>
      <point x="158.4" y="200" type="line"/>
      <point x="158.4" y="400" type="line"/>
      <point x="38.4" y="400" type="line"/>
    </contour>
    <contour>
      <point x="38.4" y="400" type="line"/>
      <point x="158.4" y="400" type="line"/>
      <point x="158.4" y="600" type="line"/>
      <point x="38.4" y="600" type="line"/>
    </contour>
    <contour>
      <point x="158.4" y="800.0" type="line"/>
      <point x="92.1702" y="800.0"/>
      <point x="38.4" y="746.2298"/>
      <point x="38.4" y="680.0" type="curve"/>
      <point x="158.4" y="680.0" type="line"/>
    </contour>
    <contour>
      <point x="38.4" y="600" type="line"/>
      <point x="158.4" y="600" type="line"/>
      <point x="158.4" y="680.0" type="line"/>
      <point x="38.4" y="680.0" type="line"/>
    </contour>
    <contour>
      <point x="198.4" y="0.0" type="line"/>
      <point x="264.6298" y="0.0"/>
      <point x="318.4" y="53.7702"/>
      <point x="318.4" y="120.0" type="curve"/>
      <point x="198.4" y="120.0" type="line"/>
    </contour>
    <contour>
      <point x="198.4" y="120.0" type="line"/>
      <point x="318.4" y="120.0" type="line"/>
      <point x="318.4" y="200.0" type="line"/>
      <point x="198.4" y="200.0" type="line"/>
    </contour>
    <contour>
      <point x="318.4" y="280.0" type="line"/>
      <point x="318.4" y="346.2298"/>
      <point x="264.6298" y="400.0"/>
      <point x="198.4" y="400.0" type="curve"/>
      <point x="198.4" y="280.0" type="line"/>
    </contour>
    <contour>
      <point x="198.4" y="200" type="line"/>
      <point x="318.4" y="200" type="line"/>
      <point x="318.4" y="280.0" type="line"/>
      <point x="198.4" y="280.0" type="line"/>
    </contour>
    <contour>
      <point x="198.4" y="400.0" type="line"/>
      <point x="264.6298" y="400.0"/>
      <point x="318.4" y="453.7702"/>
      <point x="318.4" y="520.0" type="curve"/>
      <point x="198.4" y="520.0" type="line"/>
    </contour>
    <contour>
      <point x="198.4" y="520.0" type="line"/>
      <point x="318.4" y="520.0" type="line"/>
      <point x="318.4" y="600.0" type="line"/>
      <point x="198.4" y="600.0" type="line"/>
    </contour>
    <contour>
      <point x="318.4" y="680.0" type="line"/>
      <point x="318.4" y="746.2298"/>
      <point x="264.6298" y="800.0"/>
      <point x="198.4" y="800.0" type="curve"/>
      <point x="198.4" y="680.0" type="line"/>
    </contour>
    <contour>
      <point x="198.4" y="600" type="line"/>
      <point x="318.4" y="600" type="line"/>
      <point x="318.4" y="680.0" type="line"/>
      <point x="198.4" y="680.0" type="line"/>
    </contour>
  </outline>
</glyph>
<glyph name="c_with_cedilla" format="2">
  <advance width="356.8"/>
  <unicode hex="00E7"/>
  <outline>
    <contour>
      <point x="38.4" y="120.0" type="line"/>
      <point x="38.4" y="53.7702"/>
      <point x="92.1702" y="0.0"/>
      <point x="158.4" y="0.0" type="curve"/>
      <point x="158.4" y="120.0" type="line"/>
    </contour>
    <contour>
      <point x="38.4" y="120.0" type="line"/>
      <point x="158.4" y="120.0" type="line"/>
      <point x="158.4" y="200.0" type="line"/>
      <point x="38.4" y="200.0" type="line"/>
    </contour>
    <contour>
      <point x="38.4" y="200" type="line"/>
      <point x="158.4" y="200" type="line"/>
      <point x="158.4" y="405.0" type="line"/>
      <point x="38.4" y="405.0" type="line"/>
    </contour>
    <contour>
      <point x="158.4" y="605.0" type="line"/>
      <point x="92.1702" y="605.0"/>
      <point x="38.4" y="551.2298"/>
      <point x="38.4" y="485.0" type="curve"/>
      <point x="158.4" y="485.0" type="line"/>
    </contour>
    <contour>
      <point x="38.4" y="405.0" type="line"/>
      <point x="158.4" y="405.0" type="line"/>
      <point x="158.4" y="485.0" type="line"/>
      <point x="38.4" y="485.0" type="line"/>
    </contour>
    <contour>
      <point x="316.525" y="120.0" type="line"/>
      <point x="250.2952" y="120.0"/>
      <point x="196.525" y="66.2298"/>
      <point x="196.525" y="0.0" type="curve"/>
      <point x="316.525" y="0.0" type="line"/>
    </contour>
    <contour>
      <point x="323.4" y="540.0" type="curve" smooth="yes"/>
      <point x="323.4" y="575.87448"/>
      <point x="294.27448" y="605.0"/>
      <point x="258.4" y="605.0" type="curve" smooth="yes"/>
      <point x="222.52552" y="605.0"/>
      <point x="193.4" y="575.87448"/>
      <point x="193.4" y="540.0" type="curve" smooth="yes"/>
      <point x="193.4" y="504.12552"/>
      <point x="222.52552" y="475.0"/>
      <point x="258.4" y="475.0" type="curve" smooth="yes"/>
      <point x="294.27448" y="475.0"/>
      <point x="323.4" y="504.12552"/>
    </contour>
    <contour>
      <point x="293.4" y="-145.0" type="line"/>
      <point x="293.4" y="-78.77019999999999"/>
      <point x="239.6298" y="-25.0"/>
      <point x="173.4" y="-25.0" type="curve"/>
      <point x="173.4" y="-145.0" type="line"/>
    </contour>
  </outline>
</glyph>
<glyph name="i_with_acute" format="2">
  <advance width="196.8"/>
  <unicode hex="00ED"/>
  <outline>
    <contour>
      <point x="38.4" y="0" type="line"/>
      <point x="158.4" y="0" type="line"/>
      <point x="158.4" y="200" type="line"/>
      <point x="38.4" y="200" type="line"/>
    </contour>
    <contour>
      <point x="38.4" y="200" type="line"/>
      <point x="158.4" y="200" type="line"/>
      <point x="158.4" y="400" type="line"/>
      <point x="38.4" y="400" type="line"/>
    </contour>
    <contour>
      <point x="38.4" y="400" type="line"/>
      <point x="158.4" y="400" type="line"/>
      <point x="158.4" y="600" type="line"/>
      <point x="38.4" y="600" type="line"/>
    </contour>
    <contour>
      <point x="90.9" y="644.4444444444445" type="line"/>
      <point x="157.1298" y="644.4444444444445"/>
      <point x="210.9" y="698.2146444444445"/>
      <point x="210.9" y="764.4444444444445" type="curve"/>
      <point x="90.9" y="764.4444444444445" type="line"/>
    </contour>
  </outline>
</glyph>
<glyph name="i_with_diaeresis" format="2">
  <advance width="196.8"/>
  <unicode hex="00EF"/>
  <outline>
    <contour>
      <point x="38.4" y="0" type="line"/>
      <point x="158.4" y="0" type="line"/>
      <point x="158.4" y="200" type="line"/>
      <point x="38.4" y="200" type="line"/>
    </contour>
    <contour>
      <point x="38.4" y="200" type="line"/>
      <point x="158.4" y="200" type="line"/>
      <point x="158.4" y="400" type="line"/>
      <point x="38.4" y="400" type="line"/>
    </contour>
    <contour>
      <point x="38.4" y="400" type="line"/>
      <point x="158.4" y="400" type="line"/>
      <point x="158.4" y="600" type="line"/>
      <point x="38.4" y="600" type="line"/>
    </contour>
    <contour>
      <point x="83.4" y="704.4444444444445" type="curve" smooth="yes"/>
      <point x="83.4" y="740.3189244444445"/>
      <point x="54.27448000000001" y="769.4444444444445"/>
      <point x="18.400000000000006" y="769.4444444444445" type="curve" smooth="yes"/>
      <point x="-17.474479999999993" y="769.4444444444445"/>
      <point x="-46.599999999999994" y="740.3189244444445"/>
      <point x="-46.599999999999994" y="704.4444444444445" type="curve" smooth="yes"/>
      <point x="-46.599999999999994" y="668.5699644444445"/>
      <point x="-17.474479999999993" y="639.4444444444445"/>
      <point x="18.400000000000006" y="639.4444444444445" type="curve" smooth="yes"/>
      <point x="54.27448000000001" y="639.4444444444445"/>
      <point x="83.4" y="668.5699644444445"/>
    </contour>
    <contour>
      <point x="243.4" y="704.4444444444445" type="curve" smooth="yes"/>
      <point x="243.4" y="740.3189244444445"/>
      <point x="214.27448" y="769.4444444444445"/>
      <point x="178.4" y="769.4444444444445" type="curve" smooth="yes"/>
      <point x="142.52552" y="769.4444444444445"/>
      <point x="113.4" y="740.3189244444445"/>
      <point x="113.4" y="704.4444444444445" type="curve" smooth="yes"/>
      <point x="113.4" y="668.5699644444445"/>
      <point x="142.52552" y="639.4444444444445"/>
      <point x="178.4" y="639.4444444444445" type="curve" smooth="yes"/>
      <point x="214.27448" y="639.4444444444445"/>
      <point x="243.4" y="668.5699644444445"/>
    </contour>
  </outline>
</glyph>
<glyph name="o_with_acute" format="2">
  <advance width="356.8"/>
  <unicode hex="00F3"/>
  <outline>
    <contour>
      <point x="38.4" y="115.0" type="line"/>
      <point x="38.4" y="48.7702"/>
      <point x="92.1702" y="-5.0"/>
      <point x="158.4" y="-5.0" type="curve"/>
      <point x="158.4" y="115.0" type="line"/>
    </contour>
    <contour>
      <point x="38.4" y="115.0" type="line"/>
      <point x="158.4" y="115.0" type="line"/>
      <point x="158.4" y="195.0" type="line"/>
      <point x="38.4" y="195.0" type="line"/>
    </contour>
    <contour>
      <point x="38.4" y="195.0" type="line"/>
      <point x="158.4" y="195.0" type="line"/>
      <point x="158.4" y="405.0" type="line"/>
      <point x="38.4" y="405.0" type="line"/>
    </contour>
    <contour>
      <point x="158.4" y="605.0" type="line"/>
      <point x="92.1702" y="605.0"/>
      <point x="38.4" y="551.2298"/>
      <point x="38.4" y="485.0" type="curve"/>
      <point x="158.4" y="485.0" type="line"/>
    </contour>
    <contour>
      <point x="38.4" y="405.0" type="line"/>
      <point x="158.4" y="405.0" type="line"/>
      <point x="158.4" y="485.0" type="line"/>
      <point x="38.4" y="485.0" type="line"/>
    </contour>
    <contour>
      <point x="198.4" y="-5.0" type="line"/>
      <point x="264.6298" y="-5.0"/>
      <point x="318.4" y="48.7702"/>
      <point x="318.4" y="115.0" type="curve"/>
      <point x="198.4" y="115.0" type="line"/>
    </contour>
    <contour>
      <point x="198.4" y="115.0" type="line"/>
      <point x="318.4" y="115.0" type="line"/>
      <point x="318.4" y="195.0" type="line"/>
      <point x="198.4" y="195.0" type="line"/>
    </contour>
    <contour>
      <point x="198.4" y="195.0" type="line"/>
      <point x="318.4" y="195.0" type="line"/>
      <point x="318.4" y="405.0" type="line"/>
      <point x="198.4" y="405.0" type="line"/>
    </contour>
    <contour>
      <point x="318.4" y="485.0" type="line"/>
      <point x="318.4" y="551.2298"/>
      <point x="264.6298" y="605.0"/>
      <point x="198.4" y="605.0" type="curve"/>
      <point x="198.4" y="485.0" type="line"/>
    </contour>
    <contour>
      <point x="198.4" y="405.0" type="line"/>
      <point x="318.4" y="405.0" type="line"/>
      <point x="318.4" y="485.0" type="line"/>
      <point x="198.4" y="485.0" type="line"/>
    </contour>
    <contour>
      <point x="170.9" y="644.4444444444445" type="line"/>
      <point x="237.1298" y="644.4444444444445"/>
      <point x="290.9" y="698.2146444444445"/>
      <point x="290.9" y="764.4444444444445" type="curve"/>
      <point x="170.9" y="764.4444444444445" type="line"/>
    </contour>
  </outline>
</glyph>
<glyph name="o_with_diaeresis" format="2">
  <advance width="356.8"/>
  <unicode hex="00F6"/>
  <outline>
    <contour>
      <point x="38.4" y="115.0" type="line"/>
      <point x="38.4" y="48.7702"/>
      <point x="92.1702" y="-5.0"/>
      <point x="158.4" y="-5.0" type="curve"/>
      <point x="158.4" y="115.0" type="line"/>
    </contour>
    <contour>
      <point x="38.4" y="115.0" type="line"/>
      <point x="158.4" y="115.0" type="line"/>
      <point x="158.4" y="195.0" type="line"/>
      <point x="38.4" y="195.0" type="line"/>
    </contour>
    <contour>
      <point x="38.4" y="195.0" type="line"/>
      <point x="158.4" y="195.0" type="line"/>
      <point x="158.4" y="405.0" type="line"/>
      <point x="38.4" y="405.0" type="line"/>
    </contour>
    <contour>
      <point x="158.4" y="605.0" type="line"/>
      <point x="92.1702" y="605.0"/>
      <point x="38.4" y="551.2298"/>
      <point x="38.4" y="485.0" type="curve"/>
      <point x="158.4" y="485.0" type="line"/>
    </contour>
    <contour>
      <point x="38.4" y="405.0" type="line"/>
      <point x="158.4" y="405.0" type="line"/>
      <point x="158.4" y="485.0" type="line"/>
      <point x="38.4" y="485.0" type="line"/>
    </contour>
    <contour>
      <point x="198.4" y="-5.0" type="line"/>
      <point x="264.6298" y="-5.0"/>
      <point x="318.4" y="48.7702"/>
      <point x="318.4" y="115.0" type="curve"/>
      <point x="198.4" y="115.0" type="line"/>
    </contour>
    <contour>
      <point x="198.4" y="115.0" type="line"/>
      <point x="318.4" y="115.0" type="line"/>
      <point x="318.4" y="195.0" type="line"/>
      <point x="198.4" y="195.0" type="line"/>
    </contour>
    <contour>
      <point x="198.4" y="195.0" type="line"/>
      <point x="318.4" y="195.0" type="line"/>
      <point x="318.4" y="405.0" type="line"/>
      <point x="198.4" y="405.0" type="line"/>
    </contour>
    <contour>
      <point x="318.4" y="485.0" type="line"/>
      <point x="318.4" y="551.2298"/>
      <point x="264.6298" y="605.0"/>
      <point x="198.4" y="605.0" type="curve"/>
      <point x="198.4" y="485.0" type="line"/>
    </contour>
    <contour>
      <point x="198.4" y="405.0" type="line"/>
      <point x="318.4" y="405.0" type="line"/>
      <point x="318.4" y="485.0" type="line"/>
      <point x="198.4" y="485.0" type="line"/>
    </contour>
    <contour>
      <point x="163.4" y="704.4444444444445" type="curve" smooth="yes"/>
      <point x="163.4" y="740.3189244444445"/>
      <point x="134.27448" y="769.4444444444445"/>
      <point x="98.4" y="769.4444444444445" type="curve" smooth="yes"/>
      <point x="62.52552000000001" y="769.4444444444445"/>
      <point x="33.400000000000006" y="740.3189244444445"/>
      <point x="33.400000000000006" y="704.4444444444445" type="curve" smooth="yes"/>
      <point x="33.400000000000006" y="668.5699644444445"/>
      <point x="62.52552000000001" y="639.4444444444445"/>
      <point x="98.4" y="639.4444444444445" type="curve" smooth="yes"/>
      <point x="134.27448" y="639.4444444444445"/>
      <point x="163.4" y="668.5699644444445"/>
    </contour>
    <contour>
      <point x="323.4" y="704.4444444444445" type="curve" smooth="yes"/>
      <point x="323.4" y="740.3189244444445"/>
      <point x="294.27448000000004" y="769.4444444444445"/>
      <point x="258.4" y="769.4444444444445" type="curve" smooth="yes"/>
      <point x="222.52552" y="769.4444444444445"/>
      <point x="193.4" y="740.3189244444445"/>
      <point x="193.4" y="704.4444444444445" type="curve" smooth="yes"/>
      <point x="193.4" y="668.5699644444445"/>
      <point x="222.52552" y="639.4444444444445"/>
      <point x="258.4" y="639.4444444444445" type="curve" smooth="yes"/>
      <point x="294.27448000000004" y="639.4444444444445"/>
      <point x="323.4" y="668.5699644444445"/>
    </contour>
  </outline>
</glyph>
<glyph name="o_with_stroke" format="2">
  <advance width="356.8"/>
  <unicode hex="00F8"/>
  <outline>
    <contour>
      <point x="38.4" y="115.0" type="line"/>
      <point x="38.4" y="48.7702"/>
      <point x="92.1702" y="-5.0"/>
      <point x="158.4" y="-5.0" type="curve"/>
      <point x="158.4" y="115.0" type="line"/>
    </contour>
    <contour>
      <point x="38.4" y="115.0" type="line"/>
      <point x="158.4" y="115.0" type="line"/>
      <point x="158.4" y="195.0" type="line"/>
      <point x="38.4" y="195.0" type="line"/>
    </contour>
    <contour>
      <point x="38.4" y="195.0" type="line"/>
      <point x="158.4" y="195.0" type="line"/>
      <point x="158.4" y="405.0" type="line"/>
      <point x="38.4" y="405.0" type="line"/>
    </contour>
    <contour>
      <point x="158.4" y="605.0" type="line"/>
      <point x="92.1702" y="605.0"/>
      <point x="38.4" y="551.2298"/>
      <point x="38.4" y="485.0" type="curve"/>
      <point x="158.4" y="485.0" type="line"/>
    </contour>
    <contour>
      <point x="38.4" y="405.0" type="line"/>
      <point x="158.4" y="405.0" type="line"/>
      <point x="158.4" y="485.0" type="line"/>
      <point x="38.4" y="485.0" type="line"/>
    </contour>
    <contour>
      <point x="128.4" y="60.0" type="line"/>
      <point x="62.170199999999994" y="60.0"/>
      <point x="8.399999999999999" y="6.2298"/>
      <point x="8.399999999999999" y="-60.0" type="curve"/>
      <point x="128.4" y="-60.0" type="line"/>
    </contour>
    <contour>
      <point x="198.4" y="-5.0" type="line"/>
      <point x="264.6298" y="-5.0"/>
      <point x="318.4" y="48.7702"/>
      <point x="318.4" y="115.0" type="curve"/>
      <point x="198.4" y="115.0" type="line"/>
    </contour>
    <contour>
      <point x="198.4" y="115.0" type="line"/>
      <point x="318.4" y="115.0" type="line"/>
      <point x="318.4" y="195.0" type="line"/>
      <point x="198.4" y="195.0" type="line"/>
    </contour>
    <contour>
      <point x="198.4" y="195.0" type="line"/>
      <point x="318.4" y="195.0" type="line"/>
      <point x="318.4" y="405.0" type="line"/>
      <point x="198.4" y="405.0" type="line"/>
    </contour>
    <contour>
      <point x="318.4" y="485.0" type="line"/>
      <point x="318.4" y="551.2298"/>
      <point x="264.6298" y="605.0"/>
      <point x="198.4" y="605.0" type="curve"/>
      <point x="198.4" y="485.0" type="line"/>
    </contour>
    <contour>
      <point x="198.4" y="405.0" type="line"/>
      <point x="318.4" y="405.0" type="line"/>
      <point x="318.4" y="485.0" type="line"/>
      <point x="198.4" y="485.0" type="line"/>
    </contour>
    <contour>
      <point x="228.4" y="540.0" type="line"/>
      <point x="294.6298" y="540.0"/>
      <point x="348.4" y="593.7702"/>
      <point x="348.4" y="660.0" type="curve"/>
      <point x="228.4" y="660.0" type="line"/>
    </contour>
  </outline>
</glyph>
<glyph name="u_with_grave" format="2">
  <advance width="356.8"/>
  <unicode hex="00F9"/>
  <outline>
    <contour>
      <point x="38.4" y="115.0" type="line"/>
      <point x="38.4" y="48.7702"/>
      <point x="92.1702" y="-5.0"/>
      <point x="158.4" y="-5.0" type="curve"/>
      <point x="158.4" y="115.0" type="line"/>
    </contour>
    <contour>
      <point x="38.4" y="115.0" type="line"/>
      <point x="158.4" y="115.0" type="line"/>
      <point x="158.4" y="195.0" type="line"/>
      <point x="38.4" y="195.0" type="line"/>
    </contour>
    <contour>
      <point x="38.4" y="195.0" type="line"/>
      <point x="158.4" y="195.0" type="line"/>
      <point x="158.4" y="400.0" type="line"/>
      <point x="38.4" y="400.0" type="line"/>
    </contour>
    <contour>
      <point x="38.4" y="400" type="line"/>
      <point x="158.4" y="400" type="line"/>
      <point x="158.4" y="600" type="line"/>
      <point x="38.4" y="600" type="line"/>
    </contour>
    <contour>
      <point x="198.4" y="-5.0" type="line"/>
      <point x="264.6298" y="-5.0"/>
      <point x="318.4" y="48.7702"/>
      <point x="318.4" y="115.0" type="curve"/>
      <point x="198.4" y="115.0" type="line"/>
    </contour>
    <contour>
      <point x="198.4" y="115.0" type="line"/>
      <point x="318.4" y="115.0" type="line"/>
      <point x="318.4" y="195.0" type="line"/>
      <point x="198.4" y="195.0" type="line"/>
    </contour>
    <contour>
      <point x="198.4" y="195.0" type="line"/>
      <point x="318.4" y="195.0" type="line"/>
      <point x="318.4" y="400.0" type="line"/>
      <point x="198.4" y="400.0" type="line"/>
    </contour>
    <contour>
      <point x="198.4" y="400" type="line"/>
      <point x="318.4" y="400" type="line"/>
      <point x="318.4" y="600" type="line"/>
      <point x="198.4" y="600" type="line"/>
    </contour>
    <contour>
      <point x="65.9" y="764.4444444444445" type="line"/>
      <point x="65.9" y="698.2146444444445"/>
      <point x="119.67020000000001" y="644.4444444444445"/>
      <point x="185.9" y="644.4444444444445" type="curve"/>
      <point x="185.9" y="764.4444444444445" type="line"/>
    </contour>
  </outline>
</glyph>
<glyph name="u_with_circumflex" format="2">
  <advance width="356.8"/>
  <unicode hex="00FB"/>
  <outline>
    <contour>
      <point x="38.4" y="115.0" type="line"/>
      <point x="38.4" y="48.7702"/>
      <point x="92.1702" y="-5.0"/>
      <point x="158.4" y="-5.0" type="curve"/>
      <point x="158.4" y="115.0" type="line"/>
    </contour>
    <contour>
      <point x="38.4" y="115.0" type="line"/>
      <point x="158.4" y="115.0" type="line"/>
      <point x="158.4" y="195.0" type="line"/>
      <point x="38.4" y="195.0" type="line"/>
    </contour>
    <contour>
      <point x="38.4" y="195.0" type="line"/>
      <point x="158.4" y="195.0" type="line"/>
      <point x="158.4" y="400.0" type="line"/>
      <point x="38.4" y="400.0" type="line"/>
    </contour>
    <contour>
      <point x="38.4" y="400" type="line"/>
      <point x="158.4" y="400" type="line"/>
      <point x="158.4" y="600" type="line"/>
      <point x="38.4" y="600" type="line"/>
    </contour>
    <contour>
      <point x="198.4" y="-5.0" type="line"/>
      <point x="264.6298" y="-5.0"/>
      <point x="318.4" y="48.7702"/>
      <point x="318.4" y="115.0" type="curve"/>
      <point x="198.4" y="115.0" type="line"/>
    </contour>
    <contour>
      <point x="198.4" y="115.0" type="line"/>
      <point x="318.4" y="115.0" type="line"/>
      <point x="318.4" y="195.0" type="line"/>
      <point x="198.4" y="195.0" type="line"/>
    </contour>
    <contour>
      <point x="198.4" y="195.0" type="line"/>
      <point x="318.4" y="195.0" type="line"/>
      <point x="318.4" y="400.0" type="line"/>
      <point x="198.4" y="400.0" type="line"/>
    </contour>
    <contour>
      <point x="198.4" y="400" type="line"/>
      <point x="318.4" y="400" type="line"/>
      <point x="318.4" y="600" type="line"/>
      <point x="198.4" y="600" type="line"/>
    </contour>
    <contour>
      <point x="54.650000000000006" y="644.4444444444445" type="line"/>
      <point x="120.8798" y="644.4444444444445"/>
      <point x="174.65" y="698.2146444444445"/>
      <point x="174.65" y="764.4444444444445" type="curve"/>
      <point x="54.650000000000006" y="764.4444444444445" type="line"/>
    </contour>
    <contour>
      <point x="182.15" y="764.4444444444445" type="line"/>
      <point x="182.15" y="698.2146444444445"/>
      <point x="235.9202" y="644.4444444444445"/>
      <point x="302.15" y="644.4444444444445" type="curve"/>
      <point x="302.15" y="764.4444444444445" type="line"/>
    </contour>
  </outline>
</glyph>
<glyph name="u_with_diaeresis" format="2">
  <advance width="356.8"/>
  <unicode hex="00FC"/>
  <outline>
    <contour>
      <point x="38.4" y="115.0" type="line"/>
      <point x="38.4" y="48.7702"/>
      <point x="92.1702" y="-5.0"/>
      <point x="158.4" y="-5.0" type="curve"/>
      <point x="158.4" y="115.0" type="line"/>
    </contour>
    <contour>
      <point x="38.4" y="115.0" type="line"/>
      <point x="158.4" y="115.0" type="line"/>
      <point x="158.4" y="195.0" type="line"/>
      <point x="38.4" y="195.0" type="line"/>
    </contour>
    <contour>
      <point x="38.4" y="195.0" type="line"/>
      <point x="158.4" y="195.0" type="line"/>
      <point x="158.4" y="400.0" type="line"/>
      <point x="38.4" y="400.0" type="line"/>
    </contour>
    <contour>
      <point x="38.4" y="400" type="line"/>
      <point x="158.4" y="400" type="line"/>
      <point x="158.4" y="600" type="line"/>
      <point x="38.4" y="600" type="line"/>
    </contour>
    <contour>
      <point x="198.4" y="-5.0" type="line"/>
      <point x="264.6298" y="-5.0"/>
      <point x="318.4" y="48.7702"/>
      <point x="318.4" y="115.0" type="curve"/>
      <point x="198.4" y="115.0" type="line"/>
    </contour>
    <contour>
      <point x="198.4" y="115.0" type="line"/>
      <point x="318.4" y="115.0" type="line"/>
      <point x="318.4" y="195.0" type="line"/>
      <point x="198.4" y="195.0" type="line"/>
    </contour>
    <contour>
      <point x="198.4" y="195.0" type="line"/>
      <point x="318.4" y="195.0" type="line"/>
      <point x="318.4" y="400.0" type="line"/>
      <point x="198.4" y="400.0" type="line"/>
    </contour>
    <contour>
      <point x="198.4" y="400" type="line"/>
      <point x="318.4" y="400" type="line"/>
      <point x="318.4" y="600" type="line"/>
      <point x="198.4" y="600" type="line"/>
    </contour>
    <contour>
      <point x="163.4" y="704.4444444444445" type="curve" smooth="yes"/>
      <point x="163.4" y="740.3189244444445"/>
      <point x="134.27448" y="769.4444444444445"/>
      <point x="98.4" y="769.4444444444445" type="curve" smooth="yes"/>
      <point x="62.52552000000001" y="769.4444444444445"/>
      <point x="33.400000000000006" y="740.3189244444445"/>
      <point x="33.400000000000006" y="704.4444444444445" type="curve" smooth="yes"/>
      <point x="33.400000000000006" y="668.5699644444445"/>
      <point x="62.52552000000001" y="639.4444444444445"/>
      <point x="98.4" y="639.4444444444445" type="curve" smooth="yes"/>
      <point x="134.27448" y="639.4444444444445"/>
      <point x="163.4" y="668.5699644444445"/>
    </contour>
    <contour>
      <point x="323.4" y="704.4444444444445" type="curve" smooth="yes"/>
      <point x="323.4" y="740.3189244444445"/>
      <point x="294.27448000000004" y="769.4444444444445"/>
      <point x="258.4" y="769.4444444444445" type="curve" smooth="yes"/>
      <point x="222.52552" y="769.4444444444445"/>
      <point x="193.4" y="740.3189244444445"/>
      <point x="193.4" y="704.4444444444445" type="curve" smooth="yes"/>
      <point x="193.4" y="668.5699644444445"/>
      <point x="222.52552" y="639.4444444444445"/>
      <point x="258.4" y="639.4444444444445" type="curve" smooth="yes"/>
      <point x="294.27448000000004" y="639.4444444444445"/>
      <point x="323.4" y="668.5699644444445"/>
    </contour>
  </outline>
</glyph>
